<?xml version="1.0" encoding="utf-8" standalone="no"?>
<!DOCTYPE svg PUBLIC "-//W3C//DTD SVG 1.1//EN"
  "http://www.w3.org/Graphics/SVG/1.1/DTD/svg11.dtd">
<svg xmlns:xlink="http://www.w3.org/1999/xlink" width="446.4pt" height="316.8pt" viewBox="0 0 446.4 316.8" xmlns="http://www.w3.org/2000/svg" version="1.1">
 <metadata>
  <rdf:RDF xmlns:dc="http://purl.org/dc/elements/1.1/" xmlns:cc="http://creativecommons.org/ns#" xmlns:rdf="http://www.w3.org/1999/02/22-rdf-syntax-ns#">
   <cc:Work>
    <dc:type rdf:resource="http://purl.org/dc/dcmitype/StillImage"/>
    <dc:date>2025-10-17T00:43:30.674179</dc:date>
    <dc:format>image/svg+xml</dc:format>
    <dc:creator>
     <cc:Agent>
      <dc:title>Matplotlib v3.10.3, https://matplotlib.org/</dc:title>
     </cc:Agent>
    </dc:creator>
   </cc:Work>
  </rdf:RDF>
 </metadata>
 <defs>
  <style type="text/css">*{stroke-linejoin: round; stroke-linecap: butt}</style>
 </defs>
 <g id="figure_1">
  <g id="patch_1">
   <path d="M 0 316.8 
L 446.4 316.8 
L 446.4 0 
L 0 0 
z
" style="fill: #ffffff"/>
  </g>
  <g id="axes_1">
   <g id="patch_2">
    <path d="M 51.851638 275.575259 
L 439.2 275.575259 
L 439.2 7.2 
L 51.851638 7.2 
z
" style="fill: #ffffff"/>
   </g>
   <g id="matplotlib.axis_1">
    <g id="xtick_1">
     <g id="line2d_1">
      <path d="M 69.458382 275.575259 
L 69.458382 7.2 
" clip-path="url(#peaebf72a47)" style="fill: none; stroke: #b0b0b0; stroke-opacity: 0.7; stroke-width: 0.8; stroke-linecap: square"/>
     </g>
     <g id="line2d_2">
      <defs>
       <path id="m26f3828b12" d="M 0 0 
L 0 3.5 
" style="stroke: #000000; stroke-width: 0.8"/>
      </defs>
      <g>
       <use xlink:href="#m26f3828b12" x="69.458382" y="275.575259" style="stroke: #000000; stroke-width: 0.8"/>
      </g>
     </g>
     <g id="text_1">
      <!-- $\mathdefault{0}$ -->
      <g transform="translate(66.967714 289.493757) scale(0.1 -0.1)">
       <defs>
        <path id="CMR17-30" d="M 2688 2025 
C 2688 2416 2682 3080 2413 3591 
C 2176 4039 1798 4198 1466 4198 
C 1158 4198 768 4058 525 3597 
C 269 3118 243 2524 243 2025 
C 243 1661 250 1106 448 619 
C 723 -39 1216 -128 1466 -128 
C 1760 -128 2208 -7 2470 600 
C 2662 1042 2688 1559 2688 2025 
z
M 1466 -26 
C 1056 -26 813 325 723 812 
C 653 1188 653 1738 653 2096 
C 653 2588 653 2997 736 3387 
C 858 3929 1216 4096 1466 4096 
C 1728 4096 2067 3923 2189 3400 
C 2272 3036 2278 2607 2278 2096 
C 2278 1680 2278 1169 2202 792 
C 2067 95 1690 -26 1466 -26 
z
" transform="scale(0.015625)"/>
       </defs>
       <use xlink:href="#CMR17-30" transform="scale(0.996264)"/>
      </g>
     </g>
    </g>
    <g id="xtick_2">
     <g id="line2d_3">
      <path d="M 140.596741 275.575259 
L 140.596741 7.2 
" clip-path="url(#peaebf72a47)" style="fill: none; stroke: #b0b0b0; stroke-opacity: 0.7; stroke-width: 0.8; stroke-linecap: square"/>
     </g>
     <g id="line2d_4">
      <g>
       <use xlink:href="#m26f3828b12" x="140.596741" y="275.575259" style="stroke: #000000; stroke-width: 0.8"/>
      </g>
     </g>
     <g id="text_2">
      <!-- $\mathdefault{20}$ -->
      <g transform="translate(135.615405 289.493757) scale(0.1 -0.1)">
       <defs>
        <path id="CMR17-32" d="M 2669 989 
L 2554 989 
C 2490 536 2438 459 2413 420 
C 2381 369 1920 369 1830 369 
L 602 369 
C 832 619 1280 1072 1824 1597 
C 2214 1967 2669 2402 2669 3035 
C 2669 3790 2067 4224 1395 4224 
C 691 4224 262 3604 262 3030 
C 262 2780 448 2748 525 2748 
C 589 2748 781 2787 781 3010 
C 781 3207 614 3264 525 3264 
C 486 3264 448 3258 422 3245 
C 544 3790 915 4058 1306 4058 
C 1862 4058 2227 3617 2227 3035 
C 2227 2479 1901 2000 1536 1584 
L 262 146 
L 262 0 
L 2515 0 
L 2669 989 
z
" transform="scale(0.015625)"/>
       </defs>
       <use xlink:href="#CMR17-32" transform="scale(0.996264)"/>
       <use xlink:href="#CMR17-30" transform="translate(45.690477 0) scale(0.996264)"/>
      </g>
     </g>
    </g>
    <g id="xtick_3">
     <g id="line2d_5">
      <path d="M 211.735099 275.575259 
L 211.735099 7.2 
" clip-path="url(#peaebf72a47)" style="fill: none; stroke: #b0b0b0; stroke-opacity: 0.7; stroke-width: 0.8; stroke-linecap: square"/>
     </g>
     <g id="line2d_6">
      <g>
       <use xlink:href="#m26f3828b12" x="211.735099" y="275.575259" style="stroke: #000000; stroke-width: 0.8"/>
      </g>
     </g>
     <g id="text_3">
      <!-- $\mathdefault{40}$ -->
      <g transform="translate(206.753764 289.493757) scale(0.1 -0.1)">
       <defs>
        <path id="CMR17-34" d="M 2150 4122 
C 2150 4256 2144 4256 2029 4256 
L 128 1254 
L 128 1088 
L 1779 1088 
L 1779 457 
C 1779 224 1766 160 1318 160 
L 1197 160 
L 1197 0 
C 1402 0 1747 0 1965 0 
C 2182 0 2528 0 2733 0 
L 2733 160 
L 2611 160 
C 2163 160 2150 224 2150 457 
L 2150 1088 
L 2803 1088 
L 2803 1254 
L 2150 1254 
L 2150 4122 
z
M 1798 3703 
L 1798 1254 
L 256 1254 
L 1798 3703 
z
" transform="scale(0.015625)"/>
       </defs>
       <use xlink:href="#CMR17-34" transform="scale(0.996264)"/>
       <use xlink:href="#CMR17-30" transform="translate(45.690477 0) scale(0.996264)"/>
      </g>
     </g>
    </g>
    <g id="xtick_4">
     <g id="line2d_7">
      <path d="M 282.873457 275.575259 
L 282.873457 7.2 
" clip-path="url(#peaebf72a47)" style="fill: none; stroke: #b0b0b0; stroke-opacity: 0.7; stroke-width: 0.8; stroke-linecap: square"/>
     </g>
     <g id="line2d_8">
      <g>
       <use xlink:href="#m26f3828b12" x="282.873457" y="275.575259" style="stroke: #000000; stroke-width: 0.8"/>
      </g>
     </g>
     <g id="text_4">
      <!-- $\mathdefault{60}$ -->
      <g transform="translate(277.892122 289.493757) scale(0.1 -0.1)">
       <defs>
        <path id="CMR17-36" d="M 678 2176 
C 678 3690 1395 4032 1811 4032 
C 1946 4032 2272 4009 2400 3776 
C 2298 3776 2106 3776 2106 3553 
C 2106 3381 2246 3323 2336 3323 
C 2394 3323 2566 3348 2566 3560 
C 2566 3954 2246 4179 1805 4179 
C 1043 4179 243 3390 243 1984 
C 243 253 966 -128 1478 -128 
C 2099 -128 2688 427 2688 1283 
C 2688 2081 2170 2662 1517 2662 
C 1126 2662 838 2407 678 1960 
L 678 2176 
z
M 1478 25 
C 691 25 691 1200 691 1436 
C 691 1896 909 2560 1504 2560 
C 1613 2560 1926 2560 2138 2120 
C 2253 1870 2253 1609 2253 1289 
C 2253 944 2253 690 2118 434 
C 1978 171 1773 25 1478 25 
z
" transform="scale(0.015625)"/>
       </defs>
       <use xlink:href="#CMR17-36" transform="scale(0.996264)"/>
       <use xlink:href="#CMR17-30" transform="translate(45.690477 0) scale(0.996264)"/>
      </g>
     </g>
    </g>
    <g id="xtick_5">
     <g id="line2d_9">
      <path d="M 354.011816 275.575259 
L 354.011816 7.2 
" clip-path="url(#peaebf72a47)" style="fill: none; stroke: #b0b0b0; stroke-opacity: 0.7; stroke-width: 0.8; stroke-linecap: square"/>
     </g>
     <g id="line2d_10">
      <g>
       <use xlink:href="#m26f3828b12" x="354.011816" y="275.575259" style="stroke: #000000; stroke-width: 0.8"/>
      </g>
     </g>
     <g id="text_5">
      <!-- $\mathdefault{80}$ -->
      <g transform="translate(349.030481 289.493757) scale(0.1 -0.1)">
       <defs>
        <path id="CMR17-38" d="M 1741 2264 
C 2144 2467 2554 2773 2554 3263 
C 2554 3841 1990 4179 1472 4179 
C 890 4179 378 3759 378 3180 
C 378 3021 416 2747 666 2505 
C 730 2442 998 2251 1171 2130 
C 883 1983 211 1634 211 934 
C 211 279 838 -128 1459 -128 
C 2144 -128 2720 362 2720 1010 
C 2720 1590 2330 1857 2074 2029 
L 1741 2264 
z
M 902 2822 
C 851 2854 595 3051 595 3351 
C 595 3739 998 4032 1459 4032 
C 1965 4032 2336 3676 2336 3262 
C 2336 2669 1670 2331 1638 2331 
C 1632 2331 1626 2331 1574 2370 
L 902 2822 
z
M 2080 1519 
C 2176 1449 2483 1240 2483 851 
C 2483 381 2010 25 1472 25 
C 890 25 448 438 448 940 
C 448 1443 838 1862 1280 2060 
L 2080 1519 
z
" transform="scale(0.015625)"/>
       </defs>
       <use xlink:href="#CMR17-38" transform="scale(0.996264)"/>
       <use xlink:href="#CMR17-30" transform="translate(45.690477 0) scale(0.996264)"/>
      </g>
     </g>
    </g>
    <g id="xtick_6">
     <g id="line2d_11">
      <path d="M 425.150174 275.575259 
L 425.150174 7.2 
" clip-path="url(#peaebf72a47)" style="fill: none; stroke: #b0b0b0; stroke-opacity: 0.7; stroke-width: 0.8; stroke-linecap: square"/>
     </g>
     <g id="line2d_12">
      <g>
       <use xlink:href="#m26f3828b12" x="425.150174" y="275.575259" style="stroke: #000000; stroke-width: 0.8"/>
      </g>
     </g>
     <g id="text_6">
      <!-- $\mathdefault{100}$ -->
      <g transform="translate(417.678171 289.493757) scale(0.1 -0.1)">
       <defs>
        <path id="CMR17-31" d="M 1702 4058 
C 1702 4192 1696 4192 1606 4192 
C 1357 3916 979 3827 621 3827 
C 602 3827 570 3827 563 3808 
C 557 3795 557 3782 557 3648 
C 755 3648 1088 3686 1344 3839 
L 1344 461 
C 1344 236 1331 160 781 160 
L 589 160 
L 589 0 
C 896 0 1216 0 1523 0 
C 1830 0 2150 0 2458 0 
L 2458 160 
L 2266 160 
C 1715 160 1702 230 1702 458 
L 1702 4058 
z
" transform="scale(0.015625)"/>
       </defs>
       <use xlink:href="#CMR17-31" transform="scale(0.996264)"/>
       <use xlink:href="#CMR17-30" transform="translate(45.690477 0) scale(0.996264)"/>
       <use xlink:href="#CMR17-30" transform="translate(91.380954 0) scale(0.996264)"/>
      </g>
     </g>
    </g>
    <g id="text_7">
     <!-- $\varepsilon$ -->
     <g transform="translate(241.873804 306.500524) scale(0.16 -0.16)">
      <defs>
       <path id="CMMI12-22" d="M 890 1427 
C 1094 1345 1312 1345 1434 1345 
C 1600 1345 1933 1345 1933 1550 
C 1933 1678 1811 1728 1485 1728 
C 1325 1728 1133 1709 909 1613 
C 710 1708 634 1852 634 1990 
C 634 2379 1261 2606 1830 2606 
C 1939 2606 2170 2606 2438 2411 
C 2477 2387 2496 2367 2541 2367 
C 2618 2367 2701 2449 2701 2526 
C 2701 2639 2330 2880 1888 2880 
C 1171 2880 493 2449 493 1972 
C 493 1734 646 1586 755 1509 
C 384 1301 166 961 166 652 
C 166 219 563 -128 1178 -128 
C 2022 -128 2362 424 2362 512 
C 2362 543 2336 568 2304 568 
C 2272 568 2259 549 2234 512 
C 2163 395 1997 146 1235 146 
C 838 146 314 245 314 686 
C 314 898 474 1214 890 1427 
z
M 1088 1518 
C 1261 1600 1427 1600 1472 1600 
C 1651 1600 1683 1583 1786 1545 
C 1677 1472 1664 1472 1434 1472 
C 1318 1472 1216 1472 1088 1518 
z
" transform="scale(0.015625)"/>
      </defs>
      <use xlink:href="#CMMI12-22" transform="scale(0.996264)"/>
     </g>
    </g>
   </g>
   <g id="matplotlib.axis_2">
    <g id="ytick_1">
     <g id="line2d_13">
      <path d="M 51.851638 263.376383 
L 439.2 263.376383 
" clip-path="url(#peaebf72a47)" style="fill: none; stroke: #b0b0b0; stroke-opacity: 0.7; stroke-width: 0.8; stroke-linecap: square"/>
     </g>
     <g id="line2d_14">
      <defs>
       <path id="m6d232d8d03" d="M 0 0 
L -3.5 0 
" style="stroke: #000000; stroke-width: 0.8"/>
      </defs>
      <g>
       <use xlink:href="#m6d232d8d03" x="51.851638" y="263.376383" style="stroke: #000000; stroke-width: 0.8"/>
      </g>
     </g>
     <g id="text_8">
      <!-- $\mathdefault{0.00}$ -->
      <g transform="translate(27.140224 266.835633) scale(0.1 -0.1)">
       <defs>
        <path id="CMMI12-3a" d="M 1178 307 
C 1178 492 1024 619 870 619 
C 685 619 557 466 557 313 
C 557 128 710 0 864 0 
C 1050 0 1178 153 1178 307 
z
" transform="scale(0.015625)"/>
       </defs>
       <use xlink:href="#CMR17-30" transform="scale(0.996264)"/>
       <use xlink:href="#CMMI12-3a" transform="translate(45.690477 0) scale(0.996264)"/>
       <use xlink:href="#CMR17-30" transform="translate(72.787654 0) scale(0.996264)"/>
       <use xlink:href="#CMR17-30" transform="translate(118.478131 0) scale(0.996264)"/>
      </g>
     </g>
    </g>
    <g id="ytick_2">
     <g id="line2d_15">
      <path d="M 51.851638 230.514107 
L 439.2 230.514107 
" clip-path="url(#peaebf72a47)" style="fill: none; stroke: #b0b0b0; stroke-opacity: 0.7; stroke-width: 0.8; stroke-linecap: square"/>
     </g>
     <g id="line2d_16">
      <g>
       <use xlink:href="#m6d232d8d03" x="51.851638" y="230.514107" style="stroke: #000000; stroke-width: 0.8"/>
      </g>
     </g>
     <g id="text_9">
      <!-- $\mathdefault{0.02}$ -->
      <g transform="translate(27.140224 233.973356) scale(0.1 -0.1)">
       <use xlink:href="#CMR17-30" transform="scale(0.996264)"/>
       <use xlink:href="#CMMI12-3a" transform="translate(45.690477 0) scale(0.996264)"/>
       <use xlink:href="#CMR17-30" transform="translate(72.787654 0) scale(0.996264)"/>
       <use xlink:href="#CMR17-32" transform="translate(118.478131 0) scale(0.996264)"/>
      </g>
     </g>
    </g>
    <g id="ytick_3">
     <g id="line2d_17">
      <path d="M 51.851638 197.65183 
L 439.2 197.65183 
" clip-path="url(#peaebf72a47)" style="fill: none; stroke: #b0b0b0; stroke-opacity: 0.7; stroke-width: 0.8; stroke-linecap: square"/>
     </g>
     <g id="line2d_18">
      <g>
       <use xlink:href="#m6d232d8d03" x="51.851638" y="197.65183" style="stroke: #000000; stroke-width: 0.8"/>
      </g>
     </g>
     <g id="text_10">
      <!-- $\mathdefault{0.04}$ -->
      <g transform="translate(27.140224 201.111079) scale(0.1 -0.1)">
       <use xlink:href="#CMR17-30" transform="scale(0.996264)"/>
       <use xlink:href="#CMMI12-3a" transform="translate(45.690477 0) scale(0.996264)"/>
       <use xlink:href="#CMR17-30" transform="translate(72.787654 0) scale(0.996264)"/>
       <use xlink:href="#CMR17-34" transform="translate(118.478131 0) scale(0.996264)"/>
      </g>
     </g>
    </g>
    <g id="ytick_4">
     <g id="line2d_19">
      <path d="M 51.851638 164.789554 
L 439.2 164.789554 
" clip-path="url(#peaebf72a47)" style="fill: none; stroke: #b0b0b0; stroke-opacity: 0.7; stroke-width: 0.8; stroke-linecap: square"/>
     </g>
     <g id="line2d_20">
      <g>
       <use xlink:href="#m6d232d8d03" x="51.851638" y="164.789554" style="stroke: #000000; stroke-width: 0.8"/>
      </g>
     </g>
     <g id="text_11">
      <!-- $\mathdefault{0.06}$ -->
      <g transform="translate(27.140224 168.248803) scale(0.1 -0.1)">
       <use xlink:href="#CMR17-30" transform="scale(0.996264)"/>
       <use xlink:href="#CMMI12-3a" transform="translate(45.690477 0) scale(0.996264)"/>
       <use xlink:href="#CMR17-30" transform="translate(72.787654 0) scale(0.996264)"/>
       <use xlink:href="#CMR17-36" transform="translate(118.478131 0) scale(0.996264)"/>
      </g>
     </g>
    </g>
    <g id="ytick_5">
     <g id="line2d_21">
      <path d="M 51.851638 131.927277 
L 439.2 131.927277 
" clip-path="url(#peaebf72a47)" style="fill: none; stroke: #b0b0b0; stroke-opacity: 0.7; stroke-width: 0.8; stroke-linecap: square"/>
     </g>
     <g id="line2d_22">
      <g>
       <use xlink:href="#m6d232d8d03" x="51.851638" y="131.927277" style="stroke: #000000; stroke-width: 0.8"/>
      </g>
     </g>
     <g id="text_12">
      <!-- $\mathdefault{0.08}$ -->
      <g transform="translate(27.140224 135.386526) scale(0.1 -0.1)">
       <use xlink:href="#CMR17-30" transform="scale(0.996264)"/>
       <use xlink:href="#CMMI12-3a" transform="translate(45.690477 0) scale(0.996264)"/>
       <use xlink:href="#CMR17-30" transform="translate(72.787654 0) scale(0.996264)"/>
       <use xlink:href="#CMR17-38" transform="translate(118.478131 0) scale(0.996264)"/>
      </g>
     </g>
    </g>
    <g id="ytick_6">
     <g id="line2d_23">
      <path d="M 51.851638 99.065 
L 439.2 99.065 
" clip-path="url(#peaebf72a47)" style="fill: none; stroke: #b0b0b0; stroke-opacity: 0.7; stroke-width: 0.8; stroke-linecap: square"/>
     </g>
     <g id="line2d_24">
      <g>
       <use xlink:href="#m6d232d8d03" x="51.851638" y="99.065" style="stroke: #000000; stroke-width: 0.8"/>
      </g>
     </g>
     <g id="text_13">
      <!-- $\mathdefault{0.10}$ -->
      <g transform="translate(27.140224 102.52425) scale(0.1 -0.1)">
       <use xlink:href="#CMR17-30" transform="scale(0.996264)"/>
       <use xlink:href="#CMMI12-3a" transform="translate(45.690477 0) scale(0.996264)"/>
       <use xlink:href="#CMR17-31" transform="translate(72.787654 0) scale(0.996264)"/>
       <use xlink:href="#CMR17-30" transform="translate(118.478131 0) scale(0.996264)"/>
      </g>
     </g>
    </g>
    <g id="ytick_7">
     <g id="line2d_25">
      <path d="M 51.851638 66.202724 
L 439.2 66.202724 
" clip-path="url(#peaebf72a47)" style="fill: none; stroke: #b0b0b0; stroke-opacity: 0.7; stroke-width: 0.8; stroke-linecap: square"/>
     </g>
     <g id="line2d_26">
      <g>
       <use xlink:href="#m6d232d8d03" x="51.851638" y="66.202724" style="stroke: #000000; stroke-width: 0.8"/>
      </g>
     </g>
     <g id="text_14">
      <!-- $\mathdefault{0.12}$ -->
      <g transform="translate(27.140224 69.661973) scale(0.1 -0.1)">
       <use xlink:href="#CMR17-30" transform="scale(0.996264)"/>
       <use xlink:href="#CMMI12-3a" transform="translate(45.690477 0) scale(0.996264)"/>
       <use xlink:href="#CMR17-31" transform="translate(72.787654 0) scale(0.996264)"/>
       <use xlink:href="#CMR17-32" transform="translate(118.478131 0) scale(0.996264)"/>
      </g>
     </g>
    </g>
    <g id="ytick_8">
     <g id="line2d_27">
      <path d="M 51.851638 33.340447 
L 439.2 33.340447 
" clip-path="url(#peaebf72a47)" style="fill: none; stroke: #b0b0b0; stroke-opacity: 0.7; stroke-width: 0.8; stroke-linecap: square"/>
     </g>
     <g id="line2d_28">
      <g>
       <use xlink:href="#m6d232d8d03" x="51.851638" y="33.340447" style="stroke: #000000; stroke-width: 0.8"/>
      </g>
     </g>
     <g id="text_15">
      <!-- $\mathdefault{0.14}$ -->
      <g transform="translate(27.140224 36.799696) scale(0.1 -0.1)">
       <use xlink:href="#CMR17-30" transform="scale(0.996264)"/>
       <use xlink:href="#CMMI12-3a" transform="translate(45.690477 0) scale(0.996264)"/>
       <use xlink:href="#CMR17-31" transform="translate(72.787654 0) scale(0.996264)"/>
       <use xlink:href="#CMR17-34" transform="translate(118.478131 0) scale(0.996264)"/>
      </g>
     </g>
    </g>
    <g id="text_16">
     <!-- $\lambda_k(\varepsilon)$ -->
     <g transform="translate(19.155168 158.990906) rotate(-90) scale(0.16 -0.16)">
      <defs>
       <path id="CMMI12-15" d="M 1978 3965 
C 1818 4416 1312 4416 1229 4416 
C 1190 4416 1120 4416 1120 4352 
C 1120 4302 1158 4295 1190 4289 
C 1286 4276 1363 4263 1466 4080 
C 1530 3959 2189 2059 2189 2046 
C 2189 2040 2182 2033 2131 1982 
L 467 311 
C 390 234 339 183 339 102 
C 339 12 416 -64 518 -64 
C 544 -64 614 -51 653 -13 
C 755 82 1670 1194 2253 1881 
C 2419 1383 2624 797 2822 261 
C 2854 166 2886 76 2976 -6 
C 3040 -64 3053 -64 3232 -64 
L 3354 -64 
C 3379 -64 3424 -64 3424 -13 
C 3424 13 3418 19 3392 45 
C 3334 115 3290 229 3264 306 
L 1978 3965 
z
" transform="scale(0.015625)"/>
       <path id="CMMI12-6b" d="M 1798 4257 
C 1805 4283 1818 4321 1818 4352 
C 1818 4416 1754 4416 1741 4416 
C 1734 4416 1504 4393 1389 4377 
C 1280 4377 1184 4358 1069 4358 
C 915 4345 870 4339 870 4224 
C 870 4160 934 4160 998 4160 
C 1325 4160 1325 4103 1325 4040 
C 1325 4015 1325 4002 1293 3888 
L 378 248 
C 352 152 352 140 352 101 
C 352 -38 461 -64 525 -64 
C 704 -64 742 77 794 275 
L 1094 1469 
C 1555 1418 1830 1226 1830 920 
C 1830 881 1830 856 1811 760 
C 1786 664 1786 588 1786 556 
C 1786 185 2029 -64 2355 -64 
C 2650 -64 2803 204 2854 294 
C 2989 530 3072 888 3072 913 
C 3072 945 3046 971 3008 971 
C 2950 971 2944 945 2918 843 
C 2829 511 2694 64 2368 64 
C 2240 64 2157 128 2157 370 
C 2157 492 2182 632 2208 728 
C 2234 843 2234 849 2234 926 
C 2234 1303 1894 1514 1306 1590 
C 1536 1731 1766 1980 1856 2076 
C 2221 2484 2470 2689 2765 2689 
C 2912 2689 2950 2650 2995 2612 
C 2758 2586 2669 2420 2669 2293 
C 2669 2139 2790 2088 2880 2088 
C 3053 2088 3206 2235 3206 2440 
C 3206 2625 3059 2816 2771 2816 
C 2419 2816 2131 2567 1677 2056 
C 1613 1980 1376 1737 1139 1648 
L 1798 4257 
z
" transform="scale(0.015625)"/>
       <path id="CMR17-28" d="M 1958 -1561 
C 1958 -1555 1958 -1542 1939 -1523 
C 1645 -1224 858 -407 858 1581 
C 858 3569 1632 4379 1946 4697 
C 1946 4704 1958 4717 1958 4736 
C 1958 4755 1939 4768 1914 4768 
C 1843 4768 1299 4296 986 3594 
C 666 2887 576 2199 576 1588 
C 576 1128 621 351 1005 -471 
C 1312 -1135 1837 -1600 1914 -1600 
C 1946 -1600 1958 -1587 1958 -1561 
z
" transform="scale(0.015625)"/>
       <path id="CMR17-29" d="M 1683 1581 
C 1683 2040 1638 2817 1254 3639 
C 947 4303 422 4768 346 4768 
C 326 4768 301 4761 301 4729 
C 301 4717 307 4710 314 4697 
C 621 4378 1402 3568 1402 1584 
C 1402 -407 627 -1217 314 -1537 
C 307 -1549 301 -1556 301 -1568 
C 301 -1600 326 -1600 346 -1600 
C 416 -1600 960 -1128 1274 -426 
C 1594 281 1683 969 1683 1581 
z
" transform="scale(0.015625)"/>
      </defs>
      <use xlink:href="#CMMI12-15" transform="scale(0.996264)"/>
      <use xlink:href="#CMMI12-6b" transform="translate(56.904072 -14.943915) scale(0.697382)"/>
      <use xlink:href="#CMR17-28" transform="translate(95.257454 0) scale(0.996264)"/>
      <use xlink:href="#CMMI12-22" transform="translate(130.538222 0) scale(0.996264)"/>
      <use xlink:href="#CMR17-29" transform="translate(176.188415 0) scale(0.996264)"/>
     </g>
    </g>
   </g>
   <g id="line2d_29">
    <path d="M 69.458382 263.376383 
L 73.0153 258.397251 
L 76.572218 253.418118 
L 80.129136 248.438985 
L 83.686054 243.459852 
L 87.242972 238.480719 
L 90.79989 233.501586 
L 94.356808 228.522454 
L 97.913725 223.543321 
L 101.470643 218.564188 
L 105.027561 213.585055 
L 108.584479 208.605922 
L 112.141397 203.62679 
L 115.698315 198.647657 
L 119.255233 193.668524 
L 122.812151 188.689391 
L 126.369069 183.710258 
L 129.925987 178.731126 
L 133.482905 173.751993 
L 137.039823 168.77286 
L 140.596741 163.793727 
L 144.153658 158.814594 
L 147.710576 153.835461 
L 151.267494 148.856329 
L 154.824412 143.877196 
L 158.38133 138.898063 
L 161.938248 133.91893 
L 165.495166 128.939797 
L 169.052084 123.960665 
L 172.609002 118.981532 
L 176.16592 114.002399 
L 179.722838 109.023266 
L 183.279756 104.044133 
L 186.836673 99.065 
L 190.393591 94.085868 
L 193.950509 89.106735 
L 197.507427 84.127602 
L 201.064345 79.148469 
L 204.621263 74.169336 
L 208.178181 69.190204 
L 211.735099 64.211071 
L 215.292017 59.231938 
L 218.848935 54.252805 
L 222.405853 49.273672 
L 225.962771 44.294539 
L 229.519689 39.315407 
L 233.076606 34.336274 
L 236.633524 29.357141 
L 240.190442 24.378008 
L 243.74736 19.398875 
L 247.304278 19.398875 
L 250.861196 24.378008 
L 254.418114 29.357141 
L 257.975032 34.336274 
L 261.53195 39.315407 
L 265.088868 44.294539 
L 268.645786 49.273672 
L 272.202704 54.252805 
L 275.759622 59.231938 
L 279.316539 64.211071 
L 282.873457 69.190204 
L 286.430375 74.169336 
L 289.987293 79.148469 
L 293.544211 84.127602 
L 297.101129 89.106735 
L 300.658047 94.085868 
L 304.214965 99.065 
L 307.771883 104.044133 
L 311.328801 109.023266 
L 314.885719 114.002399 
L 318.442637 118.981532 
L 321.999554 123.960665 
L 325.556472 128.939797 
L 329.11339 133.91893 
L 332.670308 138.898063 
L 336.227226 143.877196 
L 339.784144 148.856329 
L 343.341062 153.835461 
L 346.89798 158.814594 
L 350.454898 163.793727 
L 354.011816 168.77286 
L 357.568734 173.751993 
L 361.125652 178.731126 
L 364.68257 183.710258 
L 368.239487 188.689391 
L 371.796405 193.668524 
L 375.353323 198.647657 
L 378.910241 203.62679 
L 382.467159 208.605922 
L 386.024077 213.585055 
L 389.580995 218.564188 
L 393.137913 223.543321 
L 396.694831 228.522454 
L 400.251749 233.501586 
L 403.808667 238.480719 
L 407.365585 243.459852 
L 410.922503 248.438985 
L 414.47942 253.418118 
L 418.036338 258.397251 
L 421.593256 263.376383 
" clip-path="url(#peaebf72a47)" style="fill: none; stroke: #ff0000; stroke-width: 1.5; stroke-linecap: square"/>
   </g>
   <g id="line2d_30">
    <path d="M 69.458382 263.376383 
L 73.0153 258.397251 
L 76.572218 253.418118 
L 80.129136 248.438985 
L 83.686054 243.459852 
L 87.242972 238.480719 
L 90.79989 233.501586 
L 94.356808 228.522454 
L 97.913725 223.543321 
L 101.470643 218.564188 
L 105.027561 213.585055 
L 108.584479 208.605922 
L 112.141397 203.62679 
L 115.698315 198.647657 
L 119.255233 193.668524 
L 122.812151 188.689391 
L 126.369069 183.710258 
L 129.925987 178.731126 
L 133.482905 173.751993 
L 137.039823 168.77286 
L 140.596741 163.793727 
L 144.153658 166.582788 
L 147.710576 171.561921 
L 151.267494 176.541054 
L 154.824412 181.520187 
L 158.38133 186.49932 
L 161.938248 191.478452 
L 165.495166 196.457585 
L 169.052084 201.436718 
L 172.609002 206.415851 
L 176.16592 211.394984 
L 179.722838 216.374116 
L 183.279756 221.353249 
L 186.836673 226.332382 
L 190.393591 231.311515 
L 193.950509 236.290648 
L 197.507427 241.269781 
L 201.064345 246.248913 
L 204.621263 251.228046 
L 208.178181 256.207179 
L 211.735099 261.186312 
L 215.292017 263.376383 
L 218.848935 263.376383 
L 222.405853 263.376383 
L 225.962771 263.376383 
L 229.519689 263.376383 
L 233.076606 263.376383 
L 236.633524 263.376383 
L 240.190442 263.376383 
L 243.74736 263.376383 
L 247.304278 263.376383 
L 250.861196 263.376383 
L 254.418114 263.376383 
L 257.975032 263.376383 
L 261.53195 263.376383 
L 265.088868 263.376383 
L 268.645786 263.376383 
L 272.202704 263.376383 
L 275.759622 263.376383 
L 279.316539 263.376383 
L 282.873457 263.376383 
L 286.430375 263.376383 
L 289.987293 263.376383 
L 293.544211 263.376383 
L 297.101129 263.376383 
L 300.658047 263.376383 
L 304.214965 263.376383 
L 307.771883 263.376383 
L 311.328801 263.376383 
L 314.885719 263.376383 
L 318.442637 263.376383 
L 321.999554 263.376383 
L 325.556472 263.376383 
L 329.11339 263.376383 
L 332.670308 263.376383 
L 336.227226 263.376383 
L 339.784144 263.376383 
L 343.341062 263.376383 
L 346.89798 263.376383 
L 350.454898 263.376383 
L 354.011816 263.376383 
L 357.568734 263.376383 
L 361.125652 263.376383 
L 364.68257 263.376383 
L 368.239487 263.376383 
L 371.796405 263.376383 
L 375.353323 263.376383 
L 378.910241 263.376383 
L 382.467159 263.376383 
L 386.024077 263.376383 
L 389.580995 263.376383 
L 393.137913 263.376383 
L 396.694831 263.376383 
L 400.251749 263.376383 
L 403.808667 263.376383 
L 407.365585 263.376383 
L 410.922503 263.376383 
L 414.47942 263.376383 
L 418.036338 263.376383 
L 421.593256 263.376383 
" clip-path="url(#peaebf72a47)" style="fill: none; stroke: #ff0000; stroke-width: 1.5; stroke-linecap: square"/>
   </g>
   <g id="line2d_31">
    <path d="M 69.458382 263.376383 
L 73.0153 258.397251 
L 76.572218 253.418118 
L 80.129136 248.438985 
L 83.686054 243.459852 
L 87.242972 238.480719 
L 90.79989 233.501586 
L 94.356808 228.522454 
L 97.913725 223.543321 
L 101.470643 218.564188 
L 105.027561 213.585055 
L 108.584479 208.605922 
L 112.141397 203.62679 
L 115.698315 198.647657 
L 119.255233 193.668524 
L 122.812151 188.689391 
L 126.369069 183.710258 
L 129.925987 178.731126 
L 133.482905 173.751993 
L 137.039823 168.77286 
L 140.596741 163.861294 
L 144.153658 168.840427 
L 147.710576 173.81956 
L 151.267494 178.798692 
L 154.824412 183.777825 
L 158.38133 188.756958 
L 161.938248 193.736091 
L 165.495166 198.715224 
L 169.052084 203.694356 
L 172.609002 208.673489 
L 176.16592 213.652622 
L 179.722838 218.631755 
L 183.279756 223.610888 
L 186.836673 228.590021 
L 190.393591 233.569153 
L 193.950509 238.548286 
L 197.507427 243.527419 
L 201.064345 248.506552 
L 204.621263 253.485685 
L 208.178181 258.464817 
L 211.735099 263.376383 
L 215.292017 263.376383 
L 218.848935 263.376383 
L 222.405853 263.376383 
L 225.962771 263.376383 
L 229.519689 263.376383 
L 233.076606 263.376383 
L 236.633524 263.376383 
L 240.190442 263.376383 
L 243.74736 263.376383 
L 247.304278 263.376383 
L 250.861196 263.376383 
L 254.418114 263.376383 
L 257.975032 263.376383 
L 261.53195 263.376383 
L 265.088868 263.376383 
L 268.645786 263.376383 
L 272.202704 263.376383 
L 275.759622 263.376383 
L 279.316539 263.376383 
L 282.873457 263.376383 
L 286.430375 263.376383 
L 289.987293 263.376383 
L 293.544211 263.376383 
L 297.101129 263.376383 
L 300.658047 263.376383 
L 304.214965 263.376383 
L 307.771883 263.376383 
L 311.328801 263.376383 
L 314.885719 263.376383 
L 318.442637 263.376383 
L 321.999554 263.376383 
L 325.556472 263.376383 
L 329.11339 263.376383 
L 332.670308 263.376383 
L 336.227226 263.376383 
L 339.784144 263.376383 
L 343.341062 263.376383 
L 346.89798 263.376383 
L 350.454898 263.376383 
L 354.011816 263.376383 
L 357.568734 263.376383 
L 361.125652 263.376383 
L 364.68257 263.376383 
L 368.239487 263.376383 
L 371.796405 263.376383 
L 375.353323 263.376383 
L 378.910241 263.376383 
L 382.467159 263.376383 
L 386.024077 263.376383 
L 389.580995 263.376383 
L 393.137913 263.376383 
L 396.694831 263.376383 
L 400.251749 263.376383 
L 403.808667 263.376383 
L 407.365585 263.376383 
L 410.922503 263.376383 
L 414.47942 263.376383 
L 418.036338 263.376383 
L 421.593256 263.376383 
" clip-path="url(#peaebf72a47)" style="fill: none; stroke: #ff0000; stroke-width: 1.5; stroke-linecap: square"/>
   </g>
   <g id="line2d_32">
    <path d="M 69.458382 263.376383 
L 73.0153 259.697397 
L 76.572218 256.137755 
L 80.129136 258.294561 
L 83.686054 254.615574 
L 87.242972 250.936588 
L 90.79989 247.257601 
L 94.356808 243.578614 
L 97.913725 245.569904 
L 101.470643 243.430953 
L 105.027561 240.641713 
L 108.584479 236.962726 
L 112.141397 239.222774 
L 115.698315 242.316813 
L 119.255233 241.49887 
L 122.812151 237.819884 
L 126.369069 234.140897 
L 129.925987 233.718398 
L 133.482905 230.039411 
L 137.039823 226.360425 
L 140.596741 222.681438 
L 144.153658 219.002451 
L 147.710576 215.323465 
L 151.267494 211.644478 
L 154.824412 207.965491 
L 158.38133 204.286505 
L 161.938248 200.607518 
L 165.495166 196.928532 
L 169.052084 193.249545 
L 172.609002 189.570558 
L 176.16592 185.891572 
L 179.722838 182.212585 
L 183.279756 178.533598 
L 186.836673 174.854612 
L 190.393591 171.175625 
L 193.950509 167.496638 
L 197.507427 163.817652 
L 201.064345 160.138665 
L 204.621263 156.459679 
L 208.178181 152.780692 
L 211.735099 149.101705 
L 215.292017 145.422719 
L 218.848935 141.743732 
L 222.405853 138.064745 
L 225.962771 134.385759 
L 229.519689 130.706772 
L 233.076606 127.027785 
L 236.633524 123.348799 
L 240.190442 119.669812 
L 243.74736 115.990826 
L 247.304278 112.311839 
L 250.861196 108.632852 
L 254.418114 104.953866 
L 257.975032 101.274879 
L 261.53195 97.821985 
L 265.088868 101.500971 
L 268.645786 105.179958 
L 272.202704 108.858945 
L 275.759622 112.537931 
L 279.316539 116.216918 
L 282.873457 119.895905 
L 286.430375 123.574891 
L 289.987293 127.253878 
L 293.544211 130.932865 
L 297.101129 134.611851 
L 300.658047 138.290838 
L 304.214965 141.969824 
L 307.771883 145.648811 
L 311.328801 149.327798 
L 314.885719 153.006784 
L 318.442637 156.685771 
L 321.999554 160.364758 
L 325.556472 164.043744 
L 329.11339 167.722731 
L 332.670308 171.401718 
L 336.227226 175.080704 
L 339.784144 178.759691 
L 343.341062 182.438677 
L 346.89798 186.117664 
L 350.454898 189.796651 
L 354.011816 193.475637 
L 357.568734 197.154624 
L 361.125652 200.833611 
L 364.68257 204.512597 
L 368.239487 208.191584 
L 371.796405 211.870571 
L 375.353323 215.549557 
L 378.910241 219.228544 
L 382.467159 222.90753 
L 386.024077 226.586517 
L 389.580995 230.265504 
L 393.137913 233.94449 
L 396.694831 237.623477 
L 400.251749 241.302464 
L 403.808667 244.98145 
L 407.365585 248.660437 
L 410.922503 252.339423 
L 414.47942 256.01841 
L 418.036338 259.697397 
L 421.593256 263.376383 
" clip-path="url(#peaebf72a47)" style="fill: none; stroke: #0000ff; stroke-width: 1.5; stroke-linecap: square"/>
   </g>
   <g id="line2d_33">
    <path d="M 69.458382 263.376383 
L 73.0153 261.988007 
L 76.572218 261.973548 
L 80.129136 258.473003 
L 83.686054 254.794016 
L 87.242972 251.11503 
L 90.79989 247.436043 
L 94.356808 250.520551 
L 97.913725 247.10994 
L 101.470643 244.21209 
L 105.027561 241.92137 
L 108.584479 240.32032 
L 112.141397 243.046793 
L 115.698315 242.901761 
L 119.255233 242.954395 
L 122.812151 240.427341 
L 126.369069 237.397384 
L 129.925987 233.966727 
L 133.482905 232.331555 
L 137.039823 235.695392 
L 140.596741 232.536177 
L 144.153658 228.857191 
L 147.710576 225.178204 
L 151.267494 221.499218 
L 154.824412 217.820231 
L 158.38133 214.141244 
L 161.938248 210.462258 
L 165.495166 206.783271 
L 169.052084 203.104284 
L 172.609002 199.425298 
L 176.16592 195.746311 
L 179.722838 192.067324 
L 183.279756 188.388338 
L 186.836673 184.709351 
L 190.393591 181.030365 
L 193.950509 177.351378 
L 197.507427 173.672391 
L 201.064345 169.993405 
L 204.621263 166.314418 
L 208.178181 162.635431 
L 211.735099 158.956445 
L 215.292017 155.277458 
L 218.848935 151.598472 
L 222.405853 147.919485 
L 225.962771 144.240498 
L 229.519689 140.561512 
L 233.076606 136.882525 
L 236.633524 133.203538 
L 240.190442 129.524552 
L 243.74736 125.845565 
L 247.304278 122.166578 
L 250.861196 118.487592 
L 254.418114 114.808605 
L 257.975032 111.129619 
L 261.53195 107.450632 
L 265.088868 103.771645 
L 268.645786 105.179958 
L 272.202704 108.858945 
L 275.759622 112.537931 
L 279.316539 116.216918 
L 282.873457 119.895905 
L 286.430375 123.574891 
L 289.987293 127.253878 
L 293.544211 130.932865 
L 297.101129 134.611851 
L 300.658047 138.290838 
L 304.214965 141.969824 
L 307.771883 145.648811 
L 311.328801 149.327798 
L 314.885719 153.006784 
L 318.442637 156.685771 
L 321.999554 160.364758 
L 325.556472 164.043744 
L 329.11339 167.722731 
L 332.670308 171.401718 
L 336.227226 175.080704 
L 339.784144 178.759691 
L 343.341062 182.438677 
L 346.89798 186.117664 
L 350.454898 189.796651 
L 354.011816 193.475637 
L 357.568734 197.154624 
L 361.125652 200.833611 
L 364.68257 204.512597 
L 368.239487 208.191584 
L 371.796405 211.870571 
L 375.353323 215.549557 
L 378.910241 219.228544 
L 382.467159 222.90753 
L 386.024077 226.586517 
L 389.580995 230.265504 
L 393.137913 233.94449 
L 396.694831 237.623477 
L 400.251749 241.302464 
L 403.808667 244.98145 
L 407.365585 248.660437 
L 410.922503 252.339423 
L 414.47942 256.01841 
L 418.036338 259.697397 
L 421.593256 263.376383 
" clip-path="url(#peaebf72a47)" style="fill: none; stroke: #0000ff; stroke-width: 1.5; stroke-linecap: square"/>
   </g>
   <g id="line2d_34">
    <path d="M 69.458382 263.376383 
L 73.0153 263.376383 
L 76.572218 262.15199 
L 80.129136 259.263177 
L 83.686054 255.58419 
L 87.242972 251.905203 
L 90.79989 252.311819 
L 94.356808 250.788927 
L 97.913725 247.63475 
L 101.470643 244.320699 
L 105.027561 243.116845 
L 108.584479 242.619036 
L 112.141397 243.999306 
L 115.698315 243.034853 
L 119.255233 244.106328 
L 122.812151 241.076371 
L 126.369069 237.935176 
L 129.925987 235.317312 
L 133.482905 234.722614 
L 137.039823 236.215164 
L 140.596741 239.374379 
L 144.153658 243.053366 
L 147.710576 246.732352 
L 151.267494 250.048211 
L 154.824412 253.727197 
L 158.38133 257.406184 
L 161.938248 261.085171 
L 165.495166 263.376383 
L 169.052084 263.376383 
L 172.609002 263.376383 
L 176.16592 263.376383 
L 179.722838 263.376383 
L 183.279756 263.376383 
L 186.836673 263.376383 
L 190.393591 263.376383 
L 193.950509 263.376383 
L 197.507427 263.376383 
L 201.064345 263.376383 
L 204.621263 263.376383 
L 208.178181 263.376383 
L 211.735099 263.376383 
L 215.292017 263.376383 
L 218.848935 263.376383 
L 222.405853 263.376383 
L 225.962771 263.376383 
L 229.519689 263.376383 
L 233.076606 263.376383 
L 236.633524 263.376383 
L 240.190442 263.376383 
L 243.74736 263.376383 
L 247.304278 263.376383 
L 250.861196 263.376383 
L 254.418114 263.376383 
L 257.975032 263.376383 
L 261.53195 263.376383 
L 265.088868 263.376383 
L 268.645786 263.376383 
L 272.202704 263.376383 
L 275.759622 263.376383 
L 279.316539 263.376383 
L 282.873457 263.376383 
L 286.430375 263.376383 
L 289.987293 263.376383 
L 293.544211 263.376383 
L 297.101129 263.376383 
L 300.658047 263.376383 
L 304.214965 263.376383 
L 307.771883 263.376383 
L 311.328801 263.376383 
L 314.885719 263.376383 
L 318.442637 263.376383 
L 321.999554 263.376383 
L 325.556472 263.376383 
L 329.11339 263.376383 
L 332.670308 263.376383 
L 336.227226 263.376383 
L 339.784144 263.376383 
L 343.341062 263.376383 
L 346.89798 263.376383 
L 350.454898 263.376383 
L 354.011816 263.376383 
L 357.568734 263.376383 
L 361.125652 263.376383 
L 364.68257 263.376383 
L 368.239487 263.376383 
L 371.796405 263.376383 
L 375.353323 263.376383 
L 378.910241 263.376383 
L 382.467159 263.376383 
L 386.024077 263.376383 
L 389.580995 263.376383 
L 393.137913 263.376383 
L 396.694831 263.376383 
L 400.251749 263.376383 
L 403.808667 263.376383 
L 407.365585 263.376383 
L 410.922503 263.376383 
L 414.47942 263.376383 
L 418.036338 263.376383 
L 421.593256 263.376383 
" clip-path="url(#peaebf72a47)" style="fill: none; stroke: #0000ff; stroke-width: 1.5; stroke-linecap: square"/>
   </g>
   <g id="line2d_35">
    <path d="M 69.458382 263.376383 
L 73.0153 260.693212 
L 76.572218 258.01004 
L 80.129136 255.326868 
L 83.686054 252.643697 
L 87.242972 249.960525 
L 90.79989 247.277353 
L 94.356808 244.594182 
L 97.913725 241.91101 
L 101.470643 239.227838 
L 105.027561 236.544667 
L 108.584479 233.861495 
L 112.141397 231.178323 
L 115.698315 228.495151 
L 119.255233 225.81198 
L 122.812151 223.128808 
L 126.369069 220.445636 
L 129.925987 217.762465 
L 133.482905 215.079293 
L 137.039823 212.396121 
L 140.596741 209.71295 
L 144.153658 207.029778 
L 147.710576 204.346606 
L 151.267494 201.663435 
L 154.824412 198.980263 
L 158.38133 196.297091 
L 161.938248 193.613919 
L 165.495166 190.930748 
L 169.052084 188.247576 
L 172.609002 185.564404 
L 176.16592 182.881233 
L 179.722838 180.198061 
L 183.279756 177.514889 
L 186.836673 174.831718 
L 190.393591 172.148546 
L 193.950509 169.465374 
L 197.507427 166.782203 
L 201.064345 164.099031 
L 204.621263 161.415859 
L 208.178181 158.732688 
L 211.735099 156.049516 
L 215.292017 153.366344 
L 218.848935 150.683172 
L 222.405853 148.000001 
L 225.962771 145.316829 
L 229.519689 142.633657 
L 233.076606 139.950486 
L 236.633524 137.267314 
L 240.190442 134.584142 
L 243.74736 131.900971 
L 247.304278 131.900971 
L 250.861196 134.584142 
L 254.418114 137.267314 
L 257.975032 139.950486 
L 261.53195 142.633657 
L 265.088868 145.316829 
L 268.645786 148.000001 
L 272.202704 150.683172 
L 275.759622 153.366344 
L 279.316539 156.049516 
L 282.873457 158.732688 
L 286.430375 161.415859 
L 289.987293 164.099031 
L 293.544211 166.782203 
L 297.101129 169.465374 
L 300.658047 172.148546 
L 304.214965 174.831718 
L 307.771883 177.514889 
L 311.328801 180.198061 
L 314.885719 182.881233 
L 318.442637 185.564404 
L 321.999554 188.247576 
L 325.556472 190.930748 
L 329.11339 193.613919 
L 332.670308 196.297091 
L 336.227226 198.980263 
L 339.784144 201.663435 
L 343.341062 204.346606 
L 346.89798 207.029778 
L 350.454898 209.71295 
L 354.011816 212.396121 
L 357.568734 215.079293 
L 361.125652 217.762465 
L 364.68257 220.445636 
L 368.239487 223.128808 
L 371.796405 225.81198 
L 375.353323 228.495151 
L 378.910241 231.178323 
L 382.467159 233.861495 
L 386.024077 236.544667 
L 389.580995 239.227838 
L 393.137913 241.91101 
L 396.694831 244.594182 
L 400.251749 247.277353 
L 403.808667 249.960525 
L 407.365585 252.643697 
L 410.922503 255.326868 
L 414.47942 258.01004 
L 418.036338 260.693212 
L 421.593256 263.376383 
" clip-path="url(#peaebf72a47)" style="fill: none; stroke: #008000; stroke-width: 1.5; stroke-linecap: square"/>
   </g>
   <g id="line2d_36">
    <path d="M 69.458382 263.376383 
L 73.0153 263.376383 
L 76.572218 263.376383 
L 80.129136 263.376383 
L 83.686054 263.376383 
L 87.242972 263.376383 
L 90.79989 263.376383 
L 94.356808 263.376383 
L 97.913725 263.376383 
L 101.470643 263.376383 
L 105.027561 263.376383 
L 108.584479 263.376383 
L 112.141397 263.376383 
L 115.698315 263.376383 
L 119.255233 263.376383 
L 122.812151 263.376383 
L 126.369069 263.376383 
L 129.925987 263.376383 
L 133.482905 263.376383 
L 137.039823 263.376383 
L 140.596741 263.376383 
L 144.153658 263.376383 
L 147.710576 263.376383 
L 151.267494 263.376383 
L 154.824412 263.376383 
L 158.38133 263.376383 
L 161.938248 263.376383 
L 165.495166 263.376383 
L 169.052084 263.376383 
L 172.609002 263.376383 
L 176.16592 263.376383 
L 179.722838 263.376383 
L 183.279756 263.376383 
L 186.836673 263.376383 
L 190.393591 263.376383 
L 193.950509 263.376383 
L 197.507427 263.376383 
L 201.064345 263.376383 
L 204.621263 263.376383 
L 208.178181 263.376383 
L 211.735099 263.376383 
L 215.292017 263.376383 
L 218.848935 263.376383 
L 222.405853 263.376383 
L 225.962771 263.376383 
L 229.519689 263.376383 
L 233.076606 263.376383 
L 236.633524 263.376383 
L 240.190442 263.376383 
L 243.74736 263.376383 
L 247.304278 263.376383 
L 250.861196 263.376383 
L 254.418114 263.376383 
L 257.975032 263.376383 
L 261.53195 263.376383 
L 265.088868 263.376383 
L 268.645786 263.376383 
L 272.202704 263.376383 
L 275.759622 263.376383 
L 279.316539 263.376383 
L 282.873457 263.376383 
L 286.430375 263.376383 
L 289.987293 263.376383 
L 293.544211 263.376383 
L 297.101129 263.376383 
L 300.658047 263.376383 
L 304.214965 263.376383 
L 307.771883 263.376383 
L 311.328801 263.376383 
L 314.885719 263.376383 
L 318.442637 263.376383 
L 321.999554 263.376383 
L 325.556472 263.376383 
L 329.11339 263.376383 
L 332.670308 263.376383 
L 336.227226 263.376383 
L 339.784144 263.376383 
L 343.341062 263.376383 
L 346.89798 263.376383 
L 350.454898 263.376383 
L 354.011816 263.376383 
L 357.568734 263.376383 
L 361.125652 263.376383 
L 364.68257 263.376383 
L 368.239487 263.376383 
L 371.796405 263.376383 
L 375.353323 263.376383 
L 378.910241 263.376383 
L 382.467159 263.376383 
L 386.024077 263.376383 
L 389.580995 263.376383 
L 393.137913 263.376383 
L 396.694831 263.376383 
L 400.251749 263.376383 
L 403.808667 263.376383 
L 407.365585 263.376383 
L 410.922503 263.376383 
L 414.47942 263.376383 
L 418.036338 263.376383 
L 421.593256 263.376383 
" clip-path="url(#peaebf72a47)" style="fill: none; stroke: #008000; stroke-width: 1.5; stroke-linecap: square"/>
   </g>
   <g id="line2d_37">
    <path d="M 69.458382 263.376383 
L 73.0153 263.376383 
L 76.572218 263.376383 
L 80.129136 263.376383 
L 83.686054 263.376383 
L 87.242972 263.376383 
L 90.79989 263.376383 
L 94.356808 263.376383 
L 97.913725 263.376383 
L 101.470643 263.376383 
L 105.027561 263.376383 
L 108.584479 263.376383 
L 112.141397 263.376383 
L 115.698315 263.376383 
L 119.255233 263.376383 
L 122.812151 263.376383 
L 126.369069 263.376383 
L 129.925987 263.376383 
L 133.482905 263.376383 
L 137.039823 263.376383 
L 140.596741 263.376383 
L 144.153658 263.376383 
L 147.710576 263.376383 
L 151.267494 263.376383 
L 154.824412 263.376383 
L 158.38133 263.376383 
L 161.938248 263.376383 
L 165.495166 263.376383 
L 169.052084 263.376383 
L 172.609002 263.376383 
L 176.16592 263.376383 
L 179.722838 263.376383 
L 183.279756 263.376383 
L 186.836673 263.376383 
L 190.393591 263.376383 
L 193.950509 263.376383 
L 197.507427 263.376383 
L 201.064345 263.376383 
L 204.621263 263.376383 
L 208.178181 263.376383 
L 211.735099 263.376383 
L 215.292017 263.376383 
L 218.848935 263.376383 
L 222.405853 263.376383 
L 225.962771 263.376383 
L 229.519689 263.376383 
L 233.076606 263.376383 
L 236.633524 263.376383 
L 240.190442 263.376383 
L 243.74736 263.376383 
L 247.304278 263.376383 
L 250.861196 263.376383 
L 254.418114 263.376383 
L 257.975032 263.376383 
L 261.53195 263.376383 
L 265.088868 263.376383 
L 268.645786 263.376383 
L 272.202704 263.376383 
L 275.759622 263.376383 
L 279.316539 263.376383 
L 282.873457 263.376383 
L 286.430375 263.376383 
L 289.987293 263.376383 
L 293.544211 263.376383 
L 297.101129 263.376383 
L 300.658047 263.376383 
L 304.214965 263.376383 
L 307.771883 263.376383 
L 311.328801 263.376383 
L 314.885719 263.376383 
L 318.442637 263.376383 
L 321.999554 263.376383 
L 325.556472 263.376383 
L 329.11339 263.376383 
L 332.670308 263.376383 
L 336.227226 263.376383 
L 339.784144 263.376383 
L 343.341062 263.376383 
L 346.89798 263.376383 
L 350.454898 263.376383 
L 354.011816 263.376383 
L 357.568734 263.376383 
L 361.125652 263.376383 
L 364.68257 263.376383 
L 368.239487 263.376383 
L 371.796405 263.376383 
L 375.353323 263.376383 
L 378.910241 263.376383 
L 382.467159 263.376383 
L 386.024077 263.376383 
L 389.580995 263.376383 
L 393.137913 263.376383 
L 396.694831 263.376383 
L 400.251749 263.376383 
L 403.808667 263.376383 
L 407.365585 263.376383 
L 410.922503 263.376383 
L 414.47942 263.376383 
L 418.036338 263.376383 
L 421.593256 263.376383 
" clip-path="url(#peaebf72a47)" style="fill: none; stroke: #008000; stroke-width: 1.5; stroke-linecap: square"/>
   </g>
   <g id="patch_3">
    <path d="M 51.851638 275.575259 
L 51.851638 7.2 
" style="fill: none; stroke: #000000; stroke-width: 0.8; stroke-linejoin: miter; stroke-linecap: square"/>
   </g>
   <g id="patch_4">
    <path d="M 439.2 275.575259 
L 439.2 7.2 
" style="fill: none; stroke: #000000; stroke-width: 0.8; stroke-linejoin: miter; stroke-linecap: square"/>
   </g>
   <g id="patch_5">
    <path d="M 51.851638 275.575259 
L 439.2 275.575259 
" style="fill: none; stroke: #000000; stroke-width: 0.8; stroke-linejoin: miter; stroke-linecap: square"/>
   </g>
   <g id="patch_6">
    <path d="M 51.851638 7.2 
L 439.2 7.2 
" style="fill: none; stroke: #000000; stroke-width: 0.8; stroke-linejoin: miter; stroke-linecap: square"/>
   </g>
   <g id="legend_1">
    <g id="patch_7">
     <path d="M 358.794382 76.936085 
L 429.4 76.936085 
Q 432.2 76.936085 432.2 74.136085 
L 432.2 17 
Q 432.2 14.2 429.4 14.2 
L 358.794382 14.2 
Q 355.994382 14.2 355.994382 17 
L 355.994382 74.136085 
Q 355.994382 76.936085 358.794382 76.936085 
z
" style="fill: #ffffff; opacity: 0.8; stroke: #cccccc; stroke-linejoin: miter"/>
    </g>
    <g id="line2d_38">
     <path d="M 361.594382 24.7 
L 375.594382 24.7 
L 389.594382 24.7 
" style="fill: none; stroke: #ff0000; stroke-width: 1.5; stroke-linecap: square"/>
    </g>
    <g id="text_17">
     <!-- $\lambda_{1-3}$ -->
     <g transform="translate(400.794382 29.6) scale(0.14 -0.14)">
      <defs>
       <path id="CMSY10-0" d="M 4218 1472 
C 4326 1472 4442 1472 4442 1600 
C 4442 1728 4326 1728 4218 1728 
L 755 1728 
C 646 1728 531 1728 531 1600 
C 531 1472 646 1472 755 1472 
L 4218 1472 
z
" transform="scale(0.015625)"/>
       <path id="CMR17-33" d="M 1414 2157 
C 1984 2157 2234 1662 2234 1090 
C 2234 320 1824 25 1453 25 
C 1114 25 563 194 390 693 
C 422 680 454 680 486 680 
C 640 680 755 782 755 948 
C 755 1133 614 1216 486 1216 
C 378 1216 211 1165 211 926 
C 211 335 787 -128 1466 -128 
C 2176 -128 2720 430 2720 1085 
C 2720 1707 2208 2157 1600 2227 
C 2086 2328 2554 2756 2554 3329 
C 2554 3820 2048 4179 1472 4179 
C 890 4179 378 3829 378 3329 
C 378 3110 544 3072 627 3072 
C 762 3072 877 3155 877 3321 
C 877 3486 762 3569 627 3569 
C 602 3569 570 3569 544 3557 
C 730 3959 1235 4032 1459 4032 
C 1683 4032 2106 3925 2106 3320 
C 2106 3143 2080 2828 1862 2550 
C 1670 2304 1453 2304 1242 2284 
C 1210 2284 1062 2269 1037 2269 
C 992 2263 966 2257 966 2208 
C 966 2163 973 2157 1101 2157 
L 1414 2157 
z
" transform="scale(0.015625)"/>
      </defs>
      <use xlink:href="#CMMI12-15" transform="scale(0.996264)"/>
      <use xlink:href="#CMR17-31" transform="translate(56.904072 -14.943915) scale(0.697382)"/>
      <use xlink:href="#CMSY10-0" transform="translate(88.887254 -14.943915) scale(0.697382)"/>
      <use xlink:href="#CMR17-33" transform="translate(143.128247 -14.943915) scale(0.697382)"/>
     </g>
    </g>
    <g id="line2d_39">
     <path d="M 361.594382 44.212028 
L 375.594382 44.212028 
L 389.594382 44.212028 
" style="fill: none; stroke: #0000ff; stroke-width: 1.5; stroke-linecap: square"/>
    </g>
    <g id="text_18">
     <!-- $\lambda_{4-6}$ -->
     <g transform="translate(400.794382 49.112028) scale(0.14 -0.14)">
      <use xlink:href="#CMMI12-15" transform="scale(0.996264)"/>
      <use xlink:href="#CMR17-34" transform="translate(56.904072 -14.943915) scale(0.697382)"/>
      <use xlink:href="#CMSY10-0" transform="translate(88.887254 -14.943915) scale(0.697382)"/>
      <use xlink:href="#CMR17-36" transform="translate(143.128247 -14.943915) scale(0.697382)"/>
     </g>
    </g>
    <g id="line2d_40">
     <path d="M 361.594382 63.724057 
L 375.594382 63.724057 
L 389.594382 63.724057 
" style="fill: none; stroke: #008000; stroke-width: 1.5; stroke-linecap: square"/>
    </g>
    <g id="text_19">
     <!-- $\lambda_{7-9}$ -->
     <g transform="translate(400.794382 68.624057) scale(0.14 -0.14)">
      <defs>
       <path id="CMR17-37" d="M 2886 3941 
L 2886 4081 
L 1382 4081 
C 634 4081 621 4165 595 4288 
L 480 4288 
L 294 3094 
L 410 3094 
C 429 3215 474 3540 550 3661 
C 589 3712 1062 3712 1171 3712 
L 2579 3712 
L 1869 2661 
C 1395 1954 1069 999 1069 165 
C 1069 89 1069 -128 1299 -128 
C 1530 -128 1530 89 1530 171 
L 1530 465 
C 1530 1508 1709 2196 2003 2636 
L 2886 3941 
z
" transform="scale(0.015625)"/>
       <path id="CMR17-39" d="M 2253 1864 
C 2253 464 1670 31 1190 31 
C 1043 31 685 31 538 294 
C 704 268 826 357 826 518 
C 826 692 685 749 595 749 
C 538 749 365 723 365 506 
C 365 71 742 -128 1203 -128 
C 1939 -128 2688 674 2688 2073 
C 2688 3817 1971 4179 1485 4179 
C 851 4179 243 3628 243 2778 
C 243 1991 762 1408 1414 1408 
C 1952 1408 2189 1903 2253 2112 
L 2253 1864 
z
M 1427 1510 
C 1254 1510 1011 1542 813 1922 
C 678 2169 678 2461 678 2771 
C 678 3146 678 3405 858 3684 
C 947 3817 1114 4032 1485 4032 
C 2240 4032 2240 2885 2240 2632 
C 2240 2182 2035 1510 1427 1510 
z
" transform="scale(0.015625)"/>
      </defs>
      <use xlink:href="#CMMI12-15" transform="scale(0.996264)"/>
      <use xlink:href="#CMR17-37" transform="translate(56.904072 -14.943915) scale(0.697382)"/>
      <use xlink:href="#CMSY10-0" transform="translate(88.887254 -14.943915) scale(0.697382)"/>
      <use xlink:href="#CMR17-39" transform="translate(143.128247 -14.943915) scale(0.697382)"/>
     </g>
    </g>
   </g>
  </g>
 </g>
 <defs>
  <clipPath id="peaebf72a47">
   <rect x="51.851638" y="7.2" width="387.348362" height="268.375259"/>
  </clipPath>
 </defs>
</svg>
