<?xml version="1.0" encoding="utf-8" standalone="no"?>
<!DOCTYPE svg PUBLIC "-//W3C//DTD SVG 1.1//EN"
  "http://www.w3.org/Graphics/SVG/1.1/DTD/svg11.dtd">
<svg xmlns:xlink="http://www.w3.org/1999/xlink" width="446.4pt" height="316.8pt" viewBox="0 0 446.4 316.8" xmlns="http://www.w3.org/2000/svg" version="1.1">
 <metadata>
  <rdf:RDF xmlns:dc="http://purl.org/dc/elements/1.1/" xmlns:cc="http://creativecommons.org/ns#" xmlns:rdf="http://www.w3.org/1999/02/22-rdf-syntax-ns#">
   <cc:Work>
    <dc:type rdf:resource="http://purl.org/dc/dcmitype/StillImage"/>
    <dc:date>2025-10-17T00:33:03.900558</dc:date>
    <dc:format>image/svg+xml</dc:format>
    <dc:creator>
     <cc:Agent>
      <dc:title>Matplotlib v3.10.3, https://matplotlib.org/</dc:title>
     </cc:Agent>
    </dc:creator>
   </cc:Work>
  </rdf:RDF>
 </metadata>
 <defs>
  <style type="text/css">*{stroke-linejoin: round; stroke-linecap: butt}</style>
 </defs>
 <g id="figure_1">
  <g id="patch_1">
   <path d="M -0 316.8 
L 446.4 316.8 
L 446.4 0 
L -0 0 
z
" style="fill: #ffffff"/>
  </g>
  <g id="axes_1">
   <g id="patch_2">
    <path d="M 52.85453 272.033031 
L 439.2 272.033031 
L 439.2 7.2 
L 52.85453 7.2 
z
" style="fill: #ffffff"/>
   </g>
   <g id="matplotlib.axis_1">
    <g id="xtick_1">
     <g id="line2d_1">
      <path d="M 109.440483 272.033031 
L 109.440483 7.2 
" clip-path="url(#pda3c4d65b1)" style="fill: none; stroke: #b0b0b0; stroke-width: 0.8; stroke-linecap: square"/>
     </g>
     <g id="line2d_2">
      <defs>
       <path id="m62e20beeda" d="M 0 0 
L 0 3.5 
" style="stroke: #000000; stroke-width: 0.8"/>
      </defs>
      <g>
       <use xlink:href="#m62e20beeda" x="109.440483" y="272.033031" style="stroke: #000000; stroke-width: 0.8"/>
      </g>
     </g>
     <g id="text_1">
      <!-- $\mathdefault{1000}$ -->
      <g transform="translate(95.783506 288.718907) scale(0.14 -0.14)">
       <defs>
        <path id="CMR17-31" d="M 1702 4058 
C 1702 4192 1696 4192 1606 4192 
C 1357 3916 979 3827 621 3827 
C 602 3827 570 3827 563 3808 
C 557 3795 557 3782 557 3648 
C 755 3648 1088 3686 1344 3839 
L 1344 461 
C 1344 236 1331 160 781 160 
L 589 160 
L 589 0 
C 896 0 1216 0 1523 0 
C 1830 0 2150 0 2458 0 
L 2458 160 
L 2266 160 
C 1715 160 1702 230 1702 458 
L 1702 4058 
z
" transform="scale(0.015625)"/>
        <path id="CMR17-30" d="M 2688 2025 
C 2688 2416 2682 3080 2413 3591 
C 2176 4039 1798 4198 1466 4198 
C 1158 4198 768 4058 525 3597 
C 269 3118 243 2524 243 2025 
C 243 1661 250 1106 448 619 
C 723 -39 1216 -128 1466 -128 
C 1760 -128 2208 -7 2470 600 
C 2662 1042 2688 1559 2688 2025 
z
M 1466 -26 
C 1056 -26 813 325 723 812 
C 653 1188 653 1738 653 2096 
C 653 2588 653 2997 736 3387 
C 858 3929 1216 4096 1466 4096 
C 1728 4096 2067 3923 2189 3400 
C 2272 3036 2278 2607 2278 2096 
C 2278 1680 2278 1169 2202 792 
C 2067 95 1690 -26 1466 -26 
z
" transform="scale(0.015625)"/>
       </defs>
       <use xlink:href="#CMR17-31" transform="scale(0.996264)"/>
       <use xlink:href="#CMR17-30" transform="translate(45.690477 0) scale(0.996264)"/>
       <use xlink:href="#CMR17-30" transform="translate(91.380954 0) scale(0.996264)"/>
       <use xlink:href="#CMR17-30" transform="translate(137.071431 0) scale(0.996264)"/>
      </g>
     </g>
    </g>
    <g id="xtick_2">
     <g id="line2d_3">
      <path d="M 187.490073 272.033031 
L 187.490073 7.2 
" clip-path="url(#pda3c4d65b1)" style="fill: none; stroke: #b0b0b0; stroke-width: 0.8; stroke-linecap: square"/>
     </g>
     <g id="line2d_4">
      <g>
       <use xlink:href="#m62e20beeda" x="187.490073" y="272.033031" style="stroke: #000000; stroke-width: 0.8"/>
      </g>
     </g>
     <g id="text_2">
      <!-- $\mathdefault{2000}$ -->
      <g transform="translate(173.833096 288.718907) scale(0.14 -0.14)">
       <defs>
        <path id="CMR17-32" d="M 2669 989 
L 2554 989 
C 2490 536 2438 459 2413 420 
C 2381 369 1920 369 1830 369 
L 602 369 
C 832 619 1280 1072 1824 1597 
C 2214 1967 2669 2402 2669 3035 
C 2669 3790 2067 4224 1395 4224 
C 691 4224 262 3604 262 3030 
C 262 2780 448 2748 525 2748 
C 589 2748 781 2787 781 3010 
C 781 3207 614 3264 525 3264 
C 486 3264 448 3258 422 3245 
C 544 3790 915 4058 1306 4058 
C 1862 4058 2227 3617 2227 3035 
C 2227 2479 1901 2000 1536 1584 
L 262 146 
L 262 0 
L 2515 0 
L 2669 989 
z
" transform="scale(0.015625)"/>
       </defs>
       <use xlink:href="#CMR17-32" transform="scale(0.996264)"/>
       <use xlink:href="#CMR17-30" transform="translate(45.690477 0) scale(0.996264)"/>
       <use xlink:href="#CMR17-30" transform="translate(91.380954 0) scale(0.996264)"/>
       <use xlink:href="#CMR17-30" transform="translate(137.071431 0) scale(0.996264)"/>
      </g>
     </g>
    </g>
    <g id="xtick_3">
     <g id="line2d_5">
      <path d="M 265.539663 272.033031 
L 265.539663 7.2 
" clip-path="url(#pda3c4d65b1)" style="fill: none; stroke: #b0b0b0; stroke-width: 0.8; stroke-linecap: square"/>
     </g>
     <g id="line2d_6">
      <g>
       <use xlink:href="#m62e20beeda" x="265.539663" y="272.033031" style="stroke: #000000; stroke-width: 0.8"/>
      </g>
     </g>
     <g id="text_3">
      <!-- $\mathdefault{3000}$ -->
      <g transform="translate(251.882685 288.718907) scale(0.14 -0.14)">
       <defs>
        <path id="CMR17-33" d="M 1414 2157 
C 1984 2157 2234 1662 2234 1090 
C 2234 320 1824 25 1453 25 
C 1114 25 563 194 390 693 
C 422 680 454 680 486 680 
C 640 680 755 782 755 948 
C 755 1133 614 1216 486 1216 
C 378 1216 211 1165 211 926 
C 211 335 787 -128 1466 -128 
C 2176 -128 2720 430 2720 1085 
C 2720 1707 2208 2157 1600 2227 
C 2086 2328 2554 2756 2554 3329 
C 2554 3820 2048 4179 1472 4179 
C 890 4179 378 3829 378 3329 
C 378 3110 544 3072 627 3072 
C 762 3072 877 3155 877 3321 
C 877 3486 762 3569 627 3569 
C 602 3569 570 3569 544 3557 
C 730 3959 1235 4032 1459 4032 
C 1683 4032 2106 3925 2106 3320 
C 2106 3143 2080 2828 1862 2550 
C 1670 2304 1453 2304 1242 2284 
C 1210 2284 1062 2269 1037 2269 
C 992 2263 966 2257 966 2208 
C 966 2163 973 2157 1101 2157 
L 1414 2157 
z
" transform="scale(0.015625)"/>
       </defs>
       <use xlink:href="#CMR17-33" transform="scale(0.996264)"/>
       <use xlink:href="#CMR17-30" transform="translate(45.690477 0) scale(0.996264)"/>
       <use xlink:href="#CMR17-30" transform="translate(91.380954 0) scale(0.996264)"/>
       <use xlink:href="#CMR17-30" transform="translate(137.071431 0) scale(0.996264)"/>
      </g>
     </g>
    </g>
    <g id="xtick_4">
     <g id="line2d_7">
      <path d="M 343.589252 272.033031 
L 343.589252 7.2 
" clip-path="url(#pda3c4d65b1)" style="fill: none; stroke: #b0b0b0; stroke-width: 0.8; stroke-linecap: square"/>
     </g>
     <g id="line2d_8">
      <g>
       <use xlink:href="#m62e20beeda" x="343.589252" y="272.033031" style="stroke: #000000; stroke-width: 0.8"/>
      </g>
     </g>
     <g id="text_4">
      <!-- $\mathdefault{4000}$ -->
      <g transform="translate(329.932275 288.718907) scale(0.14 -0.14)">
       <defs>
        <path id="CMR17-34" d="M 2150 4122 
C 2150 4256 2144 4256 2029 4256 
L 128 1254 
L 128 1088 
L 1779 1088 
L 1779 457 
C 1779 224 1766 160 1318 160 
L 1197 160 
L 1197 0 
C 1402 0 1747 0 1965 0 
C 2182 0 2528 0 2733 0 
L 2733 160 
L 2611 160 
C 2163 160 2150 224 2150 457 
L 2150 1088 
L 2803 1088 
L 2803 1254 
L 2150 1254 
L 2150 4122 
z
M 1798 3703 
L 1798 1254 
L 256 1254 
L 1798 3703 
z
" transform="scale(0.015625)"/>
       </defs>
       <use xlink:href="#CMR17-34" transform="scale(0.996264)"/>
       <use xlink:href="#CMR17-30" transform="translate(45.690477 0) scale(0.996264)"/>
       <use xlink:href="#CMR17-30" transform="translate(91.380954 0) scale(0.996264)"/>
       <use xlink:href="#CMR17-30" transform="translate(137.071431 0) scale(0.996264)"/>
      </g>
     </g>
    </g>
    <g id="xtick_5">
     <g id="line2d_9">
      <path d="M 421.638842 272.033031 
L 421.638842 7.2 
" clip-path="url(#pda3c4d65b1)" style="fill: none; stroke: #b0b0b0; stroke-width: 0.8; stroke-linecap: square"/>
     </g>
     <g id="line2d_10">
      <g>
       <use xlink:href="#m62e20beeda" x="421.638842" y="272.033031" style="stroke: #000000; stroke-width: 0.8"/>
      </g>
     </g>
     <g id="text_5">
      <!-- $\mathdefault{5000}$ -->
      <g transform="translate(407.981865 288.718907) scale(0.14 -0.14)">
       <defs>
        <path id="CMR17-35" d="M 730 3692 
C 794 3666 1056 3584 1325 3584 
C 1920 3584 2246 3911 2432 4100 
C 2432 4157 2432 4192 2394 4192 
C 2387 4192 2374 4192 2323 4163 
C 2099 4058 1837 3973 1517 3973 
C 1325 3973 1037 3999 723 4139 
C 653 4171 640 4171 634 4171 
C 602 4171 595 4164 595 4037 
L 595 2203 
C 595 2089 595 2057 659 2057 
C 691 2057 704 2070 736 2114 
C 941 2401 1222 2522 1542 2522 
C 1766 2522 2246 2382 2246 1289 
C 2246 1085 2246 715 2054 421 
C 1894 159 1645 25 1370 25 
C 947 25 518 320 403 814 
C 429 807 480 795 506 795 
C 589 795 749 840 749 1038 
C 749 1210 627 1280 506 1280 
C 358 1280 262 1190 262 1011 
C 262 454 704 -128 1382 -128 
C 2042 -128 2669 440 2669 1264 
C 2669 2030 2170 2624 1549 2624 
C 1222 2624 947 2503 730 2274 
L 730 3692 
z
" transform="scale(0.015625)"/>
       </defs>
       <use xlink:href="#CMR17-35" transform="scale(0.996264)"/>
       <use xlink:href="#CMR17-30" transform="translate(45.690477 0) scale(0.996264)"/>
       <use xlink:href="#CMR17-30" transform="translate(91.380954 0) scale(0.996264)"/>
       <use xlink:href="#CMR17-30" transform="translate(137.071431 0) scale(0.996264)"/>
      </g>
     </g>
    </g>
    <g id="text_6">
     <!-- $n$ -->
     <g transform="translate(241.368861 306.500524) scale(0.16 -0.16)">
      <defs>
       <path id="CMMI12-6e" d="M 1318 1871 
C 1331 1910 1491 2229 1728 2433 
C 1894 2586 2112 2689 2362 2689 
C 2618 2689 2707 2497 2707 2242 
C 2707 1878 2445 1150 2317 805 
C 2259 651 2227 568 2227 453 
C 2227 166 2426 -64 2733 -64 
C 3328 -64 3552 875 3552 913 
C 3552 945 3526 971 3488 971 
C 3430 971 3424 952 3392 843 
C 3245 319 3002 64 2752 64 
C 2688 64 2586 64 2586 269 
C 2586 429 2656 621 2694 710 
C 2822 1063 3091 1780 3091 2145 
C 3091 2528 2867 2816 2381 2816 
C 1811 2816 1510 2415 1395 2255 
C 1376 2618 1114 2816 832 2816 
C 627 2816 486 2695 378 2478 
C 262 2248 173 1865 173 1839 
C 173 1814 198 1782 243 1782 
C 294 1782 301 1788 339 1935 
C 442 2325 557 2689 813 2689 
C 960 2689 1011 2586 1011 2395 
C 1011 2254 947 2005 902 1807 
L 723 1118 
C 698 996 627 709 595 594 
C 550 428 480 128 480 96 
C 480 6 550 -64 646 -64 
C 723 -64 813 -26 864 70 
C 877 102 934 326 966 453 
L 1107 1028 
L 1318 1871 
z
" transform="scale(0.015625)"/>
      </defs>
      <use xlink:href="#CMMI12-6e" transform="scale(0.996264)"/>
     </g>
    </g>
   </g>
   <g id="matplotlib.axis_2">
    <g id="ytick_1">
     <g id="line2d_11">
      <path d="M 52.85453 230.42848 
L 439.2 230.42848 
" clip-path="url(#pda3c4d65b1)" style="fill: none; stroke: #b0b0b0; stroke-width: 0.8; stroke-linecap: square"/>
     </g>
     <g id="line2d_12">
      <defs>
       <path id="m9ead885981" d="M 0 0 
L -3.5 0 
" style="stroke: #000000; stroke-width: 0.8"/>
      </defs>
      <g>
       <use xlink:href="#m9ead885981" x="52.85453" y="230.42848" style="stroke: #000000; stroke-width: 0.8"/>
      </g>
     </g>
     <g id="text_7">
      <!-- $\mathdefault{50}$ -->
      <g transform="translate(32.197553 235.271418) scale(0.14 -0.14)">
       <use xlink:href="#CMR17-35" transform="scale(0.996264)"/>
       <use xlink:href="#CMR17-30" transform="translate(45.690477 0) scale(0.996264)"/>
      </g>
     </g>
    </g>
    <g id="ytick_2">
     <g id="line2d_13">
      <path d="M 52.85453 177.630826 
L 439.2 177.630826 
" clip-path="url(#pda3c4d65b1)" style="fill: none; stroke: #b0b0b0; stroke-width: 0.8; stroke-linecap: square"/>
     </g>
     <g id="line2d_14">
      <g>
       <use xlink:href="#m9ead885981" x="52.85453" y="177.630826" style="stroke: #000000; stroke-width: 0.8"/>
      </g>
     </g>
     <g id="text_8">
      <!-- $\mathdefault{100}$ -->
      <g transform="translate(25.369064 182.473764) scale(0.14 -0.14)">
       <use xlink:href="#CMR17-31" transform="scale(0.996264)"/>
       <use xlink:href="#CMR17-30" transform="translate(45.690477 0) scale(0.996264)"/>
       <use xlink:href="#CMR17-30" transform="translate(91.380954 0) scale(0.996264)"/>
      </g>
     </g>
    </g>
    <g id="ytick_3">
     <g id="line2d_15">
      <path d="M 52.85453 124.833172 
L 439.2 124.833172 
" clip-path="url(#pda3c4d65b1)" style="fill: none; stroke: #b0b0b0; stroke-width: 0.8; stroke-linecap: square"/>
     </g>
     <g id="line2d_16">
      <g>
       <use xlink:href="#m9ead885981" x="52.85453" y="124.833172" style="stroke: #000000; stroke-width: 0.8"/>
      </g>
     </g>
     <g id="text_9">
      <!-- $\mathdefault{150}$ -->
      <g transform="translate(25.369064 129.676111) scale(0.14 -0.14)">
       <use xlink:href="#CMR17-31" transform="scale(0.996264)"/>
       <use xlink:href="#CMR17-35" transform="translate(45.690477 0) scale(0.996264)"/>
       <use xlink:href="#CMR17-30" transform="translate(91.380954 0) scale(0.996264)"/>
      </g>
     </g>
    </g>
    <g id="ytick_4">
     <g id="line2d_17">
      <path d="M 52.85453 72.035519 
L 439.2 72.035519 
" clip-path="url(#pda3c4d65b1)" style="fill: none; stroke: #b0b0b0; stroke-width: 0.8; stroke-linecap: square"/>
     </g>
     <g id="line2d_18">
      <g>
       <use xlink:href="#m9ead885981" x="52.85453" y="72.035519" style="stroke: #000000; stroke-width: 0.8"/>
      </g>
     </g>
     <g id="text_10">
      <!-- $\mathdefault{200}$ -->
      <g transform="translate(25.369064 76.878457) scale(0.14 -0.14)">
       <use xlink:href="#CMR17-32" transform="scale(0.996264)"/>
       <use xlink:href="#CMR17-30" transform="translate(45.690477 0) scale(0.996264)"/>
       <use xlink:href="#CMR17-30" transform="translate(91.380954 0) scale(0.996264)"/>
      </g>
     </g>
    </g>
    <g id="ytick_5">
     <g id="line2d_19">
      <path d="M 52.85453 19.237865 
L 439.2 19.237865 
" clip-path="url(#pda3c4d65b1)" style="fill: none; stroke: #b0b0b0; stroke-width: 0.8; stroke-linecap: square"/>
     </g>
     <g id="line2d_20">
      <g>
       <use xlink:href="#m9ead885981" x="52.85453" y="19.237865" style="stroke: #000000; stroke-width: 0.8"/>
      </g>
     </g>
     <g id="text_11">
      <!-- $\mathdefault{250}$ -->
      <g transform="translate(25.369064 24.080803) scale(0.14 -0.14)">
       <use xlink:href="#CMR17-32" transform="scale(0.996264)"/>
       <use xlink:href="#CMR17-35" transform="translate(45.690477 0) scale(0.996264)"/>
       <use xlink:href="#CMR17-30" transform="translate(91.380954 0) scale(0.996264)"/>
      </g>
     </g>
    </g>
    <g id="text_12">
     <!-- $k$ -->
     <g transform="translate(18.269588 143.67533) rotate(-90) scale(0.16 -0.16)">
      <defs>
       <path id="CMMI12-6b" d="M 1798 4257 
C 1805 4283 1818 4321 1818 4352 
C 1818 4416 1754 4416 1741 4416 
C 1734 4416 1504 4393 1389 4377 
C 1280 4377 1184 4358 1069 4358 
C 915 4345 870 4339 870 4224 
C 870 4160 934 4160 998 4160 
C 1325 4160 1325 4103 1325 4040 
C 1325 4015 1325 4002 1293 3888 
L 378 248 
C 352 152 352 140 352 101 
C 352 -38 461 -64 525 -64 
C 704 -64 742 77 794 275 
L 1094 1469 
C 1555 1418 1830 1226 1830 920 
C 1830 881 1830 856 1811 760 
C 1786 664 1786 588 1786 556 
C 1786 185 2029 -64 2355 -64 
C 2650 -64 2803 204 2854 294 
C 2989 530 3072 888 3072 913 
C 3072 945 3046 971 3008 971 
C 2950 971 2944 945 2918 843 
C 2829 511 2694 64 2368 64 
C 2240 64 2157 128 2157 370 
C 2157 492 2182 632 2208 728 
C 2234 843 2234 849 2234 926 
C 2234 1303 1894 1514 1306 1590 
C 1536 1731 1766 1980 1856 2076 
C 2221 2484 2470 2689 2765 2689 
C 2912 2689 2950 2650 2995 2612 
C 2758 2586 2669 2420 2669 2293 
C 2669 2139 2790 2088 2880 2088 
C 3053 2088 3206 2235 3206 2440 
C 3206 2625 3059 2816 2771 2816 
C 2419 2816 2131 2567 1677 2056 
C 1613 1980 1376 1737 1139 1648 
L 1798 4257 
z
" transform="scale(0.015625)"/>
      </defs>
      <use xlink:href="#CMMI12-6b" transform="scale(0.996264)"/>
     </g>
    </g>
   </g>
   <g id="line2d_21">
    <path d="M 70.415688 256.827306 
L 70.571787 255.771353 
L 71.97668 255.771353 
L 72.132779 254.7154 
L 73.537672 254.7154 
L 73.693771 253.659447 
L 75.098663 253.659447 
L 75.254763 252.603494 
L 76.659655 252.603494 
L 76.815754 251.547541 
L 78.220647 251.547541 
L 78.376746 250.491588 
L 79.781639 250.491588 
L 79.937738 249.435635 
L 81.342631 249.435635 
L 81.49873 248.379682 
L 82.903622 248.379682 
L 83.059722 247.323729 
L 84.464614 247.323729 
L 84.620713 246.267776 
L 86.025606 246.267776 
L 86.181705 245.211823 
L 87.586598 245.211823 
L 87.742697 244.15587 
L 89.14759 244.15587 
L 89.303689 243.099916 
L 90.708581 243.099916 
L 90.864681 242.043963 
L 92.269573 242.043963 
L 92.425672 240.98801 
L 93.830565 240.98801 
L 93.986664 239.932057 
L 95.391557 239.932057 
L 95.547656 238.876104 
L 96.952549 238.876104 
L 97.108648 237.820151 
L 98.51354 237.820151 
L 98.66964 236.764198 
L 100.074532 236.764198 
L 100.230631 235.708245 
L 101.635524 235.708245 
L 101.791623 234.652292 
L 103.196516 234.652292 
L 103.352615 233.596339 
L 104.757508 233.596339 
L 104.913607 232.540386 
L 106.318499 232.540386 
L 106.474599 231.484433 
L 107.879491 231.484433 
L 108.03559 230.42848 
L 109.440483 230.42848 
L 109.596582 229.372527 
L 111.001475 229.372527 
L 111.157574 228.316573 
L 112.562467 228.316573 
L 112.718566 227.26062 
L 114.123458 227.26062 
L 114.279558 226.204667 
L 115.68445 226.204667 
L 115.840549 225.148714 
L 117.245442 225.148714 
L 117.401541 224.092761 
L 118.806434 224.092761 
L 118.962533 223.036808 
L 120.367426 223.036808 
L 120.523525 221.980855 
L 121.928417 221.980855 
L 122.084517 220.924902 
L 123.489409 220.924902 
L 123.645508 219.868949 
L 125.050401 219.868949 
L 125.2065 218.812996 
L 126.611393 218.812996 
L 126.767492 217.757043 
L 128.172385 217.757043 
L 128.328484 216.70109 
L 129.733376 216.70109 
L 129.889476 215.645137 
L 131.294368 215.645137 
L 131.450467 214.589184 
L 132.85536 214.589184 
L 133.011459 213.53323 
L 134.416352 213.53323 
L 134.572451 212.477277 
L 135.977344 212.477277 
L 136.133443 211.421324 
L 137.538335 211.421324 
L 137.694435 210.365371 
L 139.099327 210.365371 
L 139.255426 209.309418 
L 140.660319 209.309418 
L 140.816418 208.253465 
L 142.221311 208.253465 
L 142.37741 207.197512 
L 143.782303 207.197512 
L 143.938402 206.141559 
L 145.343294 206.141559 
L 145.499393 205.085606 
L 146.904286 205.085606 
L 147.060385 204.029653 
L 148.465278 204.029653 
L 148.621377 202.9737 
L 150.02627 202.9737 
L 150.182369 201.917747 
L 151.587262 201.917747 
L 151.743361 200.861794 
L 153.148253 200.861794 
L 153.304352 199.80584 
L 154.709245 199.80584 
L 154.865344 198.749887 
L 156.270237 198.749887 
L 156.426336 197.693934 
L 157.831229 197.693934 
L 157.987328 196.637981 
L 159.39222 196.637981 
L 159.54832 195.582028 
L 160.953212 195.582028 
L 161.109311 194.526075 
L 162.514204 194.526075 
L 162.670303 193.470122 
L 164.075196 193.470122 
L 164.231295 192.414169 
L 165.636188 192.414169 
L 165.792287 191.358216 
L 167.197179 191.358216 
L 167.353279 190.302263 
L 168.758171 190.302263 
L 168.91427 189.24631 
L 170.319163 189.24631 
L 170.475262 188.190357 
L 171.880155 188.190357 
L 172.036254 187.134404 
L 173.441147 187.134404 
L 173.597246 186.078451 
L 175.002138 186.078451 
L 175.158238 185.022497 
L 176.56313 185.022497 
L 176.719229 183.966544 
L 178.124122 183.966544 
L 178.280221 182.910591 
L 179.685114 182.910591 
L 179.841213 181.854638 
L 181.246106 181.854638 
L 181.402205 180.798685 
L 182.807097 180.798685 
L 182.963197 179.742732 
L 184.368089 179.742732 
L 184.524188 178.686779 
L 185.929081 178.686779 
L 186.08518 177.630826 
L 187.490073 177.630826 
L 187.646172 176.574873 
L 189.051065 176.574873 
L 189.207164 175.51892 
L 190.612056 175.51892 
L 190.768156 174.462967 
L 192.173048 174.462967 
L 192.329147 173.407014 
L 193.73404 173.407014 
L 193.890139 172.351061 
L 195.295032 172.351061 
L 195.451131 171.295108 
L 196.856024 171.295108 
L 197.012123 170.239154 
L 198.417015 170.239154 
L 198.573115 169.183201 
L 199.978007 169.183201 
L 200.134106 168.127248 
L 201.538999 168.127248 
L 201.695098 167.071295 
L 203.099991 167.071295 
L 203.25609 166.015342 
L 204.660983 166.015342 
L 204.817082 164.959389 
L 206.221974 164.959389 
L 206.378074 163.903436 
L 207.782966 163.903436 
L 207.939065 162.847483 
L 209.343958 162.847483 
L 209.500057 161.79153 
L 210.90495 161.79153 
L 211.061049 160.735577 
L 212.465942 160.735577 
L 212.622041 159.679624 
L 214.026933 159.679624 
L 214.183033 158.623671 
L 215.587925 158.623671 
L 215.744024 157.567718 
L 217.148917 157.567718 
L 217.305016 156.511765 
L 218.709909 156.511765 
L 218.866008 155.455811 
L 220.270901 155.455811 
L 220.427 154.399858 
L 221.831892 154.399858 
L 221.987992 153.343905 
L 223.392884 153.343905 
L 223.548983 152.287952 
L 224.953876 152.287952 
L 225.109975 151.231999 
L 226.514868 151.231999 
L 226.670967 150.176046 
L 228.07586 150.176046 
L 228.231959 149.120093 
L 229.636851 149.120093 
L 229.792951 148.06414 
L 231.197843 148.06414 
L 231.353942 147.008187 
L 232.758835 147.008187 
L 232.914934 145.952234 
L 234.319827 145.952234 
L 234.475926 144.896281 
L 235.880819 144.896281 
L 236.036918 143.840328 
L 237.44181 143.840328 
L 237.597909 142.784375 
L 239.002802 142.784375 
L 239.158901 141.728421 
L 240.563794 141.728421 
L 240.719893 140.672468 
L 242.124786 140.672468 
L 242.280885 139.616515 
L 243.685777 139.616515 
L 243.841877 138.560562 
L 245.246769 138.560562 
L 245.402868 137.504609 
L 246.807761 137.504609 
L 246.96386 136.448656 
L 248.368753 136.448656 
L 248.524852 135.392703 
L 249.929745 135.392703 
L 250.085844 134.33675 
L 251.490736 134.33675 
L 251.646836 133.280797 
L 253.051728 133.280797 
L 253.207827 132.224844 
L 254.61272 132.224844 
L 254.768819 131.168891 
L 256.173712 131.168891 
L 256.329811 130.112938 
L 257.734704 130.112938 
L 257.890803 129.056985 
L 259.295695 129.056985 
L 259.451795 128.001032 
L 260.856687 128.001032 
L 261.012786 126.945078 
L 262.417679 126.945078 
L 262.573778 125.889125 
L 263.978671 125.889125 
L 264.13477 124.833172 
L 265.539663 124.833172 
L 265.695762 123.777219 
L 267.100654 123.777219 
L 267.256754 122.721266 
L 268.661646 122.721266 
L 268.817745 121.665313 
L 270.222638 121.665313 
L 270.378737 120.60936 
L 271.78363 120.60936 
L 271.939729 119.553407 
L 273.344622 119.553407 
L 273.500721 118.497454 
L 274.905613 118.497454 
L 275.061713 117.441501 
L 276.466605 117.441501 
L 276.622704 116.385548 
L 278.027597 116.385548 
L 278.183696 115.329595 
L 279.588589 115.329595 
L 279.744688 114.273642 
L 281.149581 114.273642 
L 281.30568 113.217689 
L 282.710572 113.217689 
L 282.866672 112.161735 
L 284.271564 112.161735 
L 284.427663 111.105782 
L 285.832556 111.105782 
L 285.988655 110.049829 
L 287.393548 110.049829 
L 287.549647 108.993876 
L 288.95454 108.993876 
L 289.110639 107.937923 
L 290.515531 107.937923 
L 290.671631 106.88197 
L 292.076523 106.88197 
L 292.232622 105.826017 
L 293.637515 105.826017 
L 293.793614 104.770064 
L 295.198507 104.770064 
L 295.354606 103.714111 
L 296.759499 103.714111 
L 296.915598 102.658158 
L 298.32049 102.658158 
L 298.47659 101.602205 
L 299.881482 101.602205 
L 300.037581 100.546252 
L 301.442474 100.546252 
L 301.598573 99.490299 
L 303.003466 99.490299 
L 303.159565 98.434345 
L 304.564458 98.434345 
L 304.720557 97.378392 
L 306.125449 97.378392 
L 306.281549 96.322439 
L 307.686441 96.322439 
L 307.84254 95.266486 
L 309.247433 95.266486 
L 309.403532 94.210533 
L 310.808425 94.210533 
L 310.964524 93.15458 
L 312.369417 93.15458 
L 312.525516 92.098627 
L 313.930408 92.098627 
L 314.086508 91.042674 
L 315.4914 91.042674 
L 315.647499 89.986721 
L 317.052392 89.986721 
L 317.208491 88.930768 
L 318.613384 88.930768 
L 318.769483 87.874815 
L 320.174376 87.874815 
L 320.330475 86.818862 
L 321.735367 86.818862 
L 321.891466 85.762909 
L 323.296359 85.762909 
L 323.452458 84.706956 
L 324.857351 84.706956 
L 325.01345 83.651002 
L 326.418343 83.651002 
L 326.574442 82.595049 
L 327.979335 82.595049 
L 328.135434 81.539096 
L 329.540326 81.539096 
L 329.696425 80.483143 
L 331.101318 80.483143 
L 331.257417 79.42719 
L 332.66231 79.42719 
L 332.818409 78.371237 
L 334.223302 78.371237 
L 334.379401 77.315284 
L 335.784293 77.315284 
L 335.940393 76.259331 
L 337.345285 76.259331 
L 337.501384 75.203378 
L 338.906277 75.203378 
L 339.062376 74.147425 
L 340.467269 74.147425 
L 340.623368 73.091472 
L 342.028261 73.091472 
L 342.18436 72.035519 
L 343.589252 72.035519 
L 343.745352 70.979566 
L 345.150244 70.979566 
L 345.306343 69.923613 
L 346.711236 69.923613 
L 346.867335 68.867659 
L 348.272228 68.867659 
L 348.428327 67.811706 
L 349.83322 67.811706 
L 349.989319 66.755753 
L 351.394211 66.755753 
L 351.550311 65.6998 
L 352.955203 65.6998 
L 353.111302 64.643847 
L 354.516195 64.643847 
L 354.672294 63.587894 
L 356.077187 63.587894 
L 356.233286 62.531941 
L 357.638179 62.531941 
L 357.794278 61.475988 
L 359.19917 61.475988 
L 359.35527 60.420035 
L 360.760162 60.420035 
L 360.916261 59.364082 
L 362.321154 59.364082 
L 362.477253 58.308129 
L 363.882146 58.308129 
L 364.038245 57.252176 
L 365.443138 57.252176 
L 365.599237 56.196223 
L 367.004129 56.196223 
L 367.160229 55.14027 
L 368.565121 55.14027 
L 368.72122 54.084316 
L 370.126113 54.084316 
L 370.282212 53.028363 
L 371.687105 53.028363 
L 371.843204 51.97241 
L 373.248097 51.97241 
L 373.404196 50.916457 
L 374.809088 50.916457 
L 374.965188 49.860504 
L 376.37008 49.860504 
L 376.526179 48.804551 
L 377.931072 48.804551 
L 378.087171 47.748598 
L 379.492064 47.748598 
L 379.648163 46.692645 
L 381.053056 46.692645 
L 381.209155 45.636692 
L 382.614047 45.636692 
L 382.770147 44.580739 
L 384.175039 44.580739 
L 384.331138 43.524786 
L 385.736031 43.524786 
L 385.89213 42.468833 
L 387.297023 42.468833 
L 387.453122 41.41288 
L 388.858015 41.41288 
L 389.014114 40.356926 
L 390.419006 40.356926 
L 390.575106 39.300973 
L 391.979998 39.300973 
L 392.136097 38.24502 
L 393.54099 38.24502 
L 393.697089 37.189067 
L 395.101982 37.189067 
L 395.258081 36.133114 
L 396.662974 36.133114 
L 396.819073 35.077161 
L 398.223965 35.077161 
L 398.380065 34.021208 
L 399.784957 34.021208 
L 399.941056 32.965255 
L 401.345949 32.965255 
L 401.502048 31.909302 
L 402.906941 31.909302 
L 403.06304 30.853349 
L 404.467933 30.853349 
L 404.624032 29.797396 
L 406.028924 29.797396 
L 406.185024 28.741443 
L 407.589916 28.741443 
L 407.746015 27.68549 
L 409.150908 27.68549 
L 409.307007 26.629537 
L 410.7119 26.629537 
L 410.867999 25.573583 
L 412.272892 25.573583 
L 412.428991 24.51763 
L 413.833883 24.51763 
L 413.989982 23.461677 
L 415.394875 23.461677 
L 415.550974 22.405724 
L 416.955867 22.405724 
L 417.111966 21.349771 
L 418.516859 21.349771 
L 418.672958 20.293818 
L 420.07785 20.293818 
L 420.23395 19.237865 
L 421.560793 19.237865 
L 421.560793 19.237865 
" clip-path="url(#pda3c4d65b1)" style="fill: none; stroke: #1e90ff; stroke-width: 2; stroke-linecap: square"/>
   </g>
   <g id="line2d_22">
    <path d="M 70.415688 259.995166 
L 72.601077 259.995166 
L 72.757176 258.939213 
L 76.269407 258.939213 
L 76.425507 257.883259 
L 80.093837 257.883259 
L 80.249936 256.827306 
L 84.074366 256.827306 
L 84.230465 255.771353 
L 88.210995 255.771353 
L 88.367094 254.7154 
L 92.503722 254.7154 
L 92.659821 253.659447 
L 96.952549 253.659447 
L 97.108648 252.603494 
L 101.557474 252.603494 
L 101.713574 251.547541 
L 106.318499 251.547541 
L 106.474599 250.491588 
L 111.235624 250.491588 
L 111.391723 249.435635 
L 116.308847 249.435635 
L 116.464946 248.379682 
L 121.538169 248.379682 
L 121.694269 247.323729 
L 126.923591 247.323729 
L 127.07969 246.267776 
L 132.465112 246.267776 
L 132.621211 245.211823 
L 138.162732 245.211823 
L 138.318831 244.15587 
L 144.016451 244.15587 
L 144.17255 243.099916 
L 150.02627 243.099916 
L 150.182369 242.043963 
L 156.192187 242.043963 
L 156.348286 240.98801 
L 162.514204 240.98801 
L 162.670303 239.932057 
L 168.99232 239.932057 
L 169.148419 238.876104 
L 175.626535 238.876104 
L 175.782634 237.820151 
L 182.416849 237.820151 
L 182.572949 236.764198 
L 189.363263 236.764198 
L 189.519362 235.708245 
L 196.465776 235.708245 
L 196.621875 234.652292 
L 203.724388 234.652292 
L 203.880487 233.596339 
L 211.139099 233.596339 
L 211.295198 232.540386 
L 218.709909 232.540386 
L 218.866008 231.484433 
L 226.436818 231.484433 
L 226.592917 230.42848 
L 234.319827 230.42848 
L 234.475926 229.372527 
L 242.358934 229.372527 
L 242.515034 228.316573 
L 250.554141 228.316573 
L 250.710241 227.26062 
L 258.905448 227.26062 
L 259.061547 226.204667 
L 267.412853 226.204667 
L 267.568952 225.148714 
L 276.076357 225.148714 
L 276.232456 224.092761 
L 284.895961 224.092761 
L 285.05206 223.036808 
L 293.871664 223.036808 
L 294.027763 221.980855 
L 303.003466 221.980855 
L 303.159565 220.924902 
L 312.291367 220.924902 
L 312.447466 219.868949 
L 321.735367 219.868949 
L 321.891466 218.812996 
L 331.335467 218.812996 
L 331.491566 217.757043 
L 341.091666 217.757043 
L 341.247765 216.70109 
L 351.003963 216.70109 
L 351.160063 215.645137 
L 361.072361 215.645137 
L 361.22846 214.589184 
L 371.296857 214.589184 
L 371.452956 213.53323 
L 381.677452 213.53323 
L 381.833551 212.477277 
L 392.214147 212.477277 
L 392.370246 211.421324 
L 402.906941 211.421324 
L 403.06304 210.365371 
L 413.755834 210.365371 
L 413.911933 209.309418 
L 421.560793 209.309418 
L 421.560793 209.309418 
" clip-path="url(#pda3c4d65b1)" style="fill: none; stroke: #ffa500; stroke-width: 2; stroke-linecap: square"/>
   </g>
   <g id="patch_3">
    <path d="M 52.85453 272.033031 
L 52.85453 7.2 
" style="fill: none; stroke: #000000; stroke-width: 0.8; stroke-linejoin: miter; stroke-linecap: square"/>
   </g>
   <g id="patch_4">
    <path d="M 439.2 272.033031 
L 439.2 7.2 
" style="fill: none; stroke: #000000; stroke-width: 0.8; stroke-linejoin: miter; stroke-linecap: square"/>
   </g>
   <g id="patch_5">
    <path d="M 52.85453 272.033031 
L 439.2 272.033031 
" style="fill: none; stroke: #000000; stroke-width: 0.8; stroke-linejoin: miter; stroke-linecap: square"/>
   </g>
   <g id="patch_6">
    <path d="M 52.85453 7.2 
L 439.2 7.2 
" style="fill: none; stroke: #000000; stroke-width: 0.8; stroke-linejoin: miter; stroke-linecap: square"/>
   </g>
   <g id="PathCollection_1">
    <defs>
     <path id="mf5e517d303" d="M 0 2.5 
C 0.663008 2.5 1.29895 2.236584 1.767767 1.767767 
C 2.236584 1.29895 2.5 0.663008 2.5 0 
C 2.5 -0.663008 2.236584 -1.29895 1.767767 -1.767767 
C 1.29895 -2.236584 0.663008 -2.5 0 -2.5 
C -0.663008 -2.5 -1.29895 -2.236584 -1.767767 -1.767767 
C -2.236584 -1.29895 -2.5 -0.663008 -2.5 0 
C -2.5 0.663008 -2.236584 1.29895 -1.767767 1.767767 
C -1.29895 2.236584 -0.663008 2.5 0 2.5 
z
" style="stroke: #0000ff"/>
    </defs>
    <g clip-path="url(#pda3c4d65b1)">
     <use xlink:href="#mf5e517d303" x="71.040085" y="255.771353" style="fill: #0000ff; stroke: #0000ff"/>
     <use xlink:href="#mf5e517d303" x="72.132779" y="254.7154" style="fill: #0000ff; stroke: #0000ff"/>
     <use xlink:href="#mf5e517d303" x="91.332978" y="242.043963" style="fill: #0000ff; stroke: #0000ff"/>
     <use xlink:href="#mf5e517d303" x="105.538004" y="232.540386" style="fill: #0000ff; stroke: #0000ff"/>
     <use xlink:href="#mf5e517d303" x="109.440483" y="230.42848" style="fill: #0000ff; stroke: #0000ff"/>
     <use xlink:href="#mf5e517d303" x="111.781971" y="228.316573" style="fill: #0000ff; stroke: #0000ff"/>
     <use xlink:href="#mf5e517d303" x="113.264913" y="227.26062" style="fill: #0000ff; stroke: #0000ff"/>
     <use xlink:href="#mf5e517d303" x="113.499062" y="227.26062" style="fill: #0000ff; stroke: #0000ff"/>
     <use xlink:href="#mf5e517d303" x="145.421344" y="205.085606" style="fill: #0000ff; stroke: #0000ff"/>
     <use xlink:href="#mf5e517d303" x="156.192187" y="198.749887" style="fill: #0000ff; stroke: #0000ff"/>
     <use xlink:href="#mf5e517d303" x="218.241611" y="156.511765" style="fill: #0000ff; stroke: #0000ff"/>
     <use xlink:href="#mf5e517d303" x="278.651994" y="115.329595" style="fill: #0000ff; stroke: #0000ff"/>
     <use xlink:href="#mf5e517d303" x="305.266904" y="97.378392" style="fill: #0000ff; stroke: #0000ff"/>
     <use xlink:href="#mf5e517d303" x="313.227962" y="92.098627" style="fill: #0000ff; stroke: #0000ff"/>
     <use xlink:href="#mf5e517d303" x="323.998805" y="84.706956" style="fill: #0000ff; stroke: #0000ff"/>
     <use xlink:href="#mf5e517d303" x="413.677784" y="24.51763" style="fill: #0000ff; stroke: #0000ff"/>
     <use xlink:href="#mf5e517d303" x="421.638842" y="19.237865" style="fill: #0000ff; stroke: #0000ff"/>
    </g>
   </g>
   <g id="PathCollection_2">
    <defs>
     <path id="m2507f60b55" d="M 0 2.5 
C 0.663008 2.5 1.29895 2.236584 1.767767 1.767767 
C 2.236584 1.29895 2.5 0.663008 2.5 0 
C 2.5 -0.663008 2.236584 -1.29895 1.767767 -1.767767 
C 1.29895 -2.236584 0.663008 -2.5 0 -2.5 
C -0.663008 -2.5 -1.29895 -2.236584 -1.767767 -1.767767 
C -2.236584 -1.29895 -2.5 -0.663008 -2.5 0 
C -2.5 0.663008 -2.236584 1.29895 -1.767767 1.767767 
C -1.29895 2.236584 -0.663008 2.5 0 2.5 
z
" style="stroke: #ff8c00"/>
    </defs>
    <g clip-path="url(#pda3c4d65b1)">
     <use xlink:href="#m2507f60b55" x="71.040085" y="259.995166" style="fill: #ff8c00; stroke: #ff8c00"/>
     <use xlink:href="#m2507f60b55" x="72.132779" y="259.995166" style="fill: #ff8c00; stroke: #ff8c00"/>
     <use xlink:href="#m2507f60b55" x="91.332978" y="254.7154" style="fill: #ff8c00; stroke: #ff8c00"/>
     <use xlink:href="#m2507f60b55" x="105.538004" y="251.547541" style="fill: #ff8c00; stroke: #ff8c00"/>
     <use xlink:href="#m2507f60b55" x="109.440483" y="250.491588" style="fill: #ff8c00; stroke: #ff8c00"/>
     <use xlink:href="#m2507f60b55" x="111.781971" y="249.435635" style="fill: #ff8c00; stroke: #ff8c00"/>
     <use xlink:href="#m2507f60b55" x="113.264913" y="249.435635" style="fill: #ff8c00; stroke: #ff8c00"/>
     <use xlink:href="#m2507f60b55" x="113.499062" y="249.435635" style="fill: #ff8c00; stroke: #ff8c00"/>
     <use xlink:href="#m2507f60b55" x="145.421344" y="243.099916" style="fill: #ff8c00; stroke: #ff8c00"/>
     <use xlink:href="#m2507f60b55" x="156.192187" y="242.043963" style="fill: #ff8c00; stroke: #ff8c00"/>
     <use xlink:href="#m2507f60b55" x="218.241611" y="232.540386" style="fill: #ff8c00; stroke: #ff8c00"/>
     <use xlink:href="#m2507f60b55" x="278.651994" y="224.092761" style="fill: #ff8c00; stroke: #ff8c00"/>
     <use xlink:href="#m2507f60b55" x="305.266904" y="220.924902" style="fill: #ff8c00; stroke: #ff8c00"/>
     <use xlink:href="#m2507f60b55" x="313.227962" y="219.868949" style="fill: #ff8c00; stroke: #ff8c00"/>
     <use xlink:href="#m2507f60b55" x="323.998805" y="218.812996" style="fill: #ff8c00; stroke: #ff8c00"/>
     <use xlink:href="#m2507f60b55" x="413.677784" y="210.365371" style="fill: #ff8c00; stroke: #ff8c00"/>
     <use xlink:href="#m2507f60b55" x="421.638842" y="209.309418" style="fill: #ff8c00; stroke: #ff8c00"/>
    </g>
   </g>
   <g id="legend_1">
    <g id="patch_7">
     <path d="M 62.65453 60.438715 
L 188.298886 60.438715 
Q 191.098886 60.438715 191.098886 57.638715 
L 191.098886 17 
Q 191.098886 14.2 188.298886 14.2 
L 62.65453 14.2 
Q 59.85453 14.2 59.85453 17 
L 59.85453 57.638715 
Q 59.85453 60.438715 62.65453 60.438715 
z
" style="fill: #ffffff; opacity: 0.8; stroke: #cccccc; stroke-linejoin: miter"/>
    </g>
    <g id="line2d_23">
     <path d="M 65.45453 25.360772 
L 79.45453 25.360772 
L 93.45453 25.360772 
" style="fill: none; stroke: #1e90ff; stroke-width: 2; stroke-linecap: square"/>
    </g>
    <g id="text_13">
     <!-- $k = \lceil 0.05 \cdot n \rceil$ -->
     <g transform="translate(104.65453 30.260772) scale(0.14 -0.14)">
      <defs>
       <path id="CMR17-3d" d="M 4115 2017 
C 4211 2017 4307 2017 4307 2125 
C 4307 2240 4198 2240 4090 2240 
L 512 2240 
C 403 2240 294 2240 294 2125 
C 294 2017 390 2017 486 2017 
L 4115 2017 
z
M 4090 896 
C 4198 896 4307 896 4307 1011 
C 4307 1119 4211 1119 4115 1119 
L 486 1119 
C 390 1119 294 1119 294 1011 
C 294 896 403 896 512 896 
L 4090 896 
z
" transform="scale(0.015625)"/>
       <path id="CMSY10-64" d="M 2469 4544 
C 2565 4544 2700 4544 2700 4672 
C 2700 4800 2565 4800 2469 4800 
L 1343 4800 
C 1138 4800 1113 4774 1113 4570 
L 1113 -1370 
C 1113 -1466 1113 -1600 1241 -1600 
C 1369 -1600 1369 -1485 1369 -1370 
L 1369 4544 
L 2469 4544 
z
" transform="scale(0.015625)"/>
       <path id="CMMI12-3a" d="M 1178 307 
C 1178 492 1024 619 870 619 
C 685 619 557 466 557 313 
C 557 128 710 0 864 0 
C 1050 0 1178 153 1178 307 
z
" transform="scale(0.015625)"/>
       <path id="CMSY10-1" d="M 1229 1619 
C 1229 1805 1075 1958 890 1958 
C 704 1958 550 1805 550 1619 
C 550 1433 704 1280 890 1280 
C 1075 1280 1229 1433 1229 1619 
z
" transform="scale(0.015625)"/>
       <path id="CMSY10-65" d="M 1721 4570 
C 1721 4781 1701 4800 1497 4800 
L 364 4800 
C 268 4800 133 4800 133 4672 
C 133 4544 268 4544 364 4544 
L 1465 4544 
L 1465 -1370 
C 1465 -1466 1465 -1600 1593 -1600 
C 1721 -1600 1721 -1485 1721 -1370 
L 1721 4570 
z
" transform="scale(0.015625)"/>
      </defs>
      <use xlink:href="#CMMI12-6b" transform="scale(0.996264)"/>
      <use xlink:href="#CMR17-3d" transform="translate(81.753209 0) scale(0.996264)"/>
      <use xlink:href="#CMSY10-64" transform="translate(181.142007 0) scale(0.996264)"/>
      <use xlink:href="#CMR17-30" transform="translate(225.420512 0) scale(0.996264)"/>
      <use xlink:href="#CMMI12-3a" transform="translate(271.110989 0) scale(0.996264)"/>
      <use xlink:href="#CMR17-30" transform="translate(298.208166 0) scale(0.996264)"/>
      <use xlink:href="#CMR17-35" transform="translate(343.898643 0) scale(0.996264)"/>
      <use xlink:href="#CMSY10-1" transform="translate(411.728327 0) scale(0.996264)"/>
      <use xlink:href="#CMMI12-6e" transform="translate(461.541619 0) scale(0.996264)"/>
      <use xlink:href="#CMSY10-65" transform="translate(519.771666 0) scale(0.996264)"/>
     </g>
    </g>
    <g id="line2d_24">
     <path d="M 65.45453 46.451791 
L 79.45453 46.451791 
L 93.45453 46.451791 
" style="fill: none; stroke: #ffa500; stroke-width: 2; stroke-linecap: square"/>
    </g>
    <g id="text_14">
     <!-- $k = \lfloor \sqrt{n} \rfloor$ -->
     <g transform="translate(104.65453 51.351791) scale(0.14 -0.14)">
      <defs>
       <path id="CMSY10-62" d="M 2469 -1600 
C 2565 -1600 2700 -1600 2700 -1472 
C 2700 -1344 2565 -1344 2469 -1344 
L 1369 -1344 
L 1369 4570 
C 1369 4685 1369 4800 1241 4800 
C 1113 4800 1113 4666 1113 4570 
L 1113 -1370 
C 1113 -1574 1138 -1600 1343 -1600 
L 2469 -1600 
z
" transform="scale(0.015625)"/>
       <path id="CMSY10-70" d="M 2490 -5472 
L 1363 -2982 
C 1318 -2880 1286 -2880 1267 -2880 
C 1261 -2880 1229 -2880 1158 -2931 
L 550 -3392 
C 467 -3456 467 -3475 467 -3494 
C 467 -3526 486 -3565 531 -3565 
C 570 -3565 678 -3475 749 -3424 
C 787 -3393 883 -3323 954 -3271 
L 2214 -6042 
C 2259 -6144 2291 -6144 2349 -6144 
C 2445 -6144 2464 -6106 2509 -6016 
L 5414 0 
C 5459 90 5459 115 5459 128 
C 5459 192 5408 256 5331 256 
C 5280 256 5235 224 5184 122 
L 2490 -5472 
z
" transform="scale(0.015625)"/>
       <path id="CMSY10-63" d="M 1721 4570 
C 1721 4685 1721 4800 1593 4800 
C 1465 4800 1465 4666 1465 4570 
L 1465 -1344 
L 364 -1344 
C 268 -1344 133 -1344 133 -1472 
C 133 -1600 268 -1600 364 -1600 
L 1497 -1600 
C 1701 -1600 1721 -1581 1721 -1370 
L 1721 4570 
z
" transform="scale(0.015625)"/>
      </defs>
      <use xlink:href="#CMMI12-6b" transform="scale(0.996264)"/>
      <use xlink:href="#CMR17-3d" transform="translate(81.753209 0) scale(0.996264)"/>
      <use xlink:href="#CMSY10-62" transform="translate(181.142007 0) scale(0.996264)"/>
      <use xlink:href="#CMSY10-70" transform="translate(225.420512 71.758691) scale(0.996264)"/>
      <use xlink:href="#CMMI12-6e" transform="translate(308.442766 0) scale(0.996264)"/>
      <use xlink:href="#CMSY10-63" transform="translate(366.672813 0) scale(0.996264)"/>
      <path d="M 308.442766 71.758691 
L 366.672813 71.758691 
L 366.672813 75.743641 
L 308.442766 75.743641 
L 308.442766 71.758691 
z
"/>
     </g>
    </g>
   </g>
  </g>
 </g>
 <defs>
  <clipPath id="pda3c4d65b1">
   <rect x="52.85453" y="7.2" width="386.34547" height="264.833031"/>
  </clipPath>
 </defs>
</svg>
