<?xml version="1.0" encoding="utf-8" standalone="no"?>
<!DOCTYPE svg PUBLIC "-//W3C//DTD SVG 1.1//EN"
  "http://www.w3.org/Graphics/SVG/1.1/DTD/svg11.dtd">
<svg xmlns:xlink="http://www.w3.org/1999/xlink" width="1346.184563pt" height="349.141022pt" viewBox="0 0 1346.184563 349.141022" xmlns="http://www.w3.org/2000/svg" version="1.1">
 <metadata>
  <rdf:RDF xmlns:dc="http://purl.org/dc/elements/1.1/" xmlns:cc="http://creativecommons.org/ns#" xmlns:rdf="http://www.w3.org/1999/02/22-rdf-syntax-ns#">
   <cc:Work>
    <dc:type rdf:resource="http://purl.org/dc/dcmitype/StillImage"/>
    <dc:date>2025-10-17T00:24:51.272306</dc:date>
    <dc:format>image/svg+xml</dc:format>
    <dc:creator>
     <cc:Agent>
      <dc:title>Matplotlib v3.10.3, https://matplotlib.org/</dc:title>
     </cc:Agent>
    </dc:creator>
   </cc:Work>
  </rdf:RDF>
 </metadata>
 <defs>
  <style type="text/css">*{stroke-linejoin: round; stroke-linecap: butt}</style>
 </defs>
 <g id="figure_1">
  <g id="patch_1">
   <path d="M 0 349.141022 
L 1346.184563 349.141022 
L 1346.184563 0 
L 0 0 
z
" style="fill: #ffffff"/>
  </g>
  <g id="axes_1">
   <g id="patch_2">
    <path d="M 62.856563 264.273522 
L 428.924563 264.273522 
L 428.924563 8.770681 
L 62.856563 8.770681 
z
" style="fill: #ffffff"/>
   </g>
   <g id="matplotlib.axis_1">
    <g id="xtick_1">
     <g id="line2d_1">
      <path d="M 127.037316 264.273522 
L 127.037316 8.770681 
" clip-path="url(#p0da7c98820)" style="fill: none; stroke: #cccccc; stroke-opacity: 0.7; stroke-linecap: round"/>
     </g>
     <g id="text_1">
      <!-- 5 -->
      <g style="fill: #262626" transform="translate(123.144659 283.794459) scale(0.14 -0.14)">
       <defs>
        <path id="ArialMT-35" d="M 266 1200 
L 856 1250 
Q 922 819 1161 601 
Q 1400 384 1738 384 
Q 2144 384 2425 690 
Q 2706 997 2706 1503 
Q 2706 1984 2436 2262 
Q 2166 2541 1728 2541 
Q 1456 2541 1237 2417 
Q 1019 2294 894 2097 
L 366 2166 
L 809 4519 
L 3088 4519 
L 3088 3981 
L 1259 3981 
L 1013 2750 
Q 1425 3038 1878 3038 
Q 2478 3038 2890 2622 
Q 3303 2206 3303 1553 
Q 3303 931 2941 478 
Q 2500 -78 1738 -78 
Q 1113 -78 717 272 
Q 322 622 266 1200 
z
" transform="scale(0.015625)"/>
       </defs>
       <use xlink:href="#ArialMT-35"/>
      </g>
     </g>
    </g>
    <g id="xtick_2">
     <g id="line2d_2">
      <path d="M 245.890563 264.273522 
L 245.890563 8.770681 
" clip-path="url(#p0da7c98820)" style="fill: none; stroke: #cccccc; stroke-opacity: 0.7; stroke-linecap: round"/>
     </g>
     <g id="text_2">
      <!-- 10 -->
      <g style="fill: #262626" transform="translate(238.10525 283.794459) scale(0.14 -0.14)">
       <defs>
        <path id="ArialMT-31" d="M 2384 0 
L 1822 0 
L 1822 3584 
Q 1619 3391 1289 3197 
Q 959 3003 697 2906 
L 697 3450 
Q 1169 3672 1522 3987 
Q 1875 4303 2022 4600 
L 2384 4600 
L 2384 0 
z
" transform="scale(0.015625)"/>
        <path id="ArialMT-30" d="M 266 2259 
Q 266 3072 433 3567 
Q 600 4063 929 4331 
Q 1259 4600 1759 4600 
Q 2128 4600 2406 4451 
Q 2684 4303 2865 4023 
Q 3047 3744 3150 3342 
Q 3253 2941 3253 2259 
Q 3253 1453 3087 958 
Q 2922 463 2592 192 
Q 2263 -78 1759 -78 
Q 1097 -78 719 397 
Q 266 969 266 2259 
z
M 844 2259 
Q 844 1131 1108 757 
Q 1372 384 1759 384 
Q 2147 384 2411 759 
Q 2675 1134 2675 2259 
Q 2675 3391 2411 3762 
Q 2147 4134 1753 4134 
Q 1366 4134 1134 3806 
Q 844 3388 844 2259 
z
" transform="scale(0.015625)"/>
       </defs>
       <use xlink:href="#ArialMT-31"/>
       <use xlink:href="#ArialMT-30" transform="translate(55.615234 0)"/>
      </g>
     </g>
    </g>
    <g id="xtick_3">
     <g id="line2d_3">
      <path d="M 364.743809 264.273522 
L 364.743809 8.770681 
" clip-path="url(#p0da7c98820)" style="fill: none; stroke: #cccccc; stroke-opacity: 0.7; stroke-linecap: round"/>
     </g>
     <g id="text_3">
      <!-- 25 -->
      <g style="fill: #262626" transform="translate(356.958497 283.794459) scale(0.14 -0.14)">
       <defs>
        <path id="ArialMT-32" d="M 3222 541 
L 3222 0 
L 194 0 
Q 188 203 259 391 
Q 375 700 629 1000 
Q 884 1300 1366 1694 
Q 2113 2306 2375 2664 
Q 2638 3022 2638 3341 
Q 2638 3675 2398 3904 
Q 2159 4134 1775 4134 
Q 1369 4134 1125 3890 
Q 881 3647 878 3216 
L 300 3275 
Q 359 3922 746 4261 
Q 1134 4600 1788 4600 
Q 2447 4600 2831 4234 
Q 3216 3869 3216 3328 
Q 3216 3053 3103 2787 
Q 2991 2522 2730 2228 
Q 2469 1934 1863 1422 
Q 1356 997 1212 845 
Q 1069 694 975 541 
L 3222 541 
z
" transform="scale(0.015625)"/>
       </defs>
       <use xlink:href="#ArialMT-32"/>
       <use xlink:href="#ArialMT-35" transform="translate(55.615234 0)"/>
      </g>
     </g>
    </g>
    <g id="text_4">
     <!-- Missing Rate [%] -->
     <g style="fill: #262626" transform="translate(185.873063 302.224459) scale(0.16 -0.16)">
      <defs>
       <path id="ArialMT-4d" d="M 475 0 
L 475 4581 
L 1388 4581 
L 2472 1338 
Q 2622 884 2691 659 
Q 2769 909 2934 1394 
L 4031 4581 
L 4847 4581 
L 4847 0 
L 4263 0 
L 4263 3834 
L 2931 0 
L 2384 0 
L 1059 3900 
L 1059 0 
L 475 0 
z
" transform="scale(0.015625)"/>
       <path id="ArialMT-69" d="M 425 3934 
L 425 4581 
L 988 4581 
L 988 3934 
L 425 3934 
z
M 425 0 
L 425 3319 
L 988 3319 
L 988 0 
L 425 0 
z
" transform="scale(0.015625)"/>
       <path id="ArialMT-73" d="M 197 991 
L 753 1078 
Q 800 744 1014 566 
Q 1228 388 1613 388 
Q 2000 388 2187 545 
Q 2375 703 2375 916 
Q 2375 1106 2209 1216 
Q 2094 1291 1634 1406 
Q 1016 1563 777 1677 
Q 538 1791 414 1992 
Q 291 2194 291 2438 
Q 291 2659 392 2848 
Q 494 3038 669 3163 
Q 800 3259 1026 3326 
Q 1253 3394 1513 3394 
Q 1903 3394 2198 3281 
Q 2494 3169 2634 2976 
Q 2775 2784 2828 2463 
L 2278 2388 
Q 2241 2644 2061 2787 
Q 1881 2931 1553 2931 
Q 1166 2931 1000 2803 
Q 834 2675 834 2503 
Q 834 2394 903 2306 
Q 972 2216 1119 2156 
Q 1203 2125 1616 2013 
Q 2213 1853 2448 1751 
Q 2684 1650 2818 1456 
Q 2953 1263 2953 975 
Q 2953 694 2789 445 
Q 2625 197 2315 61 
Q 2006 -75 1616 -75 
Q 969 -75 630 194 
Q 291 463 197 991 
z
" transform="scale(0.015625)"/>
       <path id="ArialMT-6e" d="M 422 0 
L 422 3319 
L 928 3319 
L 928 2847 
Q 1294 3394 1984 3394 
Q 2284 3394 2536 3286 
Q 2788 3178 2913 3003 
Q 3038 2828 3088 2588 
Q 3119 2431 3119 2041 
L 3119 0 
L 2556 0 
L 2556 2019 
Q 2556 2363 2490 2533 
Q 2425 2703 2258 2804 
Q 2091 2906 1866 2906 
Q 1506 2906 1245 2678 
Q 984 2450 984 1813 
L 984 0 
L 422 0 
z
" transform="scale(0.015625)"/>
       <path id="ArialMT-67" d="M 319 -275 
L 866 -356 
Q 900 -609 1056 -725 
Q 1266 -881 1628 -881 
Q 2019 -881 2231 -725 
Q 2444 -569 2519 -288 
Q 2563 -116 2559 434 
Q 2191 0 1641 0 
Q 956 0 581 494 
Q 206 988 206 1678 
Q 206 2153 378 2554 
Q 550 2956 876 3175 
Q 1203 3394 1644 3394 
Q 2231 3394 2613 2919 
L 2613 3319 
L 3131 3319 
L 3131 450 
Q 3131 -325 2973 -648 
Q 2816 -972 2473 -1159 
Q 2131 -1347 1631 -1347 
Q 1038 -1347 672 -1080 
Q 306 -813 319 -275 
z
M 784 1719 
Q 784 1066 1043 766 
Q 1303 466 1694 466 
Q 2081 466 2343 764 
Q 2606 1063 2606 1700 
Q 2606 2309 2336 2618 
Q 2066 2928 1684 2928 
Q 1309 2928 1046 2623 
Q 784 2319 784 1719 
z
" transform="scale(0.015625)"/>
       <path id="ArialMT-20" transform="scale(0.015625)"/>
       <path id="ArialMT-52" d="M 503 0 
L 503 4581 
L 2534 4581 
Q 3147 4581 3465 4457 
Q 3784 4334 3975 4021 
Q 4166 3709 4166 3331 
Q 4166 2844 3850 2509 
Q 3534 2175 2875 2084 
Q 3116 1969 3241 1856 
Q 3506 1613 3744 1247 
L 4541 0 
L 3778 0 
L 3172 953 
Q 2906 1366 2734 1584 
Q 2563 1803 2427 1890 
Q 2291 1978 2150 2013 
Q 2047 2034 1813 2034 
L 1109 2034 
L 1109 0 
L 503 0 
z
M 1109 2559 
L 2413 2559 
Q 2828 2559 3062 2645 
Q 3297 2731 3419 2920 
Q 3541 3109 3541 3331 
Q 3541 3656 3305 3865 
Q 3069 4075 2559 4075 
L 1109 4075 
L 1109 2559 
z
" transform="scale(0.015625)"/>
       <path id="ArialMT-61" d="M 2588 409 
Q 2275 144 1986 34 
Q 1697 -75 1366 -75 
Q 819 -75 525 192 
Q 231 459 231 875 
Q 231 1119 342 1320 
Q 453 1522 633 1644 
Q 813 1766 1038 1828 
Q 1203 1872 1538 1913 
Q 2219 1994 2541 2106 
Q 2544 2222 2544 2253 
Q 2544 2597 2384 2738 
Q 2169 2928 1744 2928 
Q 1347 2928 1158 2789 
Q 969 2650 878 2297 
L 328 2372 
Q 403 2725 575 2942 
Q 747 3159 1072 3276 
Q 1397 3394 1825 3394 
Q 2250 3394 2515 3294 
Q 2781 3194 2906 3042 
Q 3031 2891 3081 2659 
Q 3109 2516 3109 2141 
L 3109 1391 
Q 3109 606 3145 398 
Q 3181 191 3288 0 
L 2700 0 
Q 2613 175 2588 409 
z
M 2541 1666 
Q 2234 1541 1622 1453 
Q 1275 1403 1131 1340 
Q 988 1278 909 1158 
Q 831 1038 831 891 
Q 831 666 1001 516 
Q 1172 366 1500 366 
Q 1825 366 2078 508 
Q 2331 650 2450 897 
Q 2541 1088 2541 1459 
L 2541 1666 
z
" transform="scale(0.015625)"/>
       <path id="ArialMT-74" d="M 1650 503 
L 1731 6 
Q 1494 -44 1306 -44 
Q 1000 -44 831 53 
Q 663 150 594 308 
Q 525 466 525 972 
L 525 2881 
L 113 2881 
L 113 3319 
L 525 3319 
L 525 4141 
L 1084 4478 
L 1084 3319 
L 1650 3319 
L 1650 2881 
L 1084 2881 
L 1084 941 
Q 1084 700 1114 631 
Q 1144 563 1211 522 
Q 1278 481 1403 481 
Q 1497 481 1650 503 
z
" transform="scale(0.015625)"/>
       <path id="ArialMT-65" d="M 2694 1069 
L 3275 997 
Q 3138 488 2766 206 
Q 2394 -75 1816 -75 
Q 1088 -75 661 373 
Q 234 822 234 1631 
Q 234 2469 665 2931 
Q 1097 3394 1784 3394 
Q 2450 3394 2872 2941 
Q 3294 2488 3294 1666 
Q 3294 1616 3291 1516 
L 816 1516 
Q 847 969 1125 678 
Q 1403 388 1819 388 
Q 2128 388 2347 550 
Q 2566 713 2694 1069 
z
M 847 1978 
L 2700 1978 
Q 2663 2397 2488 2606 
Q 2219 2931 1791 2931 
Q 1403 2931 1139 2672 
Q 875 2413 847 1978 
z
" transform="scale(0.015625)"/>
       <path id="ArialMT-5b" d="M 434 -1272 
L 434 4581 
L 1675 4581 
L 1675 4116 
L 997 4116 
L 997 -806 
L 1675 -806 
L 1675 -1272 
L 434 -1272 
z
" transform="scale(0.015625)"/>
       <path id="ArialMT-25" d="M 372 3481 
Q 372 3972 619 4315 
Q 866 4659 1334 4659 
Q 1766 4659 2048 4351 
Q 2331 4044 2331 3447 
Q 2331 2866 2045 2552 
Q 1759 2238 1341 2238 
Q 925 2238 648 2547 
Q 372 2856 372 3481 
z
M 1350 4272 
Q 1141 4272 1002 4090 
Q 863 3909 863 3425 
Q 863 2984 1003 2804 
Q 1144 2625 1350 2625 
Q 1563 2625 1702 2806 
Q 1841 2988 1841 3469 
Q 1841 3913 1700 4092 
Q 1559 4272 1350 4272 
z
M 1353 -169 
L 3859 4659 
L 4316 4659 
L 1819 -169 
L 1353 -169 
z
M 3334 1075 
Q 3334 1569 3581 1911 
Q 3828 2253 4300 2253 
Q 4731 2253 5014 1945 
Q 5297 1638 5297 1041 
Q 5297 459 5011 145 
Q 4725 -169 4303 -169 
Q 3888 -169 3611 142 
Q 3334 453 3334 1075 
z
M 4316 1866 
Q 4103 1866 3964 1684 
Q 3825 1503 3825 1019 
Q 3825 581 3965 400 
Q 4106 219 4313 219 
Q 4528 219 4667 400 
Q 4806 581 4806 1063 
Q 4806 1506 4665 1686 
Q 4525 1866 4316 1866 
z
" transform="scale(0.015625)"/>
       <path id="ArialMT-5d" d="M 1363 -1272 
L 122 -1272 
L 122 -806 
L 800 -806 
L 800 4116 
L 122 4116 
L 122 4581 
L 1363 4581 
L 1363 -1272 
z
" transform="scale(0.015625)"/>
      </defs>
      <use xlink:href="#ArialMT-4d"/>
      <use xlink:href="#ArialMT-69" transform="translate(83.300781 0)"/>
      <use xlink:href="#ArialMT-73" transform="translate(105.517578 0)"/>
      <use xlink:href="#ArialMT-73" transform="translate(155.517578 0)"/>
      <use xlink:href="#ArialMT-69" transform="translate(205.517578 0)"/>
      <use xlink:href="#ArialMT-6e" transform="translate(227.734375 0)"/>
      <use xlink:href="#ArialMT-67" transform="translate(283.349609 0)"/>
      <use xlink:href="#ArialMT-20" transform="translate(338.964844 0)"/>
      <use xlink:href="#ArialMT-52" transform="translate(366.748047 0)"/>
      <use xlink:href="#ArialMT-61" transform="translate(438.964844 0)"/>
      <use xlink:href="#ArialMT-74" transform="translate(494.580078 0)"/>
      <use xlink:href="#ArialMT-65" transform="translate(522.363281 0)"/>
      <use xlink:href="#ArialMT-20" transform="translate(577.978516 0)"/>
      <use xlink:href="#ArialMT-5b" transform="translate(605.761719 0)"/>
      <use xlink:href="#ArialMT-25" transform="translate(633.544922 0)"/>
      <use xlink:href="#ArialMT-5d" transform="translate(722.460938 0)"/>
     </g>
    </g>
   </g>
   <g id="matplotlib.axis_2">
    <g id="ytick_1">
     <g id="line2d_4">
      <path d="M 62.856563 264.273522 
L 428.924563 264.273522 
" clip-path="url(#p0da7c98820)" style="fill: none; stroke: #cccccc; stroke-opacity: 0.7; stroke-linecap: round"/>
     </g>
     <g id="text_5">
      <!-- 0.000 -->
      <g style="fill: #262626" transform="translate(25.8325 268.210318) scale(0.11 -0.11)">
       <defs>
        <path id="ArialMT-2e" d="M 581 0 
L 581 641 
L 1222 641 
L 1222 0 
L 581 0 
z
" transform="scale(0.015625)"/>
       </defs>
       <use xlink:href="#ArialMT-30"/>
       <use xlink:href="#ArialMT-2e" transform="translate(55.615234 0)"/>
       <use xlink:href="#ArialMT-30" transform="translate(83.398438 0)"/>
       <use xlink:href="#ArialMT-30" transform="translate(139.013672 0)"/>
       <use xlink:href="#ArialMT-30" transform="translate(194.628906 0)"/>
      </g>
     </g>
    </g>
    <g id="ytick_2">
     <g id="line2d_5">
      <path d="M 62.856563 232.631431 
L 428.924563 232.631431 
" clip-path="url(#p0da7c98820)" style="fill: none; stroke: #cccccc; stroke-opacity: 0.7; stroke-linecap: round"/>
     </g>
     <g id="text_6">
      <!-- 0.005 -->
      <g style="fill: #262626" transform="translate(25.8325 236.568228) scale(0.11 -0.11)">
       <use xlink:href="#ArialMT-30"/>
       <use xlink:href="#ArialMT-2e" transform="translate(55.615234 0)"/>
       <use xlink:href="#ArialMT-30" transform="translate(83.398438 0)"/>
       <use xlink:href="#ArialMT-30" transform="translate(139.013672 0)"/>
       <use xlink:href="#ArialMT-35" transform="translate(194.628906 0)"/>
      </g>
     </g>
    </g>
    <g id="ytick_3">
     <g id="line2d_6">
      <path d="M 62.856563 200.98934 
L 428.924563 200.98934 
" clip-path="url(#p0da7c98820)" style="fill: none; stroke: #cccccc; stroke-opacity: 0.7; stroke-linecap: round"/>
     </g>
     <g id="text_7">
      <!-- 0.010 -->
      <g style="fill: #262626" transform="translate(25.8325 204.926137) scale(0.11 -0.11)">
       <use xlink:href="#ArialMT-30"/>
       <use xlink:href="#ArialMT-2e" transform="translate(55.615234 0)"/>
       <use xlink:href="#ArialMT-30" transform="translate(83.398438 0)"/>
       <use xlink:href="#ArialMT-31" transform="translate(139.013672 0)"/>
       <use xlink:href="#ArialMT-30" transform="translate(194.628906 0)"/>
      </g>
     </g>
    </g>
    <g id="ytick_4">
     <g id="line2d_7">
      <path d="M 62.856563 169.34725 
L 428.924563 169.34725 
" clip-path="url(#p0da7c98820)" style="fill: none; stroke: #cccccc; stroke-opacity: 0.7; stroke-linecap: round"/>
     </g>
     <g id="text_8">
      <!-- 0.015 -->
      <g style="fill: #262626" transform="translate(25.8325 173.284047) scale(0.11 -0.11)">
       <use xlink:href="#ArialMT-30"/>
       <use xlink:href="#ArialMT-2e" transform="translate(55.615234 0)"/>
       <use xlink:href="#ArialMT-30" transform="translate(83.398438 0)"/>
       <use xlink:href="#ArialMT-31" transform="translate(139.013672 0)"/>
       <use xlink:href="#ArialMT-35" transform="translate(194.628906 0)"/>
      </g>
     </g>
    </g>
    <g id="ytick_5">
     <g id="line2d_8">
      <path d="M 62.856563 137.705159 
L 428.924563 137.705159 
" clip-path="url(#p0da7c98820)" style="fill: none; stroke: #cccccc; stroke-opacity: 0.7; stroke-linecap: round"/>
     </g>
     <g id="text_9">
      <!-- 0.020 -->
      <g style="fill: #262626" transform="translate(25.8325 141.641956) scale(0.11 -0.11)">
       <use xlink:href="#ArialMT-30"/>
       <use xlink:href="#ArialMT-2e" transform="translate(55.615234 0)"/>
       <use xlink:href="#ArialMT-30" transform="translate(83.398438 0)"/>
       <use xlink:href="#ArialMT-32" transform="translate(139.013672 0)"/>
       <use xlink:href="#ArialMT-30" transform="translate(194.628906 0)"/>
      </g>
     </g>
    </g>
    <g id="ytick_6">
     <g id="line2d_9">
      <path d="M 62.856563 106.063069 
L 428.924563 106.063069 
" clip-path="url(#p0da7c98820)" style="fill: none; stroke: #cccccc; stroke-opacity: 0.7; stroke-linecap: round"/>
     </g>
     <g id="text_10">
      <!-- 0.025 -->
      <g style="fill: #262626" transform="translate(25.8325 109.999866) scale(0.11 -0.11)">
       <use xlink:href="#ArialMT-30"/>
       <use xlink:href="#ArialMT-2e" transform="translate(55.615234 0)"/>
       <use xlink:href="#ArialMT-30" transform="translate(83.398438 0)"/>
       <use xlink:href="#ArialMT-32" transform="translate(139.013672 0)"/>
       <use xlink:href="#ArialMT-35" transform="translate(194.628906 0)"/>
      </g>
     </g>
    </g>
    <g id="ytick_7">
     <g id="line2d_10">
      <path d="M 62.856563 74.420978 
L 428.924563 74.420978 
" clip-path="url(#p0da7c98820)" style="fill: none; stroke: #cccccc; stroke-opacity: 0.7; stroke-linecap: round"/>
     </g>
     <g id="text_11">
      <!-- 0.030 -->
      <g style="fill: #262626" transform="translate(25.8325 78.357775) scale(0.11 -0.11)">
       <defs>
        <path id="ArialMT-33" d="M 269 1209 
L 831 1284 
Q 928 806 1161 595 
Q 1394 384 1728 384 
Q 2125 384 2398 659 
Q 2672 934 2672 1341 
Q 2672 1728 2419 1979 
Q 2166 2231 1775 2231 
Q 1616 2231 1378 2169 
L 1441 2663 
Q 1497 2656 1531 2656 
Q 1891 2656 2178 2843 
Q 2466 3031 2466 3422 
Q 2466 3731 2256 3934 
Q 2047 4138 1716 4138 
Q 1388 4138 1169 3931 
Q 950 3725 888 3313 
L 325 3413 
Q 428 3978 793 4289 
Q 1159 4600 1703 4600 
Q 2078 4600 2393 4439 
Q 2709 4278 2876 4000 
Q 3044 3722 3044 3409 
Q 3044 3113 2884 2869 
Q 2725 2625 2413 2481 
Q 2819 2388 3044 2092 
Q 3269 1797 3269 1353 
Q 3269 753 2831 336 
Q 2394 -81 1725 -81 
Q 1122 -81 723 278 
Q 325 638 269 1209 
z
" transform="scale(0.015625)"/>
       </defs>
       <use xlink:href="#ArialMT-30"/>
       <use xlink:href="#ArialMT-2e" transform="translate(55.615234 0)"/>
       <use xlink:href="#ArialMT-30" transform="translate(83.398438 0)"/>
       <use xlink:href="#ArialMT-33" transform="translate(139.013672 0)"/>
       <use xlink:href="#ArialMT-30" transform="translate(194.628906 0)"/>
      </g>
     </g>
    </g>
    <g id="ytick_8">
     <g id="line2d_11">
      <path d="M 62.856563 42.778887 
L 428.924563 42.778887 
" clip-path="url(#p0da7c98820)" style="fill: none; stroke: #cccccc; stroke-opacity: 0.7; stroke-linecap: round"/>
     </g>
     <g id="text_12">
      <!-- 0.035 -->
      <g style="fill: #262626" transform="translate(25.8325 46.715684) scale(0.11 -0.11)">
       <use xlink:href="#ArialMT-30"/>
       <use xlink:href="#ArialMT-2e" transform="translate(55.615234 0)"/>
       <use xlink:href="#ArialMT-30" transform="translate(83.398438 0)"/>
       <use xlink:href="#ArialMT-33" transform="translate(139.013672 0)"/>
       <use xlink:href="#ArialMT-35" transform="translate(194.628906 0)"/>
      </g>
     </g>
    </g>
    <g id="ytick_9">
     <g id="line2d_12">
      <path d="M 62.856563 11.136797 
L 428.924563 11.136797 
" clip-path="url(#p0da7c98820)" style="fill: none; stroke: #cccccc; stroke-opacity: 0.7; stroke-linecap: round"/>
     </g>
     <g id="text_13">
      <!-- 0.040 -->
      <g style="fill: #262626" transform="translate(25.8325 15.073594) scale(0.11 -0.11)">
       <defs>
        <path id="ArialMT-34" d="M 2069 0 
L 2069 1097 
L 81 1097 
L 81 1613 
L 2172 4581 
L 2631 4581 
L 2631 1613 
L 3250 1613 
L 3250 1097 
L 2631 1097 
L 2631 0 
L 2069 0 
z
M 2069 1613 
L 2069 3678 
L 634 1613 
L 2069 1613 
z
" transform="scale(0.015625)"/>
       </defs>
       <use xlink:href="#ArialMT-30"/>
       <use xlink:href="#ArialMT-2e" transform="translate(55.615234 0)"/>
       <use xlink:href="#ArialMT-30" transform="translate(83.398438 0)"/>
       <use xlink:href="#ArialMT-34" transform="translate(139.013672 0)"/>
       <use xlink:href="#ArialMT-30" transform="translate(194.628906 0)"/>
      </g>
     </g>
    </g>
    <g id="text_14">
     <!-- Bottleneck Distance - H$_0$ -->
     <g style="fill: #262626" transform="translate(18.6525 224.042101) rotate(-90) scale(0.16 -0.16)">
      <defs>
       <path id="ArialMT-42" d="M 469 0 
L 469 4581 
L 2188 4581 
Q 2713 4581 3030 4442 
Q 3347 4303 3526 4014 
Q 3706 3725 3706 3409 
Q 3706 3116 3547 2856 
Q 3388 2597 3066 2438 
Q 3481 2316 3704 2022 
Q 3928 1728 3928 1328 
Q 3928 1006 3792 729 
Q 3656 453 3456 303 
Q 3256 153 2954 76 
Q 2653 0 2216 0 
L 469 0 
z
M 1075 2656 
L 2066 2656 
Q 2469 2656 2644 2709 
Q 2875 2778 2992 2937 
Q 3109 3097 3109 3338 
Q 3109 3566 3000 3739 
Q 2891 3913 2687 3977 
Q 2484 4041 1991 4041 
L 1075 4041 
L 1075 2656 
z
M 1075 541 
L 2216 541 
Q 2509 541 2628 563 
Q 2838 600 2978 687 
Q 3119 775 3209 942 
Q 3300 1109 3300 1328 
Q 3300 1584 3169 1773 
Q 3038 1963 2805 2039 
Q 2572 2116 2134 2116 
L 1075 2116 
L 1075 541 
z
" transform="scale(0.015625)"/>
       <path id="ArialMT-6f" d="M 213 1659 
Q 213 2581 725 3025 
Q 1153 3394 1769 3394 
Q 2453 3394 2887 2945 
Q 3322 2497 3322 1706 
Q 3322 1066 3130 698 
Q 2938 331 2570 128 
Q 2203 -75 1769 -75 
Q 1072 -75 642 372 
Q 213 819 213 1659 
z
M 791 1659 
Q 791 1022 1069 705 
Q 1347 388 1769 388 
Q 2188 388 2466 706 
Q 2744 1025 2744 1678 
Q 2744 2294 2464 2611 
Q 2184 2928 1769 2928 
Q 1347 2928 1069 2612 
Q 791 2297 791 1659 
z
" transform="scale(0.015625)"/>
       <path id="ArialMT-6c" d="M 409 0 
L 409 4581 
L 972 4581 
L 972 0 
L 409 0 
z
" transform="scale(0.015625)"/>
       <path id="ArialMT-63" d="M 2588 1216 
L 3141 1144 
Q 3050 572 2676 248 
Q 2303 -75 1759 -75 
Q 1078 -75 664 370 
Q 250 816 250 1647 
Q 250 2184 428 2587 
Q 606 2991 970 3192 
Q 1334 3394 1763 3394 
Q 2303 3394 2647 3120 
Q 2991 2847 3088 2344 
L 2541 2259 
Q 2463 2594 2264 2762 
Q 2066 2931 1784 2931 
Q 1359 2931 1093 2626 
Q 828 2322 828 1663 
Q 828 994 1084 691 
Q 1341 388 1753 388 
Q 2084 388 2306 591 
Q 2528 794 2588 1216 
z
" transform="scale(0.015625)"/>
       <path id="ArialMT-6b" d="M 425 0 
L 425 4581 
L 988 4581 
L 988 1969 
L 2319 3319 
L 3047 3319 
L 1778 2088 
L 3175 0 
L 2481 0 
L 1384 1697 
L 988 1316 
L 988 0 
L 425 0 
z
" transform="scale(0.015625)"/>
       <path id="ArialMT-44" d="M 494 0 
L 494 4581 
L 2072 4581 
Q 2606 4581 2888 4516 
Q 3281 4425 3559 4188 
Q 3922 3881 4101 3404 
Q 4281 2928 4281 2316 
Q 4281 1794 4159 1391 
Q 4038 988 3847 723 
Q 3656 459 3429 307 
Q 3203 156 2883 78 
Q 2563 0 2147 0 
L 494 0 
z
M 1100 541 
L 2078 541 
Q 2531 541 2789 625 
Q 3047 709 3200 863 
Q 3416 1078 3536 1442 
Q 3656 1806 3656 2325 
Q 3656 3044 3420 3430 
Q 3184 3816 2847 3947 
Q 2603 4041 2063 4041 
L 1100 4041 
L 1100 541 
z
" transform="scale(0.015625)"/>
       <path id="ArialMT-2d" d="M 203 1375 
L 203 1941 
L 1931 1941 
L 1931 1375 
L 203 1375 
z
" transform="scale(0.015625)"/>
       <path id="ArialMT-48" d="M 513 0 
L 513 4581 
L 1119 4581 
L 1119 2700 
L 3500 2700 
L 3500 4581 
L 4106 4581 
L 4106 0 
L 3500 0 
L 3500 2159 
L 1119 2159 
L 1119 0 
L 513 0 
z
" transform="scale(0.015625)"/>
       <path id="DejaVuSans-30" d="M 2034 4250 
Q 1547 4250 1301 3770 
Q 1056 3291 1056 2328 
Q 1056 1369 1301 889 
Q 1547 409 2034 409 
Q 2525 409 2770 889 
Q 3016 1369 3016 2328 
Q 3016 3291 2770 3770 
Q 2525 4250 2034 4250 
z
M 2034 4750 
Q 2819 4750 3233 4129 
Q 3647 3509 3647 2328 
Q 3647 1150 3233 529 
Q 2819 -91 2034 -91 
Q 1250 -91 836 529 
Q 422 1150 422 2328 
Q 422 3509 836 4129 
Q 1250 4750 2034 4750 
z
" transform="scale(0.015625)"/>
      </defs>
      <use xlink:href="#ArialMT-42" transform="translate(0 0.421875)"/>
      <use xlink:href="#ArialMT-6f" transform="translate(66.699219 0.421875)"/>
      <use xlink:href="#ArialMT-74" transform="translate(122.314453 0.421875)"/>
      <use xlink:href="#ArialMT-74" transform="translate(150.097656 0.421875)"/>
      <use xlink:href="#ArialMT-6c" transform="translate(177.880859 0.421875)"/>
      <use xlink:href="#ArialMT-65" transform="translate(200.097656 0.421875)"/>
      <use xlink:href="#ArialMT-6e" transform="translate(255.712891 0.421875)"/>
      <use xlink:href="#ArialMT-65" transform="translate(311.328125 0.421875)"/>
      <use xlink:href="#ArialMT-63" transform="translate(366.943359 0.421875)"/>
      <use xlink:href="#ArialMT-6b" transform="translate(416.943359 0.421875)"/>
      <use xlink:href="#ArialMT-20" transform="translate(466.943359 0.421875)"/>
      <use xlink:href="#ArialMT-44" transform="translate(494.726562 0.421875)"/>
      <use xlink:href="#ArialMT-69" transform="translate(566.943359 0.421875)"/>
      <use xlink:href="#ArialMT-73" transform="translate(589.160156 0.421875)"/>
      <use xlink:href="#ArialMT-74" transform="translate(639.160156 0.421875)"/>
      <use xlink:href="#ArialMT-61" transform="translate(666.943359 0.421875)"/>
      <use xlink:href="#ArialMT-6e" transform="translate(722.558594 0.421875)"/>
      <use xlink:href="#ArialMT-63" transform="translate(778.173828 0.421875)"/>
      <use xlink:href="#ArialMT-65" transform="translate(828.173828 0.421875)"/>
      <use xlink:href="#ArialMT-20" transform="translate(883.789062 0.421875)"/>
      <use xlink:href="#ArialMT-2d" transform="translate(911.572266 0.421875)"/>
      <use xlink:href="#ArialMT-20" transform="translate(944.873047 0.421875)"/>
      <use xlink:href="#ArialMT-48" transform="translate(972.65625 0.421875)"/>
      <use xlink:href="#DejaVuSans-30" transform="translate(1045.830078 -15.984375) scale(0.7)"/>
     </g>
    </g>
   </g>
   <g id="patch_3">
    <path d="M 79.496017 264.273522 
L 103.266666 264.273522 
L 103.266666 177.108455 
L 79.496017 177.108455 
z
" clip-path="url(#p0da7c98820)" style="fill: #1b9e77; stroke: #ffffff; stroke-linejoin: miter"/>
   </g>
   <g id="patch_4">
    <path d="M 198.349264 264.273522 
L 222.119913 264.273522 
L 222.119913 155.34063 
L 198.349264 155.34063 
z
" clip-path="url(#p0da7c98820)" style="fill: #1b9e77; stroke: #ffffff; stroke-linejoin: miter"/>
   </g>
   <g id="patch_5">
    <path d="M 317.202511 264.273522 
L 340.97316 264.273522 
L 340.97316 59.102343 
L 317.202511 59.102343 
z
" clip-path="url(#p0da7c98820)" style="fill: #1b9e77; stroke: #ffffff; stroke-linejoin: miter"/>
   </g>
   <g id="patch_6">
    <path d="M 103.266666 264.273522 
L 127.037316 264.273522 
L 127.037316 188.475958 
L 103.266666 188.475958 
z
" clip-path="url(#p0da7c98820)" style="fill: #d95f02; stroke: #ffffff; stroke-linejoin: miter"/>
   </g>
   <g id="patch_7">
    <path d="M 222.119913 264.273522 
L 245.890563 264.273522 
L 245.890563 164.594957 
L 222.119913 164.594957 
z
" clip-path="url(#p0da7c98820)" style="fill: #d95f02; stroke: #ffffff; stroke-linejoin: miter"/>
   </g>
   <g id="patch_8">
    <path d="M 340.97316 264.273522 
L 364.743809 264.273522 
L 364.743809 130.429719 
L 340.97316 130.429719 
z
" clip-path="url(#p0da7c98820)" style="fill: #d95f02; stroke: #ffffff; stroke-linejoin: miter"/>
   </g>
   <g id="patch_9">
    <path d="M 127.037316 264.273522 
L 150.807965 264.273522 
L 150.807965 216.235233 
L 127.037316 216.235233 
z
" clip-path="url(#p0da7c98820)" style="fill: #7570b3; stroke: #ffffff; stroke-linejoin: miter"/>
   </g>
   <g id="patch_10">
    <path d="M 245.890563 264.273522 
L 269.661212 264.273522 
L 269.661212 182.937222 
L 245.890563 182.937222 
z
" clip-path="url(#p0da7c98820)" style="fill: #7570b3; stroke: #ffffff; stroke-linejoin: miter"/>
   </g>
   <g id="patch_11">
    <path d="M 364.743809 264.273522 
L 388.514459 264.273522 
L 388.514459 146.853104 
L 364.743809 146.853104 
z
" clip-path="url(#p0da7c98820)" style="fill: #7570b3; stroke: #ffffff; stroke-linejoin: miter"/>
   </g>
   <g id="patch_12">
    <path d="M 150.807965 264.273522 
L 174.578614 264.273522 
L 174.578614 221.39155 
L 150.807965 221.39155 
z
" clip-path="url(#p0da7c98820)" style="fill: #e7298a; stroke: #ffffff; stroke-linejoin: miter"/>
   </g>
   <g id="patch_13">
    <path d="M 269.661212 264.273522 
L 293.431861 264.273522 
L 293.431861 204.65928 
L 269.661212 204.65928 
z
" clip-path="url(#p0da7c98820)" style="fill: #e7298a; stroke: #ffffff; stroke-linejoin: miter"/>
   </g>
   <g id="patch_14">
    <path d="M 388.514459 264.273522 
L 412.285108 264.273522 
L 412.285108 173.166052 
L 388.514459 173.166052 
z
" clip-path="url(#p0da7c98820)" style="fill: #e7298a; stroke: #ffffff; stroke-linejoin: miter"/>
   </g>
   <g id="LineCollection_1">
    <path d="M 91.381342 191.018279 
L 91.381342 163.198631 
" clip-path="url(#p0da7c98820)" style="fill: none; stroke: #1a1a1a; stroke-width: 1.5"/>
    <path d="M 210.234588 172.124836 
L 210.234588 138.556425 
" clip-path="url(#p0da7c98820)" style="fill: none; stroke: #1a1a1a; stroke-width: 1.5"/>
    <path d="M 329.087835 97.267203 
L 329.087835 20.937483 
" clip-path="url(#p0da7c98820)" style="fill: none; stroke: #1a1a1a; stroke-width: 1.5"/>
   </g>
   <g id="line2d_13">
    <defs>
     <path id="m3791645e9f" d="M 5 0 
L -5 -0 
" style="stroke: #1a1a1a"/>
    </defs>
    <g clip-path="url(#p0da7c98820)">
     <use xlink:href="#m3791645e9f" x="91.381342" y="191.018279" style="fill: #1a1a1a; stroke: #1a1a1a"/>
     <use xlink:href="#m3791645e9f" x="210.234588" y="172.124836" style="fill: #1a1a1a; stroke: #1a1a1a"/>
     <use xlink:href="#m3791645e9f" x="329.087835" y="97.267203" style="fill: #1a1a1a; stroke: #1a1a1a"/>
    </g>
   </g>
   <g id="line2d_14">
    <g clip-path="url(#p0da7c98820)">
     <use xlink:href="#m3791645e9f" x="91.381342" y="163.198631" style="fill: #1a1a1a; stroke: #1a1a1a"/>
     <use xlink:href="#m3791645e9f" x="210.234588" y="138.556425" style="fill: #1a1a1a; stroke: #1a1a1a"/>
     <use xlink:href="#m3791645e9f" x="329.087835" y="20.937483" style="fill: #1a1a1a; stroke: #1a1a1a"/>
    </g>
   </g>
   <g id="LineCollection_2">
    <path d="M 115.151991 204.570856 
L 115.151991 172.38106 
" clip-path="url(#p0da7c98820)" style="fill: none; stroke: #1a1a1a; stroke-width: 1.5"/>
    <path d="M 234.005238 183.654036 
L 234.005238 145.535878 
" clip-path="url(#p0da7c98820)" style="fill: none; stroke: #1a1a1a; stroke-width: 1.5"/>
    <path d="M 352.858485 148.344571 
L 352.858485 112.514867 
" clip-path="url(#p0da7c98820)" style="fill: none; stroke: #1a1a1a; stroke-width: 1.5"/>
   </g>
   <g id="line2d_15">
    <g clip-path="url(#p0da7c98820)">
     <use xlink:href="#m3791645e9f" x="115.151991" y="204.570856" style="fill: #1a1a1a; stroke: #1a1a1a"/>
     <use xlink:href="#m3791645e9f" x="234.005238" y="183.654036" style="fill: #1a1a1a; stroke: #1a1a1a"/>
     <use xlink:href="#m3791645e9f" x="352.858485" y="148.344571" style="fill: #1a1a1a; stroke: #1a1a1a"/>
    </g>
   </g>
   <g id="line2d_16">
    <g clip-path="url(#p0da7c98820)">
     <use xlink:href="#m3791645e9f" x="115.151991" y="172.38106" style="fill: #1a1a1a; stroke: #1a1a1a"/>
     <use xlink:href="#m3791645e9f" x="234.005238" y="145.535878" style="fill: #1a1a1a; stroke: #1a1a1a"/>
     <use xlink:href="#m3791645e9f" x="352.858485" y="112.514867" style="fill: #1a1a1a; stroke: #1a1a1a"/>
    </g>
   </g>
   <g id="LineCollection_3">
    <path d="M 138.92264 225.058657 
L 138.92264 207.41181 
" clip-path="url(#p0da7c98820)" style="fill: none; stroke: #1a1a1a; stroke-width: 1.5"/>
    <path d="M 257.775887 199.321369 
L 257.775887 166.553074 
" clip-path="url(#p0da7c98820)" style="fill: none; stroke: #1a1a1a; stroke-width: 1.5"/>
    <path d="M 376.629134 166.685869 
L 376.629134 127.020338 
" clip-path="url(#p0da7c98820)" style="fill: none; stroke: #1a1a1a; stroke-width: 1.5"/>
   </g>
   <g id="line2d_17">
    <g clip-path="url(#p0da7c98820)">
     <use xlink:href="#m3791645e9f" x="138.92264" y="225.058657" style="fill: #1a1a1a; stroke: #1a1a1a"/>
     <use xlink:href="#m3791645e9f" x="257.775887" y="199.321369" style="fill: #1a1a1a; stroke: #1a1a1a"/>
     <use xlink:href="#m3791645e9f" x="376.629134" y="166.685869" style="fill: #1a1a1a; stroke: #1a1a1a"/>
    </g>
   </g>
   <g id="line2d_18">
    <g clip-path="url(#p0da7c98820)">
     <use xlink:href="#m3791645e9f" x="138.92264" y="207.41181" style="fill: #1a1a1a; stroke: #1a1a1a"/>
     <use xlink:href="#m3791645e9f" x="257.775887" y="166.553074" style="fill: #1a1a1a; stroke: #1a1a1a"/>
     <use xlink:href="#m3791645e9f" x="376.629134" y="127.020338" style="fill: #1a1a1a; stroke: #1a1a1a"/>
    </g>
   </g>
   <g id="LineCollection_4">
    <path d="M 162.69329 227.567096 
L 162.69329 215.216004 
" clip-path="url(#p0da7c98820)" style="fill: none; stroke: #1a1a1a; stroke-width: 1.5"/>
    <path d="M 281.546537 214.224019 
L 281.546537 195.094541 
" clip-path="url(#p0da7c98820)" style="fill: none; stroke: #1a1a1a; stroke-width: 1.5"/>
    <path d="M 400.399783 185.003103 
L 400.399783 161.329 
" clip-path="url(#p0da7c98820)" style="fill: none; stroke: #1a1a1a; stroke-width: 1.5"/>
   </g>
   <g id="line2d_19">
    <g clip-path="url(#p0da7c98820)">
     <use xlink:href="#m3791645e9f" x="162.69329" y="227.567096" style="fill: #1a1a1a; stroke: #1a1a1a"/>
     <use xlink:href="#m3791645e9f" x="281.546537" y="214.224019" style="fill: #1a1a1a; stroke: #1a1a1a"/>
     <use xlink:href="#m3791645e9f" x="400.399783" y="185.003103" style="fill: #1a1a1a; stroke: #1a1a1a"/>
    </g>
   </g>
   <g id="line2d_20">
    <g clip-path="url(#p0da7c98820)">
     <use xlink:href="#m3791645e9f" x="162.69329" y="215.216004" style="fill: #1a1a1a; stroke: #1a1a1a"/>
     <use xlink:href="#m3791645e9f" x="281.546537" y="195.094541" style="fill: #1a1a1a; stroke: #1a1a1a"/>
     <use xlink:href="#m3791645e9f" x="400.399783" y="161.329" style="fill: #1a1a1a; stroke: #1a1a1a"/>
    </g>
   </g>
   <g id="patch_15">
    <path d="M 62.856563 264.273522 
L 62.856563 8.770681 
" style="fill: none; stroke: #cccccc; stroke-width: 1.25; stroke-linejoin: miter; stroke-linecap: square"/>
   </g>
   <g id="patch_16">
    <path d="M 428.924563 264.273522 
L 428.924563 8.770681 
" style="fill: none; stroke: #cccccc; stroke-width: 1.25; stroke-linejoin: miter; stroke-linecap: square"/>
   </g>
   <g id="patch_17">
    <path d="M 62.856563 264.273522 
L 428.924563 264.273522 
" style="fill: none; stroke: #cccccc; stroke-width: 1.25; stroke-linejoin: miter; stroke-linecap: square"/>
   </g>
   <g id="patch_18">
    <path d="M 62.856563 8.770681 
L 428.924563 8.770681 
" style="fill: none; stroke: #cccccc; stroke-width: 1.25; stroke-linejoin: miter; stroke-linecap: square"/>
   </g>
  </g>
  <g id="axes_2">
   <g id="patch_19">
    <path d="M 517.886562 264.273522 
L 883.954563 264.273522 
L 883.954563 8.770681 
L 517.886562 8.770681 
z
" style="fill: #ffffff"/>
   </g>
   <g id="matplotlib.axis_3">
    <g id="xtick_4">
     <g id="line2d_21">
      <path d="M 582.067316 264.273522 
L 582.067316 8.770681 
" clip-path="url(#p7d4566f2c6)" style="fill: none; stroke: #cccccc; stroke-opacity: 0.7; stroke-linecap: round"/>
     </g>
     <g id="text_15">
      <!-- 5 -->
      <g style="fill: #262626" transform="translate(578.174659 283.794459) scale(0.14 -0.14)">
       <use xlink:href="#ArialMT-35"/>
      </g>
     </g>
    </g>
    <g id="xtick_5">
     <g id="line2d_22">
      <path d="M 700.920562 264.273522 
L 700.920562 8.770681 
" clip-path="url(#p7d4566f2c6)" style="fill: none; stroke: #cccccc; stroke-opacity: 0.7; stroke-linecap: round"/>
     </g>
     <g id="text_16">
      <!-- 10 -->
      <g style="fill: #262626" transform="translate(693.13525 283.794459) scale(0.14 -0.14)">
       <use xlink:href="#ArialMT-31"/>
       <use xlink:href="#ArialMT-30" transform="translate(55.615234 0)"/>
      </g>
     </g>
    </g>
    <g id="xtick_6">
     <g id="line2d_23">
      <path d="M 819.773809 264.273522 
L 819.773809 8.770681 
" clip-path="url(#p7d4566f2c6)" style="fill: none; stroke: #cccccc; stroke-opacity: 0.7; stroke-linecap: round"/>
     </g>
     <g id="text_17">
      <!-- 25 -->
      <g style="fill: #262626" transform="translate(811.988497 283.794459) scale(0.14 -0.14)">
       <use xlink:href="#ArialMT-32"/>
       <use xlink:href="#ArialMT-35" transform="translate(55.615234 0)"/>
      </g>
     </g>
    </g>
    <g id="text_18">
     <!-- Missing Rate [%] -->
     <g style="fill: #262626" transform="translate(640.903062 302.224459) scale(0.16 -0.16)">
      <use xlink:href="#ArialMT-4d"/>
      <use xlink:href="#ArialMT-69" transform="translate(83.300781 0)"/>
      <use xlink:href="#ArialMT-73" transform="translate(105.517578 0)"/>
      <use xlink:href="#ArialMT-73" transform="translate(155.517578 0)"/>
      <use xlink:href="#ArialMT-69" transform="translate(205.517578 0)"/>
      <use xlink:href="#ArialMT-6e" transform="translate(227.734375 0)"/>
      <use xlink:href="#ArialMT-67" transform="translate(283.349609 0)"/>
      <use xlink:href="#ArialMT-20" transform="translate(338.964844 0)"/>
      <use xlink:href="#ArialMT-52" transform="translate(366.748047 0)"/>
      <use xlink:href="#ArialMT-61" transform="translate(438.964844 0)"/>
      <use xlink:href="#ArialMT-74" transform="translate(494.580078 0)"/>
      <use xlink:href="#ArialMT-65" transform="translate(522.363281 0)"/>
      <use xlink:href="#ArialMT-20" transform="translate(577.978516 0)"/>
      <use xlink:href="#ArialMT-5b" transform="translate(605.761719 0)"/>
      <use xlink:href="#ArialMT-25" transform="translate(633.544922 0)"/>
      <use xlink:href="#ArialMT-5d" transform="translate(722.460938 0)"/>
     </g>
    </g>
   </g>
   <g id="matplotlib.axis_4">
    <g id="ytick_10">
     <g id="line2d_24">
      <path d="M 517.886562 264.273522 
L 883.954563 264.273522 
" clip-path="url(#p7d4566f2c6)" style="fill: none; stroke: #cccccc; stroke-opacity: 0.7; stroke-linecap: round"/>
     </g>
     <g id="text_19">
      <!-- 0.000 -->
      <g style="fill: #262626" transform="translate(480.8625 268.210318) scale(0.11 -0.11)">
       <use xlink:href="#ArialMT-30"/>
       <use xlink:href="#ArialMT-2e" transform="translate(55.615234 0)"/>
       <use xlink:href="#ArialMT-30" transform="translate(83.398438 0)"/>
       <use xlink:href="#ArialMT-30" transform="translate(139.013672 0)"/>
       <use xlink:href="#ArialMT-30" transform="translate(194.628906 0)"/>
      </g>
     </g>
    </g>
    <g id="ytick_11">
     <g id="line2d_25">
      <path d="M 517.886562 219.013568 
L 883.954563 219.013568 
" clip-path="url(#p7d4566f2c6)" style="fill: none; stroke: #cccccc; stroke-opacity: 0.7; stroke-linecap: round"/>
     </g>
     <g id="text_20">
      <!-- 0.005 -->
      <g style="fill: #262626" transform="translate(480.8625 222.950365) scale(0.11 -0.11)">
       <use xlink:href="#ArialMT-30"/>
       <use xlink:href="#ArialMT-2e" transform="translate(55.615234 0)"/>
       <use xlink:href="#ArialMT-30" transform="translate(83.398438 0)"/>
       <use xlink:href="#ArialMT-30" transform="translate(139.013672 0)"/>
       <use xlink:href="#ArialMT-35" transform="translate(194.628906 0)"/>
      </g>
     </g>
    </g>
    <g id="ytick_12">
     <g id="line2d_26">
      <path d="M 517.886562 173.753614 
L 883.954563 173.753614 
" clip-path="url(#p7d4566f2c6)" style="fill: none; stroke: #cccccc; stroke-opacity: 0.7; stroke-linecap: round"/>
     </g>
     <g id="text_21">
      <!-- 0.010 -->
      <g style="fill: #262626" transform="translate(480.8625 177.690411) scale(0.11 -0.11)">
       <use xlink:href="#ArialMT-30"/>
       <use xlink:href="#ArialMT-2e" transform="translate(55.615234 0)"/>
       <use xlink:href="#ArialMT-30" transform="translate(83.398438 0)"/>
       <use xlink:href="#ArialMT-31" transform="translate(139.013672 0)"/>
       <use xlink:href="#ArialMT-30" transform="translate(194.628906 0)"/>
      </g>
     </g>
    </g>
    <g id="ytick_13">
     <g id="line2d_27">
      <path d="M 517.886562 128.493661 
L 883.954563 128.493661 
" clip-path="url(#p7d4566f2c6)" style="fill: none; stroke: #cccccc; stroke-opacity: 0.7; stroke-linecap: round"/>
     </g>
     <g id="text_22">
      <!-- 0.015 -->
      <g style="fill: #262626" transform="translate(480.8625 132.430458) scale(0.11 -0.11)">
       <use xlink:href="#ArialMT-30"/>
       <use xlink:href="#ArialMT-2e" transform="translate(55.615234 0)"/>
       <use xlink:href="#ArialMT-30" transform="translate(83.398438 0)"/>
       <use xlink:href="#ArialMT-31" transform="translate(139.013672 0)"/>
       <use xlink:href="#ArialMT-35" transform="translate(194.628906 0)"/>
      </g>
     </g>
    </g>
    <g id="ytick_14">
     <g id="line2d_28">
      <path d="M 517.886562 83.233707 
L 883.954563 83.233707 
" clip-path="url(#p7d4566f2c6)" style="fill: none; stroke: #cccccc; stroke-opacity: 0.7; stroke-linecap: round"/>
     </g>
     <g id="text_23">
      <!-- 0.020 -->
      <g style="fill: #262626" transform="translate(480.8625 87.170504) scale(0.11 -0.11)">
       <use xlink:href="#ArialMT-30"/>
       <use xlink:href="#ArialMT-2e" transform="translate(55.615234 0)"/>
       <use xlink:href="#ArialMT-30" transform="translate(83.398438 0)"/>
       <use xlink:href="#ArialMT-32" transform="translate(139.013672 0)"/>
       <use xlink:href="#ArialMT-30" transform="translate(194.628906 0)"/>
      </g>
     </g>
    </g>
    <g id="ytick_15">
     <g id="line2d_29">
      <path d="M 517.886562 37.973754 
L 883.954563 37.973754 
" clip-path="url(#p7d4566f2c6)" style="fill: none; stroke: #cccccc; stroke-opacity: 0.7; stroke-linecap: round"/>
     </g>
     <g id="text_24">
      <!-- 0.025 -->
      <g style="fill: #262626" transform="translate(480.8625 41.910551) scale(0.11 -0.11)">
       <use xlink:href="#ArialMT-30"/>
       <use xlink:href="#ArialMT-2e" transform="translate(55.615234 0)"/>
       <use xlink:href="#ArialMT-30" transform="translate(83.398438 0)"/>
       <use xlink:href="#ArialMT-32" transform="translate(139.013672 0)"/>
       <use xlink:href="#ArialMT-35" transform="translate(194.628906 0)"/>
      </g>
     </g>
    </g>
    <g id="text_25">
     <!-- Bottleneck Distance - H$_1$ -->
     <g style="fill: #262626" transform="translate(473.6825 224.042101) rotate(-90) scale(0.16 -0.16)">
      <defs>
       <path id="DejaVuSans-31" d="M 794 531 
L 1825 531 
L 1825 4091 
L 703 3866 
L 703 4441 
L 1819 4666 
L 2450 4666 
L 2450 531 
L 3481 531 
L 3481 0 
L 794 0 
L 794 531 
z
" transform="scale(0.015625)"/>
      </defs>
      <use xlink:href="#ArialMT-42" transform="translate(0 0.421875)"/>
      <use xlink:href="#ArialMT-6f" transform="translate(66.699219 0.421875)"/>
      <use xlink:href="#ArialMT-74" transform="translate(122.314453 0.421875)"/>
      <use xlink:href="#ArialMT-74" transform="translate(150.097656 0.421875)"/>
      <use xlink:href="#ArialMT-6c" transform="translate(177.880859 0.421875)"/>
      <use xlink:href="#ArialMT-65" transform="translate(200.097656 0.421875)"/>
      <use xlink:href="#ArialMT-6e" transform="translate(255.712891 0.421875)"/>
      <use xlink:href="#ArialMT-65" transform="translate(311.328125 0.421875)"/>
      <use xlink:href="#ArialMT-63" transform="translate(366.943359 0.421875)"/>
      <use xlink:href="#ArialMT-6b" transform="translate(416.943359 0.421875)"/>
      <use xlink:href="#ArialMT-20" transform="translate(466.943359 0.421875)"/>
      <use xlink:href="#ArialMT-44" transform="translate(494.726562 0.421875)"/>
      <use xlink:href="#ArialMT-69" transform="translate(566.943359 0.421875)"/>
      <use xlink:href="#ArialMT-73" transform="translate(589.160156 0.421875)"/>
      <use xlink:href="#ArialMT-74" transform="translate(639.160156 0.421875)"/>
      <use xlink:href="#ArialMT-61" transform="translate(666.943359 0.421875)"/>
      <use xlink:href="#ArialMT-6e" transform="translate(722.558594 0.421875)"/>
      <use xlink:href="#ArialMT-63" transform="translate(778.173828 0.421875)"/>
      <use xlink:href="#ArialMT-65" transform="translate(828.173828 0.421875)"/>
      <use xlink:href="#ArialMT-20" transform="translate(883.789062 0.421875)"/>
      <use xlink:href="#ArialMT-2d" transform="translate(911.572266 0.421875)"/>
      <use xlink:href="#ArialMT-20" transform="translate(944.873047 0.421875)"/>
      <use xlink:href="#ArialMT-48" transform="translate(972.65625 0.421875)"/>
      <use xlink:href="#DejaVuSans-31" transform="translate(1045.830078 -15.984375) scale(0.7)"/>
     </g>
    </g>
   </g>
   <g id="patch_20">
    <path d="M 534.526017 264.273522 
L 558.296666 264.273522 
L 558.296666 145.345423 
L 534.526017 145.345423 
z
" clip-path="url(#p7d4566f2c6)" style="fill: #1b9e77; stroke: #ffffff; stroke-linejoin: miter"/>
   </g>
   <g id="patch_21">
    <path d="M 653.379264 264.273522 
L 677.149913 264.273522 
L 677.149913 122.535788 
L 653.379264 122.535788 
z
" clip-path="url(#p7d4566f2c6)" style="fill: #1b9e77; stroke: #ffffff; stroke-linejoin: miter"/>
   </g>
   <g id="patch_22">
    <path d="M 772.232511 264.273522 
L 796.00316 264.273522 
L 796.00316 63.081756 
L 772.232511 63.081756 
z
" clip-path="url(#p7d4566f2c6)" style="fill: #1b9e77; stroke: #ffffff; stroke-linejoin: miter"/>
   </g>
   <g id="patch_23">
    <path d="M 558.296666 264.273522 
L 582.067316 264.273522 
L 582.067316 204.340325 
L 558.296666 204.340325 
z
" clip-path="url(#p7d4566f2c6)" style="fill: #d95f02; stroke: #ffffff; stroke-linejoin: miter"/>
   </g>
   <g id="patch_24">
    <path d="M 677.149913 264.273522 
L 700.920562 264.273522 
L 700.920562 176.73814 
L 677.149913 176.73814 
z
" clip-path="url(#p7d4566f2c6)" style="fill: #d95f02; stroke: #ffffff; stroke-linejoin: miter"/>
   </g>
   <g id="patch_25">
    <path d="M 796.00316 264.273522 
L 819.773809 264.273522 
L 819.773809 124.78493 
L 796.00316 124.78493 
z
" clip-path="url(#p7d4566f2c6)" style="fill: #d95f02; stroke: #ffffff; stroke-linejoin: miter"/>
   </g>
   <g id="patch_26">
    <path d="M 582.067316 264.273522 
L 605.837965 264.273522 
L 605.837965 218.883699 
L 582.067316 218.883699 
z
" clip-path="url(#p7d4566f2c6)" style="fill: #7570b3; stroke: #ffffff; stroke-linejoin: miter"/>
   </g>
   <g id="patch_27">
    <path d="M 700.920562 264.273522 
L 724.691212 264.273522 
L 724.691212 189.125652 
L 700.920562 189.125652 
z
" clip-path="url(#p7d4566f2c6)" style="fill: #7570b3; stroke: #ffffff; stroke-linejoin: miter"/>
   </g>
   <g id="patch_28">
    <path d="M 819.773809 264.273522 
L 843.544459 264.273522 
L 843.544459 137.263118 
L 819.773809 137.263118 
z
" clip-path="url(#p7d4566f2c6)" style="fill: #7570b3; stroke: #ffffff; stroke-linejoin: miter"/>
   </g>
   <g id="patch_29">
    <path d="M 605.837965 264.273522 
L 629.608614 264.273522 
L 629.608614 228.544491 
L 605.837965 228.544491 
z
" clip-path="url(#p7d4566f2c6)" style="fill: #e7298a; stroke: #ffffff; stroke-linejoin: miter"/>
   </g>
   <g id="patch_30">
    <path d="M 724.691212 264.273522 
L 748.461861 264.273522 
L 748.461861 217.561421 
L 724.691212 217.561421 
z
" clip-path="url(#p7d4566f2c6)" style="fill: #e7298a; stroke: #ffffff; stroke-linejoin: miter"/>
   </g>
   <g id="patch_31">
    <path d="M 843.544459 264.273522 
L 867.315108 264.273522 
L 867.315108 207.519773 
L 843.544459 207.519773 
z
" clip-path="url(#p7d4566f2c6)" style="fill: #e7298a; stroke: #ffffff; stroke-linejoin: miter"/>
   </g>
   <g id="LineCollection_5">
    <path d="M 546.411342 159.842502 
L 546.411342 130.848345 
" clip-path="url(#p7d4566f2c6)" style="fill: none; stroke: #1a1a1a; stroke-width: 1.5"/>
    <path d="M 665.264588 141.942951 
L 665.264588 103.128625 
" clip-path="url(#p7d4566f2c6)" style="fill: none; stroke: #1a1a1a; stroke-width: 1.5"/>
    <path d="M 784.117835 105.226029 
L 784.117835 20.937483 
" clip-path="url(#p7d4566f2c6)" style="fill: none; stroke: #1a1a1a; stroke-width: 1.5"/>
   </g>
   <g id="line2d_30">
    <g clip-path="url(#p7d4566f2c6)">
     <use xlink:href="#m3791645e9f" x="546.411342" y="159.842502" style="fill: #1a1a1a; stroke: #1a1a1a"/>
     <use xlink:href="#m3791645e9f" x="665.264588" y="141.942951" style="fill: #1a1a1a; stroke: #1a1a1a"/>
     <use xlink:href="#m3791645e9f" x="784.117835" y="105.226029" style="fill: #1a1a1a; stroke: #1a1a1a"/>
    </g>
   </g>
   <g id="line2d_31">
    <g clip-path="url(#p7d4566f2c6)">
     <use xlink:href="#m3791645e9f" x="546.411342" y="130.848345" style="fill: #1a1a1a; stroke: #1a1a1a"/>
     <use xlink:href="#m3791645e9f" x="665.264588" y="103.128625" style="fill: #1a1a1a; stroke: #1a1a1a"/>
     <use xlink:href="#m3791645e9f" x="784.117835" y="20.937483" style="fill: #1a1a1a; stroke: #1a1a1a"/>
    </g>
   </g>
   <g id="LineCollection_6">
    <path d="M 570.181991 218.847144 
L 570.181991 189.833505 
" clip-path="url(#p7d4566f2c6)" style="fill: none; stroke: #1a1a1a; stroke-width: 1.5"/>
    <path d="M 689.035238 202.596173 
L 689.035238 150.880107 
" clip-path="url(#p7d4566f2c6)" style="fill: none; stroke: #1a1a1a; stroke-width: 1.5"/>
    <path d="M 807.888485 174.593027 
L 807.888485 74.976833 
" clip-path="url(#p7d4566f2c6)" style="fill: none; stroke: #1a1a1a; stroke-width: 1.5"/>
   </g>
   <g id="line2d_32">
    <g clip-path="url(#p7d4566f2c6)">
     <use xlink:href="#m3791645e9f" x="570.181991" y="218.847144" style="fill: #1a1a1a; stroke: #1a1a1a"/>
     <use xlink:href="#m3791645e9f" x="689.035238" y="202.596173" style="fill: #1a1a1a; stroke: #1a1a1a"/>
     <use xlink:href="#m3791645e9f" x="807.888485" y="174.593027" style="fill: #1a1a1a; stroke: #1a1a1a"/>
    </g>
   </g>
   <g id="line2d_33">
    <g clip-path="url(#p7d4566f2c6)">
     <use xlink:href="#m3791645e9f" x="570.181991" y="189.833505" style="fill: #1a1a1a; stroke: #1a1a1a"/>
     <use xlink:href="#m3791645e9f" x="689.035238" y="150.880107" style="fill: #1a1a1a; stroke: #1a1a1a"/>
     <use xlink:href="#m3791645e9f" x="807.888485" y="74.976833" style="fill: #1a1a1a; stroke: #1a1a1a"/>
    </g>
   </g>
   <g id="LineCollection_7">
    <path d="M 593.95264 230.448309 
L 593.95264 207.319089 
" clip-path="url(#p7d4566f2c6)" style="fill: none; stroke: #1a1a1a; stroke-width: 1.5"/>
    <path d="M 712.805887 210.916983 
L 712.805887 167.334321 
" clip-path="url(#p7d4566f2c6)" style="fill: none; stroke: #1a1a1a; stroke-width: 1.5"/>
    <path d="M 831.659134 185.081944 
L 831.659134 89.444291 
" clip-path="url(#p7d4566f2c6)" style="fill: none; stroke: #1a1a1a; stroke-width: 1.5"/>
   </g>
   <g id="line2d_34">
    <g clip-path="url(#p7d4566f2c6)">
     <use xlink:href="#m3791645e9f" x="593.95264" y="230.448309" style="fill: #1a1a1a; stroke: #1a1a1a"/>
     <use xlink:href="#m3791645e9f" x="712.805887" y="210.916983" style="fill: #1a1a1a; stroke: #1a1a1a"/>
     <use xlink:href="#m3791645e9f" x="831.659134" y="185.081944" style="fill: #1a1a1a; stroke: #1a1a1a"/>
    </g>
   </g>
   <g id="line2d_35">
    <g clip-path="url(#p7d4566f2c6)">
     <use xlink:href="#m3791645e9f" x="593.95264" y="207.319089" style="fill: #1a1a1a; stroke: #1a1a1a"/>
     <use xlink:href="#m3791645e9f" x="712.805887" y="167.334321" style="fill: #1a1a1a; stroke: #1a1a1a"/>
     <use xlink:href="#m3791645e9f" x="831.659134" y="89.444291" style="fill: #1a1a1a; stroke: #1a1a1a"/>
    </g>
   </g>
   <g id="LineCollection_8">
    <path d="M 617.72329 233.977503 
L 617.72329 223.11148 
" clip-path="url(#p7d4566f2c6)" style="fill: none; stroke: #1a1a1a; stroke-width: 1.5"/>
    <path d="M 736.576537 223.224045 
L 736.576537 211.898796 
" clip-path="url(#p7d4566f2c6)" style="fill: none; stroke: #1a1a1a; stroke-width: 1.5"/>
    <path d="M 855.429783 212.460687 
L 855.429783 202.57886 
" clip-path="url(#p7d4566f2c6)" style="fill: none; stroke: #1a1a1a; stroke-width: 1.5"/>
   </g>
   <g id="line2d_36">
    <g clip-path="url(#p7d4566f2c6)">
     <use xlink:href="#m3791645e9f" x="617.72329" y="233.977503" style="fill: #1a1a1a; stroke: #1a1a1a"/>
     <use xlink:href="#m3791645e9f" x="736.576537" y="223.224045" style="fill: #1a1a1a; stroke: #1a1a1a"/>
     <use xlink:href="#m3791645e9f" x="855.429783" y="212.460687" style="fill: #1a1a1a; stroke: #1a1a1a"/>
    </g>
   </g>
   <g id="line2d_37">
    <g clip-path="url(#p7d4566f2c6)">
     <use xlink:href="#m3791645e9f" x="617.72329" y="223.11148" style="fill: #1a1a1a; stroke: #1a1a1a"/>
     <use xlink:href="#m3791645e9f" x="736.576537" y="211.898796" style="fill: #1a1a1a; stroke: #1a1a1a"/>
     <use xlink:href="#m3791645e9f" x="855.429783" y="202.57886" style="fill: #1a1a1a; stroke: #1a1a1a"/>
    </g>
   </g>
   <g id="patch_32">
    <path d="M 517.886562 264.273522 
L 517.886562 8.770681 
" style="fill: none; stroke: #cccccc; stroke-width: 1.25; stroke-linejoin: miter; stroke-linecap: square"/>
   </g>
   <g id="patch_33">
    <path d="M 883.954563 264.273522 
L 883.954563 8.770681 
" style="fill: none; stroke: #cccccc; stroke-width: 1.25; stroke-linejoin: miter; stroke-linecap: square"/>
   </g>
   <g id="patch_34">
    <path d="M 517.886562 264.273522 
L 883.954563 264.273522 
" style="fill: none; stroke: #cccccc; stroke-width: 1.25; stroke-linejoin: miter; stroke-linecap: square"/>
   </g>
   <g id="patch_35">
    <path d="M 517.886562 8.770681 
L 883.954563 8.770681 
" style="fill: none; stroke: #cccccc; stroke-width: 1.25; stroke-linejoin: miter; stroke-linecap: square"/>
   </g>
  </g>
  <g id="axes_3">
   <g id="patch_36">
    <path d="M 972.916562 264.273522 
L 1338.984562 264.273522 
L 1338.984562 8.770681 
L 972.916562 8.770681 
z
" style="fill: #ffffff"/>
   </g>
   <g id="matplotlib.axis_5">
    <g id="xtick_7">
     <g id="line2d_38">
      <path d="M 1037.097316 264.273522 
L 1037.097316 8.770681 
" clip-path="url(#p292b70d7fc)" style="fill: none; stroke: #cccccc; stroke-opacity: 0.7; stroke-linecap: round"/>
     </g>
     <g id="text_26">
      <!-- 5 -->
      <g style="fill: #262626" transform="translate(1033.204659 283.794459) scale(0.14 -0.14)">
       <use xlink:href="#ArialMT-35"/>
      </g>
     </g>
    </g>
    <g id="xtick_8">
     <g id="line2d_39">
      <path d="M 1155.950562 264.273522 
L 1155.950562 8.770681 
" clip-path="url(#p292b70d7fc)" style="fill: none; stroke: #cccccc; stroke-opacity: 0.7; stroke-linecap: round"/>
     </g>
     <g id="text_27">
      <!-- 10 -->
      <g style="fill: #262626" transform="translate(1148.16525 283.794459) scale(0.14 -0.14)">
       <use xlink:href="#ArialMT-31"/>
       <use xlink:href="#ArialMT-30" transform="translate(55.615234 0)"/>
      </g>
     </g>
    </g>
    <g id="xtick_9">
     <g id="line2d_40">
      <path d="M 1274.803809 264.273522 
L 1274.803809 8.770681 
" clip-path="url(#p292b70d7fc)" style="fill: none; stroke: #cccccc; stroke-opacity: 0.7; stroke-linecap: round"/>
     </g>
     <g id="text_28">
      <!-- 25 -->
      <g style="fill: #262626" transform="translate(1267.018497 283.794459) scale(0.14 -0.14)">
       <use xlink:href="#ArialMT-32"/>
       <use xlink:href="#ArialMT-35" transform="translate(55.615234 0)"/>
      </g>
     </g>
    </g>
    <g id="text_29">
     <!-- Missing Rate [%] -->
     <g style="fill: #262626" transform="translate(1095.933062 302.224459) scale(0.16 -0.16)">
      <use xlink:href="#ArialMT-4d"/>
      <use xlink:href="#ArialMT-69" transform="translate(83.300781 0)"/>
      <use xlink:href="#ArialMT-73" transform="translate(105.517578 0)"/>
      <use xlink:href="#ArialMT-73" transform="translate(155.517578 0)"/>
      <use xlink:href="#ArialMT-69" transform="translate(205.517578 0)"/>
      <use xlink:href="#ArialMT-6e" transform="translate(227.734375 0)"/>
      <use xlink:href="#ArialMT-67" transform="translate(283.349609 0)"/>
      <use xlink:href="#ArialMT-20" transform="translate(338.964844 0)"/>
      <use xlink:href="#ArialMT-52" transform="translate(366.748047 0)"/>
      <use xlink:href="#ArialMT-61" transform="translate(438.964844 0)"/>
      <use xlink:href="#ArialMT-74" transform="translate(494.580078 0)"/>
      <use xlink:href="#ArialMT-65" transform="translate(522.363281 0)"/>
      <use xlink:href="#ArialMT-20" transform="translate(577.978516 0)"/>
      <use xlink:href="#ArialMT-5b" transform="translate(605.761719 0)"/>
      <use xlink:href="#ArialMT-25" transform="translate(633.544922 0)"/>
      <use xlink:href="#ArialMT-5d" transform="translate(722.460938 0)"/>
     </g>
    </g>
   </g>
   <g id="matplotlib.axis_6">
    <g id="ytick_16">
     <g id="line2d_41">
      <path d="M 972.916562 264.273522 
L 1338.984562 264.273522 
" clip-path="url(#p292b70d7fc)" style="fill: none; stroke: #cccccc; stroke-opacity: 0.7; stroke-linecap: round"/>
     </g>
     <g id="text_30">
      <!-- 0.0000 -->
      <g style="fill: #262626" transform="translate(929.775469 268.210318) scale(0.11 -0.11)">
       <use xlink:href="#ArialMT-30"/>
       <use xlink:href="#ArialMT-2e" transform="translate(55.615234 0)"/>
       <use xlink:href="#ArialMT-30" transform="translate(83.398438 0)"/>
       <use xlink:href="#ArialMT-30" transform="translate(139.013672 0)"/>
       <use xlink:href="#ArialMT-30" transform="translate(194.628906 0)"/>
       <use xlink:href="#ArialMT-30" transform="translate(250.244141 0)"/>
      </g>
     </g>
    </g>
    <g id="ytick_17">
     <g id="line2d_42">
      <path d="M 972.916562 231.600412 
L 1338.984562 231.600412 
" clip-path="url(#p292b70d7fc)" style="fill: none; stroke: #cccccc; stroke-opacity: 0.7; stroke-linecap: round"/>
     </g>
     <g id="text_31">
      <!-- 0.0025 -->
      <g style="fill: #262626" transform="translate(929.775469 235.537209) scale(0.11 -0.11)">
       <use xlink:href="#ArialMT-30"/>
       <use xlink:href="#ArialMT-2e" transform="translate(55.615234 0)"/>
       <use xlink:href="#ArialMT-30" transform="translate(83.398438 0)"/>
       <use xlink:href="#ArialMT-30" transform="translate(139.013672 0)"/>
       <use xlink:href="#ArialMT-32" transform="translate(194.628906 0)"/>
       <use xlink:href="#ArialMT-35" transform="translate(250.244141 0)"/>
      </g>
     </g>
    </g>
    <g id="ytick_18">
     <g id="line2d_43">
      <path d="M 972.916562 198.927302 
L 1338.984562 198.927302 
" clip-path="url(#p292b70d7fc)" style="fill: none; stroke: #cccccc; stroke-opacity: 0.7; stroke-linecap: round"/>
     </g>
     <g id="text_32">
      <!-- 0.0050 -->
      <g style="fill: #262626" transform="translate(929.775469 202.864099) scale(0.11 -0.11)">
       <use xlink:href="#ArialMT-30"/>
       <use xlink:href="#ArialMT-2e" transform="translate(55.615234 0)"/>
       <use xlink:href="#ArialMT-30" transform="translate(83.398438 0)"/>
       <use xlink:href="#ArialMT-30" transform="translate(139.013672 0)"/>
       <use xlink:href="#ArialMT-35" transform="translate(194.628906 0)"/>
       <use xlink:href="#ArialMT-30" transform="translate(250.244141 0)"/>
      </g>
     </g>
    </g>
    <g id="ytick_19">
     <g id="line2d_44">
      <path d="M 972.916562 166.254192 
L 1338.984562 166.254192 
" clip-path="url(#p292b70d7fc)" style="fill: none; stroke: #cccccc; stroke-opacity: 0.7; stroke-linecap: round"/>
     </g>
     <g id="text_33">
      <!-- 0.0075 -->
      <g style="fill: #262626" transform="translate(929.775469 170.190989) scale(0.11 -0.11)">
       <defs>
        <path id="ArialMT-37" d="M 303 3981 
L 303 4522 
L 3269 4522 
L 3269 4084 
Q 2831 3619 2401 2847 
Q 1972 2075 1738 1259 
Q 1569 684 1522 0 
L 944 0 
Q 953 541 1156 1306 
Q 1359 2072 1739 2783 
Q 2119 3494 2547 3981 
L 303 3981 
z
" transform="scale(0.015625)"/>
       </defs>
       <use xlink:href="#ArialMT-30"/>
       <use xlink:href="#ArialMT-2e" transform="translate(55.615234 0)"/>
       <use xlink:href="#ArialMT-30" transform="translate(83.398438 0)"/>
       <use xlink:href="#ArialMT-30" transform="translate(139.013672 0)"/>
       <use xlink:href="#ArialMT-37" transform="translate(194.628906 0)"/>
       <use xlink:href="#ArialMT-35" transform="translate(250.244141 0)"/>
      </g>
     </g>
    </g>
    <g id="ytick_20">
     <g id="line2d_45">
      <path d="M 972.916562 133.581082 
L 1338.984562 133.581082 
" clip-path="url(#p292b70d7fc)" style="fill: none; stroke: #cccccc; stroke-opacity: 0.7; stroke-linecap: round"/>
     </g>
     <g id="text_34">
      <!-- 0.0100 -->
      <g style="fill: #262626" transform="translate(929.775469 137.517879) scale(0.11 -0.11)">
       <use xlink:href="#ArialMT-30"/>
       <use xlink:href="#ArialMT-2e" transform="translate(55.615234 0)"/>
       <use xlink:href="#ArialMT-30" transform="translate(83.398438 0)"/>
       <use xlink:href="#ArialMT-31" transform="translate(139.013672 0)"/>
       <use xlink:href="#ArialMT-30" transform="translate(194.628906 0)"/>
       <use xlink:href="#ArialMT-30" transform="translate(250.244141 0)"/>
      </g>
     </g>
    </g>
    <g id="ytick_21">
     <g id="line2d_46">
      <path d="M 972.916562 100.907973 
L 1338.984562 100.907973 
" clip-path="url(#p292b70d7fc)" style="fill: none; stroke: #cccccc; stroke-opacity: 0.7; stroke-linecap: round"/>
     </g>
     <g id="text_35">
      <!-- 0.0125 -->
      <g style="fill: #262626" transform="translate(929.775469 104.84477) scale(0.11 -0.11)">
       <use xlink:href="#ArialMT-30"/>
       <use xlink:href="#ArialMT-2e" transform="translate(55.615234 0)"/>
       <use xlink:href="#ArialMT-30" transform="translate(83.398438 0)"/>
       <use xlink:href="#ArialMT-31" transform="translate(139.013672 0)"/>
       <use xlink:href="#ArialMT-32" transform="translate(194.628906 0)"/>
       <use xlink:href="#ArialMT-35" transform="translate(250.244141 0)"/>
      </g>
     </g>
    </g>
    <g id="ytick_22">
     <g id="line2d_47">
      <path d="M 972.916562 68.234863 
L 1338.984562 68.234863 
" clip-path="url(#p292b70d7fc)" style="fill: none; stroke: #cccccc; stroke-opacity: 0.7; stroke-linecap: round"/>
     </g>
     <g id="text_36">
      <!-- 0.0150 -->
      <g style="fill: #262626" transform="translate(929.775469 72.17166) scale(0.11 -0.11)">
       <use xlink:href="#ArialMT-30"/>
       <use xlink:href="#ArialMT-2e" transform="translate(55.615234 0)"/>
       <use xlink:href="#ArialMT-30" transform="translate(83.398438 0)"/>
       <use xlink:href="#ArialMT-31" transform="translate(139.013672 0)"/>
       <use xlink:href="#ArialMT-35" transform="translate(194.628906 0)"/>
       <use xlink:href="#ArialMT-30" transform="translate(250.244141 0)"/>
      </g>
     </g>
    </g>
    <g id="ytick_23">
     <g id="line2d_48">
      <path d="M 972.916562 35.561753 
L 1338.984562 35.561753 
" clip-path="url(#p292b70d7fc)" style="fill: none; stroke: #cccccc; stroke-opacity: 0.7; stroke-linecap: round"/>
     </g>
     <g id="text_37">
      <!-- 0.0175 -->
      <g style="fill: #262626" transform="translate(929.775469 39.49855) scale(0.11 -0.11)">
       <use xlink:href="#ArialMT-30"/>
       <use xlink:href="#ArialMT-2e" transform="translate(55.615234 0)"/>
       <use xlink:href="#ArialMT-30" transform="translate(83.398438 0)"/>
       <use xlink:href="#ArialMT-31" transform="translate(139.013672 0)"/>
       <use xlink:href="#ArialMT-37" transform="translate(194.628906 0)"/>
       <use xlink:href="#ArialMT-35" transform="translate(250.244141 0)"/>
      </g>
     </g>
    </g>
    <g id="text_38">
     <!-- Bottleneck Distance - H$_2$ -->
     <g style="fill: #262626" transform="translate(922.595469 224.042101) rotate(-90) scale(0.16 -0.16)">
      <defs>
       <path id="DejaVuSans-32" d="M 1228 531 
L 3431 531 
L 3431 0 
L 469 0 
L 469 531 
Q 828 903 1448 1529 
Q 2069 2156 2228 2338 
Q 2531 2678 2651 2914 
Q 2772 3150 2772 3378 
Q 2772 3750 2511 3984 
Q 2250 4219 1831 4219 
Q 1534 4219 1204 4116 
Q 875 4013 500 3803 
L 500 4441 
Q 881 4594 1212 4672 
Q 1544 4750 1819 4750 
Q 2544 4750 2975 4387 
Q 3406 4025 3406 3419 
Q 3406 3131 3298 2873 
Q 3191 2616 2906 2266 
Q 2828 2175 2409 1742 
Q 1991 1309 1228 531 
z
" transform="scale(0.015625)"/>
      </defs>
      <use xlink:href="#ArialMT-42" transform="translate(0 0.421875)"/>
      <use xlink:href="#ArialMT-6f" transform="translate(66.699219 0.421875)"/>
      <use xlink:href="#ArialMT-74" transform="translate(122.314453 0.421875)"/>
      <use xlink:href="#ArialMT-74" transform="translate(150.097656 0.421875)"/>
      <use xlink:href="#ArialMT-6c" transform="translate(177.880859 0.421875)"/>
      <use xlink:href="#ArialMT-65" transform="translate(200.097656 0.421875)"/>
      <use xlink:href="#ArialMT-6e" transform="translate(255.712891 0.421875)"/>
      <use xlink:href="#ArialMT-65" transform="translate(311.328125 0.421875)"/>
      <use xlink:href="#ArialMT-63" transform="translate(366.943359 0.421875)"/>
      <use xlink:href="#ArialMT-6b" transform="translate(416.943359 0.421875)"/>
      <use xlink:href="#ArialMT-20" transform="translate(466.943359 0.421875)"/>
      <use xlink:href="#ArialMT-44" transform="translate(494.726562 0.421875)"/>
      <use xlink:href="#ArialMT-69" transform="translate(566.943359 0.421875)"/>
      <use xlink:href="#ArialMT-73" transform="translate(589.160156 0.421875)"/>
      <use xlink:href="#ArialMT-74" transform="translate(639.160156 0.421875)"/>
      <use xlink:href="#ArialMT-61" transform="translate(666.943359 0.421875)"/>
      <use xlink:href="#ArialMT-6e" transform="translate(722.558594 0.421875)"/>
      <use xlink:href="#ArialMT-63" transform="translate(778.173828 0.421875)"/>
      <use xlink:href="#ArialMT-65" transform="translate(828.173828 0.421875)"/>
      <use xlink:href="#ArialMT-20" transform="translate(883.789062 0.421875)"/>
      <use xlink:href="#ArialMT-2d" transform="translate(911.572266 0.421875)"/>
      <use xlink:href="#ArialMT-20" transform="translate(944.873047 0.421875)"/>
      <use xlink:href="#ArialMT-48" transform="translate(972.65625 0.421875)"/>
      <use xlink:href="#DejaVuSans-32" transform="translate(1045.830078 -15.984375) scale(0.7)"/>
     </g>
    </g>
   </g>
   <g id="patch_37">
    <path d="M 989.556017 264.273522 
L 1013.326666 264.273522 
L 1013.326666 168.398783 
L 989.556017 168.398783 
z
" clip-path="url(#p292b70d7fc)" style="fill: #1b9e77; stroke: #ffffff; stroke-linejoin: miter"/>
   </g>
   <g id="patch_38">
    <path d="M 1108.409264 264.273522 
L 1132.179913 264.273522 
L 1132.179913 147.98049 
L 1108.409264 147.98049 
z
" clip-path="url(#p292b70d7fc)" style="fill: #1b9e77; stroke: #ffffff; stroke-linejoin: miter"/>
   </g>
   <g id="patch_39">
    <path d="M 1227.262511 264.273522 
L 1251.03316 264.273522 
L 1251.03316 88.705658 
L 1227.262511 88.705658 
z
" clip-path="url(#p292b70d7fc)" style="fill: #1b9e77; stroke: #ffffff; stroke-linejoin: miter"/>
   </g>
   <g id="patch_40">
    <path d="M 1013.326666 264.273522 
L 1037.097316 264.273522 
L 1037.097316 228.615824 
L 1013.326666 228.615824 
z
" clip-path="url(#p292b70d7fc)" style="fill: #d95f02; stroke: #ffffff; stroke-linejoin: miter"/>
   </g>
   <g id="patch_41">
    <path d="M 1132.179913 264.273522 
L 1155.950562 264.273522 
L 1155.950562 212.175634 
L 1132.179913 212.175634 
z
" clip-path="url(#p292b70d7fc)" style="fill: #d95f02; stroke: #ffffff; stroke-linejoin: miter"/>
   </g>
   <g id="patch_42">
    <path d="M 1251.03316 264.273522 
L 1274.803809 264.273522 
L 1274.803809 170.900526 
L 1251.03316 170.900526 
z
" clip-path="url(#p292b70d7fc)" style="fill: #d95f02; stroke: #ffffff; stroke-linejoin: miter"/>
   </g>
   <g id="patch_43">
    <path d="M 1037.097316 264.273522 
L 1060.867965 264.273522 
L 1060.867965 233.823923 
L 1037.097316 233.823923 
z
" clip-path="url(#p292b70d7fc)" style="fill: #7570b3; stroke: #ffffff; stroke-linejoin: miter"/>
   </g>
   <g id="patch_44">
    <path d="M 1155.950562 264.273522 
L 1179.721212 264.273522 
L 1179.721212 218.766589 
L 1155.950562 218.766589 
z
" clip-path="url(#p292b70d7fc)" style="fill: #7570b3; stroke: #ffffff; stroke-linejoin: miter"/>
   </g>
   <g id="patch_45">
    <path d="M 1274.803809 264.273522 
L 1298.574459 264.273522 
L 1298.574459 178.299484 
L 1274.803809 178.299484 
z
" clip-path="url(#p292b70d7fc)" style="fill: #7570b3; stroke: #ffffff; stroke-linejoin: miter"/>
   </g>
   <g id="patch_46">
    <path d="M 1060.867965 264.273522 
L 1084.638614 264.273522 
L 1084.638614 250.260346 
L 1060.867965 250.260346 
z
" clip-path="url(#p292b70d7fc)" style="fill: #e7298a; stroke: #ffffff; stroke-linejoin: miter"/>
   </g>
   <g id="patch_47">
    <path d="M 1179.721212 264.273522 
L 1203.491861 264.273522 
L 1203.491861 245.745451 
L 1179.721212 245.745451 
z
" clip-path="url(#p292b70d7fc)" style="fill: #e7298a; stroke: #ffffff; stroke-linejoin: miter"/>
   </g>
   <g id="patch_48">
    <path d="M 1298.574459 264.273522 
L 1322.345108 264.273522 
L 1322.345108 239.01032 
L 1298.574459 239.01032 
z
" clip-path="url(#p292b70d7fc)" style="fill: #e7298a; stroke: #ffffff; stroke-linejoin: miter"/>
   </g>
   <g id="LineCollection_9">
    <path d="M 1001.441342 190.49686 
L 1001.441342 146.300705 
" clip-path="url(#p292b70d7fc)" style="fill: none; stroke: #1a1a1a; stroke-width: 1.5"/>
    <path d="M 1120.294588 177.666978 
L 1120.294588 118.294002 
" clip-path="url(#p292b70d7fc)" style="fill: none; stroke: #1a1a1a; stroke-width: 1.5"/>
    <path d="M 1239.147835 156.473832 
L 1239.147835 20.937483 
" clip-path="url(#p292b70d7fc)" style="fill: none; stroke: #1a1a1a; stroke-width: 1.5"/>
   </g>
   <g id="line2d_49">
    <g clip-path="url(#p292b70d7fc)">
     <use xlink:href="#m3791645e9f" x="1001.441342" y="190.49686" style="fill: #1a1a1a; stroke: #1a1a1a"/>
     <use xlink:href="#m3791645e9f" x="1120.294588" y="177.666978" style="fill: #1a1a1a; stroke: #1a1a1a"/>
     <use xlink:href="#m3791645e9f" x="1239.147835" y="156.473832" style="fill: #1a1a1a; stroke: #1a1a1a"/>
    </g>
   </g>
   <g id="line2d_50">
    <g clip-path="url(#p292b70d7fc)">
     <use xlink:href="#m3791645e9f" x="1001.441342" y="146.300705" style="fill: #1a1a1a; stroke: #1a1a1a"/>
     <use xlink:href="#m3791645e9f" x="1120.294588" y="118.294002" style="fill: #1a1a1a; stroke: #1a1a1a"/>
     <use xlink:href="#m3791645e9f" x="1239.147835" y="20.937483" style="fill: #1a1a1a; stroke: #1a1a1a"/>
    </g>
   </g>
   <g id="LineCollection_10">
    <path d="M 1025.211991 240.05807 
L 1025.211991 217.173579 
" clip-path="url(#p292b70d7fc)" style="fill: none; stroke: #1a1a1a; stroke-width: 1.5"/>
    <path d="M 1144.065238 234.417522 
L 1144.065238 189.933745 
" clip-path="url(#p292b70d7fc)" style="fill: none; stroke: #1a1a1a; stroke-width: 1.5"/>
    <path d="M 1262.918485 228.392896 
L 1262.918485 113.408155 
" clip-path="url(#p292b70d7fc)" style="fill: none; stroke: #1a1a1a; stroke-width: 1.5"/>
   </g>
   <g id="line2d_51">
    <g clip-path="url(#p292b70d7fc)">
     <use xlink:href="#m3791645e9f" x="1025.211991" y="240.05807" style="fill: #1a1a1a; stroke: #1a1a1a"/>
     <use xlink:href="#m3791645e9f" x="1144.065238" y="234.417522" style="fill: #1a1a1a; stroke: #1a1a1a"/>
     <use xlink:href="#m3791645e9f" x="1262.918485" y="228.392896" style="fill: #1a1a1a; stroke: #1a1a1a"/>
    </g>
   </g>
   <g id="line2d_52">
    <g clip-path="url(#p292b70d7fc)">
     <use xlink:href="#m3791645e9f" x="1025.211991" y="217.173579" style="fill: #1a1a1a; stroke: #1a1a1a"/>
     <use xlink:href="#m3791645e9f" x="1144.065238" y="189.933745" style="fill: #1a1a1a; stroke: #1a1a1a"/>
     <use xlink:href="#m3791645e9f" x="1262.918485" y="113.408155" style="fill: #1a1a1a; stroke: #1a1a1a"/>
    </g>
   </g>
   <g id="LineCollection_11">
    <path d="M 1048.98264 244.412615 
L 1048.98264 223.235232 
" clip-path="url(#p292b70d7fc)" style="fill: none; stroke: #1a1a1a; stroke-width: 1.5"/>
    <path d="M 1167.835887 238.202854 
L 1167.835887 199.330324 
" clip-path="url(#p292b70d7fc)" style="fill: none; stroke: #1a1a1a; stroke-width: 1.5"/>
    <path d="M 1286.689134 235.85768 
L 1286.689134 120.741288 
" clip-path="url(#p292b70d7fc)" style="fill: none; stroke: #1a1a1a; stroke-width: 1.5"/>
   </g>
   <g id="line2d_53">
    <g clip-path="url(#p292b70d7fc)">
     <use xlink:href="#m3791645e9f" x="1048.98264" y="244.412615" style="fill: #1a1a1a; stroke: #1a1a1a"/>
     <use xlink:href="#m3791645e9f" x="1167.835887" y="238.202854" style="fill: #1a1a1a; stroke: #1a1a1a"/>
     <use xlink:href="#m3791645e9f" x="1286.689134" y="235.85768" style="fill: #1a1a1a; stroke: #1a1a1a"/>
    </g>
   </g>
   <g id="line2d_54">
    <g clip-path="url(#p292b70d7fc)">
     <use xlink:href="#m3791645e9f" x="1048.98264" y="223.235232" style="fill: #1a1a1a; stroke: #1a1a1a"/>
     <use xlink:href="#m3791645e9f" x="1167.835887" y="199.330324" style="fill: #1a1a1a; stroke: #1a1a1a"/>
     <use xlink:href="#m3791645e9f" x="1286.689134" y="120.741288" style="fill: #1a1a1a; stroke: #1a1a1a"/>
    </g>
   </g>
   <g id="LineCollection_12">
    <path d="M 1072.75329 251.813599 
L 1072.75329 248.707092 
" clip-path="url(#p292b70d7fc)" style="fill: none; stroke: #1a1a1a; stroke-width: 1.5"/>
    <path d="M 1191.606537 248.606573 
L 1191.606537 242.884328 
" clip-path="url(#p292b70d7fc)" style="fill: none; stroke: #1a1a1a; stroke-width: 1.5"/>
    <path d="M 1310.459783 241.894421 
L 1310.459783 236.126219 
" clip-path="url(#p292b70d7fc)" style="fill: none; stroke: #1a1a1a; stroke-width: 1.5"/>
   </g>
   <g id="line2d_55">
    <g clip-path="url(#p292b70d7fc)">
     <use xlink:href="#m3791645e9f" x="1072.75329" y="251.813599" style="fill: #1a1a1a; stroke: #1a1a1a"/>
     <use xlink:href="#m3791645e9f" x="1191.606537" y="248.606573" style="fill: #1a1a1a; stroke: #1a1a1a"/>
     <use xlink:href="#m3791645e9f" x="1310.459783" y="241.894421" style="fill: #1a1a1a; stroke: #1a1a1a"/>
    </g>
   </g>
   <g id="line2d_56">
    <g clip-path="url(#p292b70d7fc)">
     <use xlink:href="#m3791645e9f" x="1072.75329" y="248.707092" style="fill: #1a1a1a; stroke: #1a1a1a"/>
     <use xlink:href="#m3791645e9f" x="1191.606537" y="242.884328" style="fill: #1a1a1a; stroke: #1a1a1a"/>
     <use xlink:href="#m3791645e9f" x="1310.459783" y="236.126219" style="fill: #1a1a1a; stroke: #1a1a1a"/>
    </g>
   </g>
   <g id="patch_49">
    <path d="M 972.916562 264.273522 
L 972.916562 8.770681 
" style="fill: none; stroke: #cccccc; stroke-width: 1.25; stroke-linejoin: miter; stroke-linecap: square"/>
   </g>
   <g id="patch_50">
    <path d="M 1338.984562 264.273522 
L 1338.984562 8.770681 
" style="fill: none; stroke: #cccccc; stroke-width: 1.25; stroke-linejoin: miter; stroke-linecap: square"/>
   </g>
   <g id="patch_51">
    <path d="M 972.916562 264.273522 
L 1338.984562 264.273522 
" style="fill: none; stroke: #cccccc; stroke-width: 1.25; stroke-linejoin: miter; stroke-linecap: square"/>
   </g>
   <g id="patch_52">
    <path d="M 972.916562 8.770681 
L 1338.984562 8.770681 
" style="fill: none; stroke: #cccccc; stroke-width: 1.25; stroke-linejoin: miter; stroke-linecap: square"/>
   </g>
  </g>
  <g id="legend_1">
   <g id="patch_53">
    <path d="M 184.266906 341.941022 
L 1158.822219 341.941022 
Q 1161.622219 341.941022 1161.622219 339.141022 
L 1161.622219 318.141022 
Q 1161.622219 315.341022 1158.822219 315.341022 
L 184.266906 315.341022 
Q 181.466906 315.341022 181.466906 318.141022 
L 181.466906 339.141022 
Q 181.466906 341.941022 184.266906 341.941022 
z
" style="fill: #ffffff; opacity: 0.8; stroke: #cccccc; stroke-linejoin: miter"/>
   </g>
   <g id="patch_54">
    <path d="M 187.066906 333.261022 
L 215.066906 333.261022 
L 215.066906 323.461022 
L 187.066906 323.461022 
z
" style="fill: #1b9e77; stroke: #ffffff; stroke-linejoin: miter"/>
   </g>
   <g id="text_39">
    <!-- Vietoris-Rips Filtration -->
    <g style="fill: #262626" transform="translate(226.266906 333.261022) scale(0.14 -0.14)">
     <defs>
      <path id="ArialMT-56" d="M 1803 0 
L 28 4581 
L 684 4581 
L 1875 1253 
Q 2019 853 2116 503 
Q 2222 878 2363 1253 
L 3600 4581 
L 4219 4581 
L 2425 0 
L 1803 0 
z
" transform="scale(0.015625)"/>
      <path id="ArialMT-72" d="M 416 0 
L 416 3319 
L 922 3319 
L 922 2816 
Q 1116 3169 1280 3281 
Q 1444 3394 1641 3394 
Q 1925 3394 2219 3213 
L 2025 2691 
Q 1819 2813 1613 2813 
Q 1428 2813 1281 2702 
Q 1134 2591 1072 2394 
Q 978 2094 978 1738 
L 978 0 
L 416 0 
z
" transform="scale(0.015625)"/>
      <path id="ArialMT-70" d="M 422 -1272 
L 422 3319 
L 934 3319 
L 934 2888 
Q 1116 3141 1344 3267 
Q 1572 3394 1897 3394 
Q 2322 3394 2647 3175 
Q 2972 2956 3137 2557 
Q 3303 2159 3303 1684 
Q 3303 1175 3120 767 
Q 2938 359 2589 142 
Q 2241 -75 1856 -75 
Q 1575 -75 1351 44 
Q 1128 163 984 344 
L 984 -1272 
L 422 -1272 
z
M 931 1641 
Q 931 1000 1190 694 
Q 1450 388 1819 388 
Q 2194 388 2461 705 
Q 2728 1022 2728 1688 
Q 2728 2322 2467 2637 
Q 2206 2953 1844 2953 
Q 1484 2953 1207 2617 
Q 931 2281 931 1641 
z
" transform="scale(0.015625)"/>
      <path id="ArialMT-46" d="M 525 0 
L 525 4581 
L 3616 4581 
L 3616 4041 
L 1131 4041 
L 1131 2622 
L 3281 2622 
L 3281 2081 
L 1131 2081 
L 1131 0 
L 525 0 
z
" transform="scale(0.015625)"/>
     </defs>
     <use xlink:href="#ArialMT-56"/>
     <use xlink:href="#ArialMT-69" transform="translate(64.949219 0)"/>
     <use xlink:href="#ArialMT-65" transform="translate(87.166016 0)"/>
     <use xlink:href="#ArialMT-74" transform="translate(142.78125 0)"/>
     <use xlink:href="#ArialMT-6f" transform="translate(170.564453 0)"/>
     <use xlink:href="#ArialMT-72" transform="translate(226.179688 0)"/>
     <use xlink:href="#ArialMT-69" transform="translate(259.480469 0)"/>
     <use xlink:href="#ArialMT-73" transform="translate(281.697266 0)"/>
     <use xlink:href="#ArialMT-2d" transform="translate(331.697266 0)"/>
     <use xlink:href="#ArialMT-52" transform="translate(364.998047 0)"/>
     <use xlink:href="#ArialMT-69" transform="translate(437.214844 0)"/>
     <use xlink:href="#ArialMT-70" transform="translate(459.431641 0)"/>
     <use xlink:href="#ArialMT-73" transform="translate(515.046875 0)"/>
     <use xlink:href="#ArialMT-20" transform="translate(565.046875 0)"/>
     <use xlink:href="#ArialMT-46" transform="translate(592.830078 0)"/>
     <use xlink:href="#ArialMT-69" transform="translate(653.914062 0)"/>
     <use xlink:href="#ArialMT-6c" transform="translate(676.130859 0)"/>
     <use xlink:href="#ArialMT-74" transform="translate(698.347656 0)"/>
     <use xlink:href="#ArialMT-72" transform="translate(726.130859 0)"/>
     <use xlink:href="#ArialMT-61" transform="translate(759.431641 0)"/>
     <use xlink:href="#ArialMT-74" transform="translate(815.046875 0)"/>
     <use xlink:href="#ArialMT-69" transform="translate(842.830078 0)"/>
     <use xlink:href="#ArialMT-6f" transform="translate(865.046875 0)"/>
     <use xlink:href="#ArialMT-6e" transform="translate(920.662109 0)"/>
    </g>
   </g>
   <g id="patch_55">
    <path d="M 390.939719 333.261022 
L 418.939719 333.261022 
L 418.939719 323.461022 
L 390.939719 323.461022 
z
" style="fill: #d95f02; stroke: #ffffff; stroke-linejoin: miter"/>
   </g>
   <g id="text_40">
    <!-- Distance To a Measure ($k = \sqrt{n}$) -->
    <g style="fill: #262626" transform="translate(430.139719 333.261022) scale(0.14 -0.14)">
     <defs>
      <path id="ArialMT-54" d="M 1659 0 
L 1659 4041 
L 150 4041 
L 150 4581 
L 3781 4581 
L 3781 4041 
L 2266 4041 
L 2266 0 
L 1659 0 
z
" transform="scale(0.015625)"/>
      <path id="ArialMT-75" d="M 2597 0 
L 2597 488 
Q 2209 -75 1544 -75 
Q 1250 -75 995 37 
Q 741 150 617 320 
Q 494 491 444 738 
Q 409 903 409 1263 
L 409 3319 
L 972 3319 
L 972 1478 
Q 972 1038 1006 884 
Q 1059 663 1231 536 
Q 1403 409 1656 409 
Q 1909 409 2131 539 
Q 2353 669 2445 892 
Q 2538 1116 2538 1541 
L 2538 3319 
L 3100 3319 
L 3100 0 
L 2597 0 
z
" transform="scale(0.015625)"/>
      <path id="ArialMT-28" d="M 1497 -1347 
Q 1031 -759 709 28 
Q 388 816 388 1659 
Q 388 2403 628 3084 
Q 909 3875 1497 4659 
L 1900 4659 
Q 1522 4009 1400 3731 
Q 1209 3300 1100 2831 
Q 966 2247 966 1656 
Q 966 153 1900 -1347 
L 1497 -1347 
z
" transform="scale(0.015625)"/>
      <path id="DejaVuSans-Oblique-6b" d="M 1172 4863 
L 1747 4863 
L 1197 2028 
L 3169 3500 
L 3916 3500 
L 1716 1825 
L 3322 0 
L 2625 0 
L 1131 1709 
L 800 0 
L 225 0 
L 1172 4863 
z
" transform="scale(0.015625)"/>
      <path id="DejaVuSans-3d" d="M 678 2906 
L 4684 2906 
L 4684 2381 
L 678 2381 
L 678 2906 
z
M 678 1631 
L 4684 1631 
L 4684 1100 
L 678 1100 
L 678 1631 
z
" transform="scale(0.015625)"/>
      <path id="DejaVuSans-221a" d="M 3488 5191 
L 4078 5191 
L 4078 4891 
L 3719 4891 
L 1863 -128 
L 1656 -128 
L 659 2631 
L 269 2491 
L 191 2741 
L 1075 3047 
L 1875 831 
L 3488 5191 
z
" transform="scale(0.015625)"/>
      <path id="DejaVuSans-Oblique-6e" d="M 3566 2113 
L 3156 0 
L 2578 0 
L 2988 2091 
Q 3016 2238 3031 2350 
Q 3047 2463 3047 2528 
Q 3047 2791 2881 2937 
Q 2716 3084 2419 3084 
Q 1956 3084 1622 2776 
Q 1288 2469 1184 1941 
L 800 0 
L 225 0 
L 903 3500 
L 1478 3500 
L 1363 2950 
Q 1603 3253 1940 3418 
Q 2278 3584 2650 3584 
Q 3113 3584 3367 3334 
Q 3622 3084 3622 2631 
Q 3622 2519 3608 2391 
Q 3594 2263 3566 2113 
z
" transform="scale(0.015625)"/>
      <path id="ArialMT-29" d="M 791 -1347 
L 388 -1347 
Q 1322 153 1322 1656 
Q 1322 2244 1188 2822 
Q 1081 3291 891 3722 
Q 769 4003 388 4659 
L 791 4659 
Q 1378 3875 1659 3084 
Q 1900 2403 1900 1659 
Q 1900 816 1576 28 
Q 1253 -759 791 -1347 
z
" transform="scale(0.015625)"/>
     </defs>
     <use xlink:href="#ArialMT-44" transform="translate(0 0.890625)"/>
     <use xlink:href="#ArialMT-69" transform="translate(72.216797 0.890625)"/>
     <use xlink:href="#ArialMT-73" transform="translate(94.433594 0.890625)"/>
     <use xlink:href="#ArialMT-74" transform="translate(144.433594 0.890625)"/>
     <use xlink:href="#ArialMT-61" transform="translate(172.216797 0.890625)"/>
     <use xlink:href="#ArialMT-6e" transform="translate(227.832031 0.890625)"/>
     <use xlink:href="#ArialMT-63" transform="translate(283.447266 0.890625)"/>
     <use xlink:href="#ArialMT-65" transform="translate(333.447266 0.890625)"/>
     <use xlink:href="#ArialMT-20" transform="translate(389.0625 0.890625)"/>
     <use xlink:href="#ArialMT-54" transform="translate(416.845703 0.890625)"/>
     <use xlink:href="#ArialMT-6f" transform="translate(477.929688 0.890625)"/>
     <use xlink:href="#ArialMT-20" transform="translate(533.544922 0.890625)"/>
     <use xlink:href="#ArialMT-61" transform="translate(561.328125 0.890625)"/>
     <use xlink:href="#ArialMT-20" transform="translate(616.943359 0.890625)"/>
     <use xlink:href="#ArialMT-4d" transform="translate(644.726562 0.890625)"/>
     <use xlink:href="#ArialMT-65" transform="translate(728.027344 0.890625)"/>
     <use xlink:href="#ArialMT-61" transform="translate(783.642578 0.890625)"/>
     <use xlink:href="#ArialMT-73" transform="translate(839.257812 0.890625)"/>
     <use xlink:href="#ArialMT-75" transform="translate(889.257812 0.890625)"/>
     <use xlink:href="#ArialMT-72" transform="translate(944.873047 0.890625)"/>
     <use xlink:href="#ArialMT-65" transform="translate(978.173828 0.890625)"/>
     <use xlink:href="#ArialMT-20" transform="translate(1033.789062 0.890625)"/>
     <use xlink:href="#ArialMT-28" transform="translate(1061.572266 0.890625)"/>
     <use xlink:href="#DejaVuSans-Oblique-6b" transform="translate(1094.873047 0.890625)"/>
     <use xlink:href="#DejaVuSans-3d" transform="translate(1172.265625 0.890625)"/>
     <use xlink:href="#DejaVuSans-221a" transform="translate(1275.537109 0.890625)"/>
     <use xlink:href="#DejaVuSans-Oblique-6e" transform="translate(1351.757812 0.75)"/>
     <use xlink:href="#ArialMT-29" transform="translate(1427.636719 0.890625)"/>
     <path d="M 1339.257812 75.5 
L 1339.257812 81.75 
L 1427.636719 81.75 
L 1427.636719 75.5 
L 1339.257812 75.5 
z
"/>
    </g>
   </g>
   <g id="patch_56">
    <path d="M 662.679719 333.261022 
L 690.679719 333.261022 
L 690.679719 323.461022 
L 662.679719 323.461022 
z
" style="fill: #7570b3; stroke: #ffffff; stroke-linejoin: miter"/>
   </g>
   <g id="text_41">
    <!-- Distance To a Measure ($k = \lceil m n \rceil,\, m = 0.05$) -->
    <g style="fill: #262626" transform="translate(701.879719 333.261022) scale(0.14 -0.14)">
     <defs>
      <path id="DejaVuSans-2308" d="M 550 4863 
L 1875 4863 
L 1875 4416 
L 1125 4416 
L 1125 -844 
L 550 -844 
L 550 4863 
z
" transform="scale(0.015625)"/>
      <path id="DejaVuSans-Oblique-6d" d="M 5747 2113 
L 5338 0 
L 4763 0 
L 5166 2094 
Q 5191 2228 5203 2325 
Q 5216 2422 5216 2491 
Q 5216 2772 5059 2928 
Q 4903 3084 4622 3084 
Q 4203 3084 3875 2770 
Q 3547 2456 3450 1953 
L 3066 0 
L 2491 0 
L 2900 2094 
Q 2925 2209 2937 2307 
Q 2950 2406 2950 2484 
Q 2950 2769 2794 2926 
Q 2638 3084 2363 3084 
Q 1938 3084 1609 2770 
Q 1281 2456 1184 1953 
L 800 0 
L 225 0 
L 909 3500 
L 1484 3500 
L 1375 2956 
Q 1609 3263 1923 3423 
Q 2238 3584 2597 3584 
Q 2978 3584 3223 3384 
Q 3469 3184 3519 2828 
Q 3781 3197 4126 3390 
Q 4472 3584 4856 3584 
Q 5306 3584 5551 3325 
Q 5797 3066 5797 2591 
Q 5797 2488 5784 2364 
Q 5772 2241 5747 2113 
z
" transform="scale(0.015625)"/>
      <path id="DejaVuSans-2309" d="M 1947 4863 
L 1947 -844 
L 1372 -844 
L 1372 4416 
L 622 4416 
L 622 4863 
L 1947 4863 
z
" transform="scale(0.015625)"/>
      <path id="DejaVuSans-2c" d="M 750 794 
L 1409 794 
L 1409 256 
L 897 -744 
L 494 -744 
L 750 256 
L 750 794 
z
" transform="scale(0.015625)"/>
      <path id="DejaVuSans-2e" d="M 684 794 
L 1344 794 
L 1344 0 
L 684 0 
L 684 794 
z
" transform="scale(0.015625)"/>
      <path id="DejaVuSans-35" d="M 691 4666 
L 3169 4666 
L 3169 4134 
L 1269 4134 
L 1269 2991 
Q 1406 3038 1543 3061 
Q 1681 3084 1819 3084 
Q 2600 3084 3056 2656 
Q 3513 2228 3513 1497 
Q 3513 744 3044 326 
Q 2575 -91 1722 -91 
Q 1428 -91 1123 -41 
Q 819 9 494 109 
L 494 744 
Q 775 591 1075 516 
Q 1375 441 1709 441 
Q 2250 441 2565 725 
Q 2881 1009 2881 1497 
Q 2881 1984 2565 2268 
Q 2250 2553 1709 2553 
Q 1456 2553 1204 2497 
Q 953 2441 691 2322 
L 691 4666 
z
" transform="scale(0.015625)"/>
     </defs>
     <use xlink:href="#ArialMT-44" transform="translate(0 0.015625)"/>
     <use xlink:href="#ArialMT-69" transform="translate(72.216797 0.015625)"/>
     <use xlink:href="#ArialMT-73" transform="translate(94.433594 0.015625)"/>
     <use xlink:href="#ArialMT-74" transform="translate(144.433594 0.015625)"/>
     <use xlink:href="#ArialMT-61" transform="translate(172.216797 0.015625)"/>
     <use xlink:href="#ArialMT-6e" transform="translate(227.832031 0.015625)"/>
     <use xlink:href="#ArialMT-63" transform="translate(283.447266 0.015625)"/>
     <use xlink:href="#ArialMT-65" transform="translate(333.447266 0.015625)"/>
     <use xlink:href="#ArialMT-20" transform="translate(389.0625 0.015625)"/>
     <use xlink:href="#ArialMT-54" transform="translate(416.845703 0.015625)"/>
     <use xlink:href="#ArialMT-6f" transform="translate(477.929688 0.015625)"/>
     <use xlink:href="#ArialMT-20" transform="translate(533.544922 0.015625)"/>
     <use xlink:href="#ArialMT-61" transform="translate(561.328125 0.015625)"/>
     <use xlink:href="#ArialMT-20" transform="translate(616.943359 0.015625)"/>
     <use xlink:href="#ArialMT-4d" transform="translate(644.726562 0.015625)"/>
     <use xlink:href="#ArialMT-65" transform="translate(728.027344 0.015625)"/>
     <use xlink:href="#ArialMT-61" transform="translate(783.642578 0.015625)"/>
     <use xlink:href="#ArialMT-73" transform="translate(839.257812 0.015625)"/>
     <use xlink:href="#ArialMT-75" transform="translate(889.257812 0.015625)"/>
     <use xlink:href="#ArialMT-72" transform="translate(944.873047 0.015625)"/>
     <use xlink:href="#ArialMT-65" transform="translate(978.173828 0.015625)"/>
     <use xlink:href="#ArialMT-20" transform="translate(1033.789062 0.015625)"/>
     <use xlink:href="#ArialMT-28" transform="translate(1061.572266 0.015625)"/>
     <use xlink:href="#DejaVuSans-Oblique-6b" transform="translate(1094.873047 0.015625)"/>
     <use xlink:href="#DejaVuSans-3d" transform="translate(1172.265625 0.015625)"/>
     <use xlink:href="#DejaVuSans-2308" transform="translate(1275.537109 0.015625)"/>
     <use xlink:href="#DejaVuSans-Oblique-6d" transform="translate(1314.550781 0.015625)"/>
     <use xlink:href="#DejaVuSans-Oblique-6e" transform="translate(1411.962891 0.015625)"/>
     <use xlink:href="#DejaVuSans-2309" transform="translate(1475.341797 0.015625)"/>
     <use xlink:href="#DejaVuSans-2c" transform="translate(1514.355469 0.015625)"/>
     <use xlink:href="#DejaVuSans-Oblique-6d" transform="translate(1581.860676 0.015625)"/>
     <use xlink:href="#DejaVuSans-3d" transform="translate(1698.755208 0.015625)"/>
     <use xlink:href="#DejaVuSans-30" transform="translate(1802.026692 0.015625)"/>
     <use xlink:href="#DejaVuSans-2e" transform="translate(1865.649739 0.015625)"/>
     <use xlink:href="#DejaVuSans-30" transform="translate(1897.436848 0.015625)"/>
     <use xlink:href="#DejaVuSans-35" transform="translate(1961.059895 0.015625)"/>
     <use xlink:href="#ArialMT-29" transform="translate(2024.682942 0.015625)"/>
    </g>
   </g>
   <g id="patch_57">
    <path d="M 1017.999719 333.261022 
L 1045.999719 333.261022 
L 1045.999719 323.461022 
L 1017.999719 323.461022 
z
" style="fill: #e7298a; stroke: #ffffff; stroke-linejoin: miter"/>
   </g>
   <g id="text_42">
    <!-- Kernel Distance -->
    <g style="fill: #262626" transform="translate(1057.199719 333.261022) scale(0.14 -0.14)">
     <defs>
      <path id="ArialMT-4b" d="M 469 0 
L 469 4581 
L 1075 4581 
L 1075 2309 
L 3350 4581 
L 4172 4581 
L 2250 2725 
L 4256 0 
L 3456 0 
L 1825 2319 
L 1075 1588 
L 1075 0 
L 469 0 
z
" transform="scale(0.015625)"/>
     </defs>
     <use xlink:href="#ArialMT-4b"/>
     <use xlink:href="#ArialMT-65" transform="translate(66.699219 0)"/>
     <use xlink:href="#ArialMT-72" transform="translate(122.314453 0)"/>
     <use xlink:href="#ArialMT-6e" transform="translate(155.615234 0)"/>
     <use xlink:href="#ArialMT-65" transform="translate(211.230469 0)"/>
     <use xlink:href="#ArialMT-6c" transform="translate(266.845703 0)"/>
     <use xlink:href="#ArialMT-20" transform="translate(289.0625 0)"/>
     <use xlink:href="#ArialMT-44" transform="translate(316.845703 0)"/>
     <use xlink:href="#ArialMT-69" transform="translate(389.0625 0)"/>
     <use xlink:href="#ArialMT-73" transform="translate(411.279297 0)"/>
     <use xlink:href="#ArialMT-74" transform="translate(461.279297 0)"/>
     <use xlink:href="#ArialMT-61" transform="translate(489.0625 0)"/>
     <use xlink:href="#ArialMT-6e" transform="translate(544.677734 0)"/>
     <use xlink:href="#ArialMT-63" transform="translate(600.292969 0)"/>
     <use xlink:href="#ArialMT-65" transform="translate(650.292969 0)"/>
    </g>
   </g>
  </g>
 </g>
 <defs>
  <clipPath id="p0da7c98820">
   <rect x="62.856563" y="8.770681" width="366.068" height="255.50284"/>
  </clipPath>
  <clipPath id="p7d4566f2c6">
   <rect x="517.886562" y="8.770681" width="366.068" height="255.50284"/>
  </clipPath>
  <clipPath id="p292b70d7fc">
   <rect x="972.916562" y="8.770681" width="366.068" height="255.50284"/>
  </clipPath>
 </defs>
</svg>
