<?xml version="1.0" encoding="utf-8" standalone="no"?>
<!DOCTYPE svg PUBLIC "-//W3C//DTD SVG 1.1//EN"
  "http://www.w3.org/Graphics/SVG/1.1/DTD/svg11.dtd">
<svg xmlns:xlink="http://www.w3.org/1999/xlink" width="1346.104563pt" height="349.22pt" viewBox="0 0 1346.104563 349.22" xmlns="http://www.w3.org/2000/svg" version="1.1">
 <metadata>
  <rdf:RDF xmlns:dc="http://purl.org/dc/elements/1.1/" xmlns:cc="http://creativecommons.org/ns#" xmlns:rdf="http://www.w3.org/1999/02/22-rdf-syntax-ns#">
   <cc:Work>
    <dc:type rdf:resource="http://purl.org/dc/dcmitype/StillImage"/>
    <dc:date>2025-10-17T00:24:50.446298</dc:date>
    <dc:format>image/svg+xml</dc:format>
    <dc:creator>
     <cc:Agent>
      <dc:title>Matplotlib v3.10.3, https://matplotlib.org/</dc:title>
     </cc:Agent>
    </dc:creator>
   </cc:Work>
  </rdf:RDF>
 </metadata>
 <defs>
  <style type="text/css">*{stroke-linejoin: round; stroke-linecap: butt}</style>
 </defs>
 <g id="figure_1">
  <g id="patch_1">
   <path d="M 0 349.22 
L 1346.104563 349.22 
L 1346.104563 0 
L 0 0 
z
" style="fill: #ffffff"/>
  </g>
  <g id="axes_1">
   <g id="patch_2">
    <path d="M 47.566563 264.3525 
L 430.944563 264.3525 
L 430.944563 7.2 
L 47.566563 7.2 
z
" style="fill: #ffffff"/>
   </g>
   <g id="matplotlib.axis_1">
    <g id="xtick_1">
     <g id="line2d_1">
      <path d="M 114.782186 264.3525 
L 114.782186 7.2 
" clip-path="url(#p1336c3049e)" style="fill: none; stroke: #cccccc; stroke-opacity: 0.7; stroke-linecap: round"/>
     </g>
     <g id="text_1">
      <!-- 5 -->
      <g style="fill: #262626" transform="translate(110.88953 283.873437) scale(0.14 -0.14)">
       <defs>
        <path id="ArialMT-35" d="M 266 1200 
L 856 1250 
Q 922 819 1161 601 
Q 1400 384 1738 384 
Q 2144 384 2425 690 
Q 2706 997 2706 1503 
Q 2706 1984 2436 2262 
Q 2166 2541 1728 2541 
Q 1456 2541 1237 2417 
Q 1019 2294 894 2097 
L 366 2166 
L 809 4519 
L 3088 4519 
L 3088 3981 
L 1259 3981 
L 1013 2750 
Q 1425 3038 1878 3038 
Q 2478 3038 2890 2622 
Q 3303 2206 3303 1553 
Q 3303 931 2941 478 
Q 2500 -78 1738 -78 
Q 1113 -78 717 272 
Q 322 622 266 1200 
z
" transform="scale(0.015625)"/>
       </defs>
       <use xlink:href="#ArialMT-35"/>
      </g>
     </g>
    </g>
    <g id="xtick_2">
     <g id="line2d_2">
      <path d="M 239.255563 264.3525 
L 239.255563 7.2 
" clip-path="url(#p1336c3049e)" style="fill: none; stroke: #cccccc; stroke-opacity: 0.7; stroke-linecap: round"/>
     </g>
     <g id="text_2">
      <!-- 10 -->
      <g style="fill: #262626" transform="translate(231.47025 283.873437) scale(0.14 -0.14)">
       <defs>
        <path id="ArialMT-31" d="M 2384 0 
L 1822 0 
L 1822 3584 
Q 1619 3391 1289 3197 
Q 959 3003 697 2906 
L 697 3450 
Q 1169 3672 1522 3987 
Q 1875 4303 2022 4600 
L 2384 4600 
L 2384 0 
z
" transform="scale(0.015625)"/>
        <path id="ArialMT-30" d="M 266 2259 
Q 266 3072 433 3567 
Q 600 4063 929 4331 
Q 1259 4600 1759 4600 
Q 2128 4600 2406 4451 
Q 2684 4303 2865 4023 
Q 3047 3744 3150 3342 
Q 3253 2941 3253 2259 
Q 3253 1453 3087 958 
Q 2922 463 2592 192 
Q 2263 -78 1759 -78 
Q 1097 -78 719 397 
Q 266 969 266 2259 
z
M 844 2259 
Q 844 1131 1108 757 
Q 1372 384 1759 384 
Q 2147 384 2411 759 
Q 2675 1134 2675 2259 
Q 2675 3391 2411 3762 
Q 2147 4134 1753 4134 
Q 1366 4134 1134 3806 
Q 844 3388 844 2259 
z
" transform="scale(0.015625)"/>
       </defs>
       <use xlink:href="#ArialMT-31"/>
       <use xlink:href="#ArialMT-30" transform="translate(55.615234 0)"/>
      </g>
     </g>
    </g>
    <g id="xtick_3">
     <g id="line2d_3">
      <path d="M 363.728939 264.3525 
L 363.728939 7.2 
" clip-path="url(#p1336c3049e)" style="fill: none; stroke: #cccccc; stroke-opacity: 0.7; stroke-linecap: round"/>
     </g>
     <g id="text_3">
      <!-- 25 -->
      <g style="fill: #262626" transform="translate(355.943627 283.873437) scale(0.14 -0.14)">
       <defs>
        <path id="ArialMT-32" d="M 3222 541 
L 3222 0 
L 194 0 
Q 188 203 259 391 
Q 375 700 629 1000 
Q 884 1300 1366 1694 
Q 2113 2306 2375 2664 
Q 2638 3022 2638 3341 
Q 2638 3675 2398 3904 
Q 2159 4134 1775 4134 
Q 1369 4134 1125 3890 
Q 881 3647 878 3216 
L 300 3275 
Q 359 3922 746 4261 
Q 1134 4600 1788 4600 
Q 2447 4600 2831 4234 
Q 3216 3869 3216 3328 
Q 3216 3053 3103 2787 
Q 2991 2522 2730 2228 
Q 2469 1934 1863 1422 
Q 1356 997 1212 845 
Q 1069 694 975 541 
L 3222 541 
z
" transform="scale(0.015625)"/>
       </defs>
       <use xlink:href="#ArialMT-32"/>
       <use xlink:href="#ArialMT-35" transform="translate(55.615234 0)"/>
      </g>
     </g>
    </g>
    <g id="text_4">
     <!-- Missing Rate [%] -->
     <g style="fill: #262626" transform="translate(179.238063 302.303437) scale(0.16 -0.16)">
      <defs>
       <path id="ArialMT-4d" d="M 475 0 
L 475 4581 
L 1388 4581 
L 2472 1338 
Q 2622 884 2691 659 
Q 2769 909 2934 1394 
L 4031 4581 
L 4847 4581 
L 4847 0 
L 4263 0 
L 4263 3834 
L 2931 0 
L 2384 0 
L 1059 3900 
L 1059 0 
L 475 0 
z
" transform="scale(0.015625)"/>
       <path id="ArialMT-69" d="M 425 3934 
L 425 4581 
L 988 4581 
L 988 3934 
L 425 3934 
z
M 425 0 
L 425 3319 
L 988 3319 
L 988 0 
L 425 0 
z
" transform="scale(0.015625)"/>
       <path id="ArialMT-73" d="M 197 991 
L 753 1078 
Q 800 744 1014 566 
Q 1228 388 1613 388 
Q 2000 388 2187 545 
Q 2375 703 2375 916 
Q 2375 1106 2209 1216 
Q 2094 1291 1634 1406 
Q 1016 1563 777 1677 
Q 538 1791 414 1992 
Q 291 2194 291 2438 
Q 291 2659 392 2848 
Q 494 3038 669 3163 
Q 800 3259 1026 3326 
Q 1253 3394 1513 3394 
Q 1903 3394 2198 3281 
Q 2494 3169 2634 2976 
Q 2775 2784 2828 2463 
L 2278 2388 
Q 2241 2644 2061 2787 
Q 1881 2931 1553 2931 
Q 1166 2931 1000 2803 
Q 834 2675 834 2503 
Q 834 2394 903 2306 
Q 972 2216 1119 2156 
Q 1203 2125 1616 2013 
Q 2213 1853 2448 1751 
Q 2684 1650 2818 1456 
Q 2953 1263 2953 975 
Q 2953 694 2789 445 
Q 2625 197 2315 61 
Q 2006 -75 1616 -75 
Q 969 -75 630 194 
Q 291 463 197 991 
z
" transform="scale(0.015625)"/>
       <path id="ArialMT-6e" d="M 422 0 
L 422 3319 
L 928 3319 
L 928 2847 
Q 1294 3394 1984 3394 
Q 2284 3394 2536 3286 
Q 2788 3178 2913 3003 
Q 3038 2828 3088 2588 
Q 3119 2431 3119 2041 
L 3119 0 
L 2556 0 
L 2556 2019 
Q 2556 2363 2490 2533 
Q 2425 2703 2258 2804 
Q 2091 2906 1866 2906 
Q 1506 2906 1245 2678 
Q 984 2450 984 1813 
L 984 0 
L 422 0 
z
" transform="scale(0.015625)"/>
       <path id="ArialMT-67" d="M 319 -275 
L 866 -356 
Q 900 -609 1056 -725 
Q 1266 -881 1628 -881 
Q 2019 -881 2231 -725 
Q 2444 -569 2519 -288 
Q 2563 -116 2559 434 
Q 2191 0 1641 0 
Q 956 0 581 494 
Q 206 988 206 1678 
Q 206 2153 378 2554 
Q 550 2956 876 3175 
Q 1203 3394 1644 3394 
Q 2231 3394 2613 2919 
L 2613 3319 
L 3131 3319 
L 3131 450 
Q 3131 -325 2973 -648 
Q 2816 -972 2473 -1159 
Q 2131 -1347 1631 -1347 
Q 1038 -1347 672 -1080 
Q 306 -813 319 -275 
z
M 784 1719 
Q 784 1066 1043 766 
Q 1303 466 1694 466 
Q 2081 466 2343 764 
Q 2606 1063 2606 1700 
Q 2606 2309 2336 2618 
Q 2066 2928 1684 2928 
Q 1309 2928 1046 2623 
Q 784 2319 784 1719 
z
" transform="scale(0.015625)"/>
       <path id="ArialMT-20" transform="scale(0.015625)"/>
       <path id="ArialMT-52" d="M 503 0 
L 503 4581 
L 2534 4581 
Q 3147 4581 3465 4457 
Q 3784 4334 3975 4021 
Q 4166 3709 4166 3331 
Q 4166 2844 3850 2509 
Q 3534 2175 2875 2084 
Q 3116 1969 3241 1856 
Q 3506 1613 3744 1247 
L 4541 0 
L 3778 0 
L 3172 953 
Q 2906 1366 2734 1584 
Q 2563 1803 2427 1890 
Q 2291 1978 2150 2013 
Q 2047 2034 1813 2034 
L 1109 2034 
L 1109 0 
L 503 0 
z
M 1109 2559 
L 2413 2559 
Q 2828 2559 3062 2645 
Q 3297 2731 3419 2920 
Q 3541 3109 3541 3331 
Q 3541 3656 3305 3865 
Q 3069 4075 2559 4075 
L 1109 4075 
L 1109 2559 
z
" transform="scale(0.015625)"/>
       <path id="ArialMT-61" d="M 2588 409 
Q 2275 144 1986 34 
Q 1697 -75 1366 -75 
Q 819 -75 525 192 
Q 231 459 231 875 
Q 231 1119 342 1320 
Q 453 1522 633 1644 
Q 813 1766 1038 1828 
Q 1203 1872 1538 1913 
Q 2219 1994 2541 2106 
Q 2544 2222 2544 2253 
Q 2544 2597 2384 2738 
Q 2169 2928 1744 2928 
Q 1347 2928 1158 2789 
Q 969 2650 878 2297 
L 328 2372 
Q 403 2725 575 2942 
Q 747 3159 1072 3276 
Q 1397 3394 1825 3394 
Q 2250 3394 2515 3294 
Q 2781 3194 2906 3042 
Q 3031 2891 3081 2659 
Q 3109 2516 3109 2141 
L 3109 1391 
Q 3109 606 3145 398 
Q 3181 191 3288 0 
L 2700 0 
Q 2613 175 2588 409 
z
M 2541 1666 
Q 2234 1541 1622 1453 
Q 1275 1403 1131 1340 
Q 988 1278 909 1158 
Q 831 1038 831 891 
Q 831 666 1001 516 
Q 1172 366 1500 366 
Q 1825 366 2078 508 
Q 2331 650 2450 897 
Q 2541 1088 2541 1459 
L 2541 1666 
z
" transform="scale(0.015625)"/>
       <path id="ArialMT-74" d="M 1650 503 
L 1731 6 
Q 1494 -44 1306 -44 
Q 1000 -44 831 53 
Q 663 150 594 308 
Q 525 466 525 972 
L 525 2881 
L 113 2881 
L 113 3319 
L 525 3319 
L 525 4141 
L 1084 4478 
L 1084 3319 
L 1650 3319 
L 1650 2881 
L 1084 2881 
L 1084 941 
Q 1084 700 1114 631 
Q 1144 563 1211 522 
Q 1278 481 1403 481 
Q 1497 481 1650 503 
z
" transform="scale(0.015625)"/>
       <path id="ArialMT-65" d="M 2694 1069 
L 3275 997 
Q 3138 488 2766 206 
Q 2394 -75 1816 -75 
Q 1088 -75 661 373 
Q 234 822 234 1631 
Q 234 2469 665 2931 
Q 1097 3394 1784 3394 
Q 2450 3394 2872 2941 
Q 3294 2488 3294 1666 
Q 3294 1616 3291 1516 
L 816 1516 
Q 847 969 1125 678 
Q 1403 388 1819 388 
Q 2128 388 2347 550 
Q 2566 713 2694 1069 
z
M 847 1978 
L 2700 1978 
Q 2663 2397 2488 2606 
Q 2219 2931 1791 2931 
Q 1403 2931 1139 2672 
Q 875 2413 847 1978 
z
" transform="scale(0.015625)"/>
       <path id="ArialMT-5b" d="M 434 -1272 
L 434 4581 
L 1675 4581 
L 1675 4116 
L 997 4116 
L 997 -806 
L 1675 -806 
L 1675 -1272 
L 434 -1272 
z
" transform="scale(0.015625)"/>
       <path id="ArialMT-25" d="M 372 3481 
Q 372 3972 619 4315 
Q 866 4659 1334 4659 
Q 1766 4659 2048 4351 
Q 2331 4044 2331 3447 
Q 2331 2866 2045 2552 
Q 1759 2238 1341 2238 
Q 925 2238 648 2547 
Q 372 2856 372 3481 
z
M 1350 4272 
Q 1141 4272 1002 4090 
Q 863 3909 863 3425 
Q 863 2984 1003 2804 
Q 1144 2625 1350 2625 
Q 1563 2625 1702 2806 
Q 1841 2988 1841 3469 
Q 1841 3913 1700 4092 
Q 1559 4272 1350 4272 
z
M 1353 -169 
L 3859 4659 
L 4316 4659 
L 1819 -169 
L 1353 -169 
z
M 3334 1075 
Q 3334 1569 3581 1911 
Q 3828 2253 4300 2253 
Q 4731 2253 5014 1945 
Q 5297 1638 5297 1041 
Q 5297 459 5011 145 
Q 4725 -169 4303 -169 
Q 3888 -169 3611 142 
Q 3334 453 3334 1075 
z
M 4316 1866 
Q 4103 1866 3964 1684 
Q 3825 1503 3825 1019 
Q 3825 581 3965 400 
Q 4106 219 4313 219 
Q 4528 219 4667 400 
Q 4806 581 4806 1063 
Q 4806 1506 4665 1686 
Q 4525 1866 4316 1866 
z
" transform="scale(0.015625)"/>
       <path id="ArialMT-5d" d="M 1363 -1272 
L 122 -1272 
L 122 -806 
L 800 -806 
L 800 4116 
L 122 4116 
L 122 4581 
L 1363 4581 
L 1363 -1272 
z
" transform="scale(0.015625)"/>
      </defs>
      <use xlink:href="#ArialMT-4d"/>
      <use xlink:href="#ArialMT-69" transform="translate(83.300781 0)"/>
      <use xlink:href="#ArialMT-73" transform="translate(105.517578 0)"/>
      <use xlink:href="#ArialMT-73" transform="translate(155.517578 0)"/>
      <use xlink:href="#ArialMT-69" transform="translate(205.517578 0)"/>
      <use xlink:href="#ArialMT-6e" transform="translate(227.734375 0)"/>
      <use xlink:href="#ArialMT-67" transform="translate(283.349609 0)"/>
      <use xlink:href="#ArialMT-20" transform="translate(338.964844 0)"/>
      <use xlink:href="#ArialMT-52" transform="translate(366.748047 0)"/>
      <use xlink:href="#ArialMT-61" transform="translate(438.964844 0)"/>
      <use xlink:href="#ArialMT-74" transform="translate(494.580078 0)"/>
      <use xlink:href="#ArialMT-65" transform="translate(522.363281 0)"/>
      <use xlink:href="#ArialMT-20" transform="translate(577.978516 0)"/>
      <use xlink:href="#ArialMT-5b" transform="translate(605.761719 0)"/>
      <use xlink:href="#ArialMT-25" transform="translate(633.544922 0)"/>
      <use xlink:href="#ArialMT-5d" transform="translate(722.460938 0)"/>
     </g>
    </g>
   </g>
   <g id="matplotlib.axis_2">
    <g id="ytick_1">
     <g id="line2d_4">
      <path d="M 47.566563 264.3525 
L 430.944563 264.3525 
" clip-path="url(#p1336c3049e)" style="fill: none; stroke: #cccccc; stroke-opacity: 0.7; stroke-linecap: round"/>
     </g>
     <g id="text_5">
      <!-- 0 -->
      <g style="fill: #262626" transform="translate(31.949531 268.289297) scale(0.11 -0.11)">
       <use xlink:href="#ArialMT-30"/>
      </g>
     </g>
    </g>
    <g id="ytick_2">
     <g id="line2d_5">
      <path d="M 47.566563 232.906006 
L 430.944563 232.906006 
" clip-path="url(#p1336c3049e)" style="fill: none; stroke: #cccccc; stroke-opacity: 0.7; stroke-linecap: round"/>
     </g>
     <g id="text_6">
      <!-- 2 -->
      <g style="fill: #262626" transform="translate(31.949531 236.842802) scale(0.11 -0.11)">
       <use xlink:href="#ArialMT-32"/>
      </g>
     </g>
    </g>
    <g id="ytick_3">
     <g id="line2d_6">
      <path d="M 47.566563 201.459511 
L 430.944563 201.459511 
" clip-path="url(#p1336c3049e)" style="fill: none; stroke: #cccccc; stroke-opacity: 0.7; stroke-linecap: round"/>
     </g>
     <g id="text_7">
      <!-- 4 -->
      <g style="fill: #262626" transform="translate(31.949531 205.396308) scale(0.11 -0.11)">
       <defs>
        <path id="ArialMT-34" d="M 2069 0 
L 2069 1097 
L 81 1097 
L 81 1613 
L 2172 4581 
L 2631 4581 
L 2631 1613 
L 3250 1613 
L 3250 1097 
L 2631 1097 
L 2631 0 
L 2069 0 
z
M 2069 1613 
L 2069 3678 
L 634 1613 
L 2069 1613 
z
" transform="scale(0.015625)"/>
       </defs>
       <use xlink:href="#ArialMT-34"/>
      </g>
     </g>
    </g>
    <g id="ytick_4">
     <g id="line2d_7">
      <path d="M 47.566563 170.013017 
L 430.944563 170.013017 
" clip-path="url(#p1336c3049e)" style="fill: none; stroke: #cccccc; stroke-opacity: 0.7; stroke-linecap: round"/>
     </g>
     <g id="text_8">
      <!-- 6 -->
      <g style="fill: #262626" transform="translate(31.949531 173.949814) scale(0.11 -0.11)">
       <defs>
        <path id="ArialMT-36" d="M 3184 3459 
L 2625 3416 
Q 2550 3747 2413 3897 
Q 2184 4138 1850 4138 
Q 1581 4138 1378 3988 
Q 1113 3794 959 3422 
Q 806 3050 800 2363 
Q 1003 2672 1297 2822 
Q 1591 2972 1913 2972 
Q 2475 2972 2870 2558 
Q 3266 2144 3266 1488 
Q 3266 1056 3080 686 
Q 2894 316 2569 119 
Q 2244 -78 1831 -78 
Q 1128 -78 684 439 
Q 241 956 241 2144 
Q 241 3472 731 4075 
Q 1159 4600 1884 4600 
Q 2425 4600 2770 4297 
Q 3116 3994 3184 3459 
z
M 888 1484 
Q 888 1194 1011 928 
Q 1134 663 1356 523 
Q 1578 384 1822 384 
Q 2178 384 2434 671 
Q 2691 959 2691 1453 
Q 2691 1928 2437 2201 
Q 2184 2475 1800 2475 
Q 1419 2475 1153 2201 
Q 888 1928 888 1484 
z
" transform="scale(0.015625)"/>
       </defs>
       <use xlink:href="#ArialMT-36"/>
      </g>
     </g>
    </g>
    <g id="ytick_5">
     <g id="line2d_8">
      <path d="M 47.566563 138.566522 
L 430.944563 138.566522 
" clip-path="url(#p1336c3049e)" style="fill: none; stroke: #cccccc; stroke-opacity: 0.7; stroke-linecap: round"/>
     </g>
     <g id="text_9">
      <!-- 8 -->
      <g style="fill: #262626" transform="translate(31.949531 142.503319) scale(0.11 -0.11)">
       <defs>
        <path id="ArialMT-38" d="M 1131 2484 
Q 781 2613 612 2850 
Q 444 3088 444 3419 
Q 444 3919 803 4259 
Q 1163 4600 1759 4600 
Q 2359 4600 2725 4251 
Q 3091 3903 3091 3403 
Q 3091 3084 2923 2848 
Q 2756 2613 2416 2484 
Q 2838 2347 3058 2040 
Q 3278 1734 3278 1309 
Q 3278 722 2862 322 
Q 2447 -78 1769 -78 
Q 1091 -78 675 323 
Q 259 725 259 1325 
Q 259 1772 486 2073 
Q 713 2375 1131 2484 
z
M 1019 3438 
Q 1019 3113 1228 2906 
Q 1438 2700 1772 2700 
Q 2097 2700 2305 2904 
Q 2513 3109 2513 3406 
Q 2513 3716 2298 3927 
Q 2084 4138 1766 4138 
Q 1444 4138 1231 3931 
Q 1019 3725 1019 3438 
z
M 838 1322 
Q 838 1081 952 856 
Q 1066 631 1291 507 
Q 1516 384 1775 384 
Q 2178 384 2440 643 
Q 2703 903 2703 1303 
Q 2703 1709 2433 1975 
Q 2163 2241 1756 2241 
Q 1359 2241 1098 1978 
Q 838 1716 838 1322 
z
" transform="scale(0.015625)"/>
       </defs>
       <use xlink:href="#ArialMT-38"/>
      </g>
     </g>
    </g>
    <g id="ytick_6">
     <g id="line2d_9">
      <path d="M 47.566563 107.120028 
L 430.944563 107.120028 
" clip-path="url(#p1336c3049e)" style="fill: none; stroke: #cccccc; stroke-opacity: 0.7; stroke-linecap: round"/>
     </g>
     <g id="text_10">
      <!-- 10 -->
      <g style="fill: #262626" transform="translate(25.8325 111.056825) scale(0.11 -0.11)">
       <use xlink:href="#ArialMT-31"/>
       <use xlink:href="#ArialMT-30" transform="translate(55.615234 0)"/>
      </g>
     </g>
    </g>
    <g id="ytick_7">
     <g id="line2d_10">
      <path d="M 47.566563 75.673533 
L 430.944563 75.673533 
" clip-path="url(#p1336c3049e)" style="fill: none; stroke: #cccccc; stroke-opacity: 0.7; stroke-linecap: round"/>
     </g>
     <g id="text_11">
      <!-- 12 -->
      <g style="fill: #262626" transform="translate(25.8325 79.61033) scale(0.11 -0.11)">
       <use xlink:href="#ArialMT-31"/>
       <use xlink:href="#ArialMT-32" transform="translate(55.615234 0)"/>
      </g>
     </g>
    </g>
    <g id="ytick_8">
     <g id="line2d_11">
      <path d="M 47.566563 44.227039 
L 430.944563 44.227039 
" clip-path="url(#p1336c3049e)" style="fill: none; stroke: #cccccc; stroke-opacity: 0.7; stroke-linecap: round"/>
     </g>
     <g id="text_12">
      <!-- 14 -->
      <g style="fill: #262626" transform="translate(25.8325 48.163836) scale(0.11 -0.11)">
       <use xlink:href="#ArialMT-31"/>
       <use xlink:href="#ArialMT-34" transform="translate(55.615234 0)"/>
      </g>
     </g>
    </g>
    <g id="ytick_9">
     <g id="line2d_12">
      <path d="M 47.566563 12.780545 
L 430.944563 12.780545 
" clip-path="url(#p1336c3049e)" style="fill: none; stroke: #cccccc; stroke-opacity: 0.7; stroke-linecap: round"/>
     </g>
     <g id="text_13">
      <!-- 16 -->
      <g style="fill: #262626" transform="translate(25.8325 16.717341) scale(0.11 -0.11)">
       <use xlink:href="#ArialMT-31"/>
       <use xlink:href="#ArialMT-36" transform="translate(55.615234 0)"/>
      </g>
     </g>
    </g>
    <g id="text_14">
     <!-- Wasserstein Distance - H$_0$ -->
     <g style="fill: #262626" transform="translate(18.6525 229.93625) rotate(-90) scale(0.16 -0.16)">
      <defs>
       <path id="ArialMT-57" d="M 1294 0 
L 78 4581 
L 700 4581 
L 1397 1578 
Q 1509 1106 1591 641 
Q 1766 1375 1797 1488 
L 2669 4581 
L 3400 4581 
L 4056 2263 
Q 4303 1400 4413 641 
Q 4500 1075 4641 1638 
L 5359 4581 
L 5969 4581 
L 4713 0 
L 4128 0 
L 3163 3491 
Q 3041 3928 3019 4028 
Q 2947 3713 2884 3491 
L 1913 0 
L 1294 0 
z
" transform="scale(0.015625)"/>
       <path id="ArialMT-72" d="M 416 0 
L 416 3319 
L 922 3319 
L 922 2816 
Q 1116 3169 1280 3281 
Q 1444 3394 1641 3394 
Q 1925 3394 2219 3213 
L 2025 2691 
Q 1819 2813 1613 2813 
Q 1428 2813 1281 2702 
Q 1134 2591 1072 2394 
Q 978 2094 978 1738 
L 978 0 
L 416 0 
z
" transform="scale(0.015625)"/>
       <path id="ArialMT-44" d="M 494 0 
L 494 4581 
L 2072 4581 
Q 2606 4581 2888 4516 
Q 3281 4425 3559 4188 
Q 3922 3881 4101 3404 
Q 4281 2928 4281 2316 
Q 4281 1794 4159 1391 
Q 4038 988 3847 723 
Q 3656 459 3429 307 
Q 3203 156 2883 78 
Q 2563 0 2147 0 
L 494 0 
z
M 1100 541 
L 2078 541 
Q 2531 541 2789 625 
Q 3047 709 3200 863 
Q 3416 1078 3536 1442 
Q 3656 1806 3656 2325 
Q 3656 3044 3420 3430 
Q 3184 3816 2847 3947 
Q 2603 4041 2063 4041 
L 1100 4041 
L 1100 541 
z
" transform="scale(0.015625)"/>
       <path id="ArialMT-63" d="M 2588 1216 
L 3141 1144 
Q 3050 572 2676 248 
Q 2303 -75 1759 -75 
Q 1078 -75 664 370 
Q 250 816 250 1647 
Q 250 2184 428 2587 
Q 606 2991 970 3192 
Q 1334 3394 1763 3394 
Q 2303 3394 2647 3120 
Q 2991 2847 3088 2344 
L 2541 2259 
Q 2463 2594 2264 2762 
Q 2066 2931 1784 2931 
Q 1359 2931 1093 2626 
Q 828 2322 828 1663 
Q 828 994 1084 691 
Q 1341 388 1753 388 
Q 2084 388 2306 591 
Q 2528 794 2588 1216 
z
" transform="scale(0.015625)"/>
       <path id="ArialMT-2d" d="M 203 1375 
L 203 1941 
L 1931 1941 
L 1931 1375 
L 203 1375 
z
" transform="scale(0.015625)"/>
       <path id="ArialMT-48" d="M 513 0 
L 513 4581 
L 1119 4581 
L 1119 2700 
L 3500 2700 
L 3500 4581 
L 4106 4581 
L 4106 0 
L 3500 0 
L 3500 2159 
L 1119 2159 
L 1119 0 
L 513 0 
z
" transform="scale(0.015625)"/>
       <path id="DejaVuSans-30" d="M 2034 4250 
Q 1547 4250 1301 3770 
Q 1056 3291 1056 2328 
Q 1056 1369 1301 889 
Q 1547 409 2034 409 
Q 2525 409 2770 889 
Q 3016 1369 3016 2328 
Q 3016 3291 2770 3770 
Q 2525 4250 2034 4250 
z
M 2034 4750 
Q 2819 4750 3233 4129 
Q 3647 3509 3647 2328 
Q 3647 1150 3233 529 
Q 2819 -91 2034 -91 
Q 1250 -91 836 529 
Q 422 1150 422 2328 
Q 422 3509 836 4129 
Q 1250 4750 2034 4750 
z
" transform="scale(0.015625)"/>
      </defs>
      <use xlink:href="#ArialMT-57" transform="translate(0 0.421875)"/>
      <use xlink:href="#ArialMT-61" transform="translate(94.384766 0.421875)"/>
      <use xlink:href="#ArialMT-73" transform="translate(150 0.421875)"/>
      <use xlink:href="#ArialMT-73" transform="translate(200 0.421875)"/>
      <use xlink:href="#ArialMT-65" transform="translate(250 0.421875)"/>
      <use xlink:href="#ArialMT-72" transform="translate(305.615234 0.421875)"/>
      <use xlink:href="#ArialMT-73" transform="translate(338.916016 0.421875)"/>
      <use xlink:href="#ArialMT-74" transform="translate(388.916016 0.421875)"/>
      <use xlink:href="#ArialMT-65" transform="translate(416.699219 0.421875)"/>
      <use xlink:href="#ArialMT-69" transform="translate(472.314453 0.421875)"/>
      <use xlink:href="#ArialMT-6e" transform="translate(494.53125 0.421875)"/>
      <use xlink:href="#ArialMT-20" transform="translate(550.146484 0.421875)"/>
      <use xlink:href="#ArialMT-44" transform="translate(577.929688 0.421875)"/>
      <use xlink:href="#ArialMT-69" transform="translate(650.146484 0.421875)"/>
      <use xlink:href="#ArialMT-73" transform="translate(672.363281 0.421875)"/>
      <use xlink:href="#ArialMT-74" transform="translate(722.363281 0.421875)"/>
      <use xlink:href="#ArialMT-61" transform="translate(750.146484 0.421875)"/>
      <use xlink:href="#ArialMT-6e" transform="translate(805.761719 0.421875)"/>
      <use xlink:href="#ArialMT-63" transform="translate(861.376953 0.421875)"/>
      <use xlink:href="#ArialMT-65" transform="translate(911.376953 0.421875)"/>
      <use xlink:href="#ArialMT-20" transform="translate(966.992188 0.421875)"/>
      <use xlink:href="#ArialMT-2d" transform="translate(994.775391 0.421875)"/>
      <use xlink:href="#ArialMT-20" transform="translate(1028.076172 0.421875)"/>
      <use xlink:href="#ArialMT-48" transform="translate(1055.859375 0.421875)"/>
      <use xlink:href="#DejaVuSans-30" transform="translate(1129.033203 -15.984375) scale(0.7)"/>
     </g>
    </g>
   </g>
   <g id="patch_3">
    <path d="M 64.992835 264.3525 
L 89.887511 264.3525 
L 89.887511 234.308852 
L 64.992835 234.308852 
z
" clip-path="url(#p1336c3049e)" style="fill: #1b9e77; stroke: #ffffff; stroke-linejoin: miter"/>
   </g>
   <g id="patch_4">
    <path d="M 189.466212 264.3525 
L 214.360887 264.3525 
L 214.360887 201.210102 
L 189.466212 201.210102 
z
" clip-path="url(#p1336c3049e)" style="fill: #1b9e77; stroke: #ffffff; stroke-linejoin: miter"/>
   </g>
   <g id="patch_5">
    <path d="M 313.939588 264.3525 
L 338.834264 264.3525 
L 338.834264 63.788667 
L 313.939588 63.788667 
z
" clip-path="url(#p1336c3049e)" style="fill: #1b9e77; stroke: #ffffff; stroke-linejoin: miter"/>
   </g>
   <g id="patch_6">
    <path d="M 89.887511 264.3525 
L 114.782186 264.3525 
L 114.782186 252.721789 
L 89.887511 252.721789 
z
" clip-path="url(#p1336c3049e)" style="fill: #d95f02; stroke: #ffffff; stroke-linejoin: miter"/>
   </g>
   <g id="patch_7">
    <path d="M 214.360887 264.3525 
L 239.255563 264.3525 
L 239.255563 248.120499 
L 214.360887 248.120499 
z
" clip-path="url(#p1336c3049e)" style="fill: #d95f02; stroke: #ffffff; stroke-linejoin: miter"/>
   </g>
   <g id="patch_8">
    <path d="M 338.834264 264.3525 
L 363.728939 264.3525 
L 363.728939 237.489177 
L 338.834264 237.489177 
z
" clip-path="url(#p1336c3049e)" style="fill: #d95f02; stroke: #ffffff; stroke-linejoin: miter"/>
   </g>
   <g id="patch_9">
    <path d="M 114.782186 264.3525 
L 139.676861 264.3525 
L 139.676861 255.802926 
L 114.782186 255.802926 
z
" clip-path="url(#p1336c3049e)" style="fill: #7570b3; stroke: #ffffff; stroke-linejoin: miter"/>
   </g>
   <g id="patch_10">
    <path d="M 239.255563 264.3525 
L 264.150238 264.3525 
L 264.150238 252.53287 
L 239.255563 252.53287 
z
" clip-path="url(#p1336c3049e)" style="fill: #7570b3; stroke: #ffffff; stroke-linejoin: miter"/>
   </g>
   <g id="patch_11">
    <path d="M 363.728939 264.3525 
L 388.623614 264.3525 
L 388.623614 246.356751 
L 363.728939 246.356751 
z
" clip-path="url(#p1336c3049e)" style="fill: #7570b3; stroke: #ffffff; stroke-linejoin: miter"/>
   </g>
   <g id="patch_12">
    <path d="M 139.676861 264.3525 
L 164.571537 264.3525 
L 164.571537 241.033713 
L 139.676861 241.033713 
z
" clip-path="url(#p1336c3049e)" style="fill: #e7298a; stroke: #ffffff; stroke-linejoin: miter"/>
   </g>
   <g id="patch_13">
    <path d="M 264.150238 264.3525 
L 289.044913 264.3525 
L 289.044913 214.018295 
L 264.150238 214.018295 
z
" clip-path="url(#p1336c3049e)" style="fill: #e7298a; stroke: #ffffff; stroke-linejoin: miter"/>
   </g>
   <g id="patch_14">
    <path d="M 388.623614 264.3525 
L 413.51829 264.3525 
L 413.51829 93.418465 
L 388.623614 93.418465 
z
" clip-path="url(#p1336c3049e)" style="fill: #e7298a; stroke: #ffffff; stroke-linejoin: miter"/>
   </g>
   <g id="LineCollection_1">
    <path d="M 77.440173 240.566249 
L 77.440173 228.051454 
" clip-path="url(#p1336c3049e)" style="fill: none; stroke: #1a1a1a; stroke-width: 1.5"/>
    <path d="M 201.91355 215.437481 
L 201.91355 186.982723 
" clip-path="url(#p1336c3049e)" style="fill: none; stroke: #1a1a1a; stroke-width: 1.5"/>
    <path d="M 326.386926 108.131977 
L 326.386926 19.445357 
" clip-path="url(#p1336c3049e)" style="fill: none; stroke: #1a1a1a; stroke-width: 1.5"/>
   </g>
   <g id="line2d_13">
    <defs>
     <path id="m3fb95a7a8c" d="M 5 0 
L -5 -0 
" style="stroke: #1a1a1a"/>
    </defs>
    <g clip-path="url(#p1336c3049e)">
     <use xlink:href="#m3fb95a7a8c" x="77.440173" y="240.566249" style="fill: #1a1a1a; stroke: #1a1a1a"/>
     <use xlink:href="#m3fb95a7a8c" x="201.91355" y="215.437481" style="fill: #1a1a1a; stroke: #1a1a1a"/>
     <use xlink:href="#m3fb95a7a8c" x="326.386926" y="108.131977" style="fill: #1a1a1a; stroke: #1a1a1a"/>
    </g>
   </g>
   <g id="line2d_14">
    <g clip-path="url(#p1336c3049e)">
     <use xlink:href="#m3fb95a7a8c" x="77.440173" y="228.051454" style="fill: #1a1a1a; stroke: #1a1a1a"/>
     <use xlink:href="#m3fb95a7a8c" x="201.91355" y="186.982723" style="fill: #1a1a1a; stroke: #1a1a1a"/>
     <use xlink:href="#m3fb95a7a8c" x="326.386926" y="19.445357" style="fill: #1a1a1a; stroke: #1a1a1a"/>
    </g>
   </g>
   <g id="LineCollection_2">
    <path d="M 102.334848 254.349379 
L 102.334848 251.094199 
" clip-path="url(#p1336c3049e)" style="fill: none; stroke: #1a1a1a; stroke-width: 1.5"/>
    <path d="M 226.808225 250.337312 
L 226.808225 245.903686 
" clip-path="url(#p1336c3049e)" style="fill: none; stroke: #1a1a1a; stroke-width: 1.5"/>
    <path d="M 351.281601 241.521779 
L 351.281601 233.456575 
" clip-path="url(#p1336c3049e)" style="fill: none; stroke: #1a1a1a; stroke-width: 1.5"/>
   </g>
   <g id="line2d_15">
    <g clip-path="url(#p1336c3049e)">
     <use xlink:href="#m3fb95a7a8c" x="102.334848" y="254.349379" style="fill: #1a1a1a; stroke: #1a1a1a"/>
     <use xlink:href="#m3fb95a7a8c" x="226.808225" y="250.337312" style="fill: #1a1a1a; stroke: #1a1a1a"/>
     <use xlink:href="#m3fb95a7a8c" x="351.281601" y="241.521779" style="fill: #1a1a1a; stroke: #1a1a1a"/>
    </g>
   </g>
   <g id="line2d_16">
    <g clip-path="url(#p1336c3049e)">
     <use xlink:href="#m3fb95a7a8c" x="102.334848" y="251.094199" style="fill: #1a1a1a; stroke: #1a1a1a"/>
     <use xlink:href="#m3fb95a7a8c" x="226.808225" y="245.903686" style="fill: #1a1a1a; stroke: #1a1a1a"/>
     <use xlink:href="#m3fb95a7a8c" x="351.281601" y="233.456575" style="fill: #1a1a1a; stroke: #1a1a1a"/>
    </g>
   </g>
   <g id="LineCollection_3">
    <path d="M 127.229524 256.83695 
L 127.229524 254.768902 
" clip-path="url(#p1336c3049e)" style="fill: none; stroke: #1a1a1a; stroke-width: 1.5"/>
    <path d="M 251.7029 253.869513 
L 251.7029 251.196227 
" clip-path="url(#p1336c3049e)" style="fill: none; stroke: #1a1a1a; stroke-width: 1.5"/>
    <path d="M 376.176277 248.496992 
L 376.176277 244.216511 
" clip-path="url(#p1336c3049e)" style="fill: none; stroke: #1a1a1a; stroke-width: 1.5"/>
   </g>
   <g id="line2d_17">
    <g clip-path="url(#p1336c3049e)">
     <use xlink:href="#m3fb95a7a8c" x="127.229524" y="256.83695" style="fill: #1a1a1a; stroke: #1a1a1a"/>
     <use xlink:href="#m3fb95a7a8c" x="251.7029" y="253.869513" style="fill: #1a1a1a; stroke: #1a1a1a"/>
     <use xlink:href="#m3fb95a7a8c" x="376.176277" y="248.496992" style="fill: #1a1a1a; stroke: #1a1a1a"/>
    </g>
   </g>
   <g id="line2d_18">
    <g clip-path="url(#p1336c3049e)">
     <use xlink:href="#m3fb95a7a8c" x="127.229524" y="254.768902" style="fill: #1a1a1a; stroke: #1a1a1a"/>
     <use xlink:href="#m3fb95a7a8c" x="251.7029" y="251.196227" style="fill: #1a1a1a; stroke: #1a1a1a"/>
     <use xlink:href="#m3fb95a7a8c" x="376.176277" y="244.216511" style="fill: #1a1a1a; stroke: #1a1a1a"/>
    </g>
   </g>
   <g id="LineCollection_4">
    <path d="M 152.124199 247.135509 
L 152.124199 234.931916 
" clip-path="url(#p1336c3049e)" style="fill: none; stroke: #1a1a1a; stroke-width: 1.5"/>
    <path d="M 276.597575 227.992428 
L 276.597575 200.044161 
" clip-path="url(#p1336c3049e)" style="fill: none; stroke: #1a1a1a; stroke-width: 1.5"/>
    <path d="M 401.070952 136.63967 
L 401.070952 50.19726 
" clip-path="url(#p1336c3049e)" style="fill: none; stroke: #1a1a1a; stroke-width: 1.5"/>
   </g>
   <g id="line2d_19">
    <g clip-path="url(#p1336c3049e)">
     <use xlink:href="#m3fb95a7a8c" x="152.124199" y="247.135509" style="fill: #1a1a1a; stroke: #1a1a1a"/>
     <use xlink:href="#m3fb95a7a8c" x="276.597575" y="227.992428" style="fill: #1a1a1a; stroke: #1a1a1a"/>
     <use xlink:href="#m3fb95a7a8c" x="401.070952" y="136.63967" style="fill: #1a1a1a; stroke: #1a1a1a"/>
    </g>
   </g>
   <g id="line2d_20">
    <g clip-path="url(#p1336c3049e)">
     <use xlink:href="#m3fb95a7a8c" x="152.124199" y="234.931916" style="fill: #1a1a1a; stroke: #1a1a1a"/>
     <use xlink:href="#m3fb95a7a8c" x="276.597575" y="200.044161" style="fill: #1a1a1a; stroke: #1a1a1a"/>
     <use xlink:href="#m3fb95a7a8c" x="401.070952" y="50.19726" style="fill: #1a1a1a; stroke: #1a1a1a"/>
    </g>
   </g>
   <g id="patch_15">
    <path d="M 47.566563 264.3525 
L 47.566563 7.2 
" style="fill: none; stroke: #cccccc; stroke-width: 1.25; stroke-linejoin: miter; stroke-linecap: square"/>
   </g>
   <g id="patch_16">
    <path d="M 430.944563 264.3525 
L 430.944563 7.2 
" style="fill: none; stroke: #cccccc; stroke-width: 1.25; stroke-linejoin: miter; stroke-linecap: square"/>
   </g>
   <g id="patch_17">
    <path d="M 47.566563 264.3525 
L 430.944563 264.3525 
" style="fill: none; stroke: #cccccc; stroke-width: 1.25; stroke-linejoin: miter; stroke-linecap: square"/>
   </g>
   <g id="patch_18">
    <path d="M 47.566563 7.2 
L 430.944563 7.2 
" style="fill: none; stroke: #cccccc; stroke-width: 1.25; stroke-linejoin: miter; stroke-linecap: square"/>
   </g>
  </g>
  <g id="axes_2">
   <g id="patch_19">
    <path d="M 501.546562 264.3525 
L 884.924562 264.3525 
L 884.924562 7.2 
L 501.546562 7.2 
z
" style="fill: #ffffff"/>
   </g>
   <g id="matplotlib.axis_3">
    <g id="xtick_4">
     <g id="line2d_21">
      <path d="M 568.762186 264.3525 
L 568.762186 7.2 
" clip-path="url(#p08905c0a35)" style="fill: none; stroke: #cccccc; stroke-opacity: 0.7; stroke-linecap: round"/>
     </g>
     <g id="text_15">
      <!-- 5 -->
      <g style="fill: #262626" transform="translate(564.86953 283.873437) scale(0.14 -0.14)">
       <use xlink:href="#ArialMT-35"/>
      </g>
     </g>
    </g>
    <g id="xtick_5">
     <g id="line2d_22">
      <path d="M 693.235562 264.3525 
L 693.235562 7.2 
" clip-path="url(#p08905c0a35)" style="fill: none; stroke: #cccccc; stroke-opacity: 0.7; stroke-linecap: round"/>
     </g>
     <g id="text_16">
      <!-- 10 -->
      <g style="fill: #262626" transform="translate(685.45025 283.873437) scale(0.14 -0.14)">
       <use xlink:href="#ArialMT-31"/>
       <use xlink:href="#ArialMT-30" transform="translate(55.615234 0)"/>
      </g>
     </g>
    </g>
    <g id="xtick_6">
     <g id="line2d_23">
      <path d="M 817.708939 264.3525 
L 817.708939 7.2 
" clip-path="url(#p08905c0a35)" style="fill: none; stroke: #cccccc; stroke-opacity: 0.7; stroke-linecap: round"/>
     </g>
     <g id="text_17">
      <!-- 25 -->
      <g style="fill: #262626" transform="translate(809.923627 283.873437) scale(0.14 -0.14)">
       <use xlink:href="#ArialMT-32"/>
       <use xlink:href="#ArialMT-35" transform="translate(55.615234 0)"/>
      </g>
     </g>
    </g>
    <g id="text_18">
     <!-- Missing Rate [%] -->
     <g style="fill: #262626" transform="translate(633.218062 302.303437) scale(0.16 -0.16)">
      <use xlink:href="#ArialMT-4d"/>
      <use xlink:href="#ArialMT-69" transform="translate(83.300781 0)"/>
      <use xlink:href="#ArialMT-73" transform="translate(105.517578 0)"/>
      <use xlink:href="#ArialMT-73" transform="translate(155.517578 0)"/>
      <use xlink:href="#ArialMT-69" transform="translate(205.517578 0)"/>
      <use xlink:href="#ArialMT-6e" transform="translate(227.734375 0)"/>
      <use xlink:href="#ArialMT-67" transform="translate(283.349609 0)"/>
      <use xlink:href="#ArialMT-20" transform="translate(338.964844 0)"/>
      <use xlink:href="#ArialMT-52" transform="translate(366.748047 0)"/>
      <use xlink:href="#ArialMT-61" transform="translate(438.964844 0)"/>
      <use xlink:href="#ArialMT-74" transform="translate(494.580078 0)"/>
      <use xlink:href="#ArialMT-65" transform="translate(522.363281 0)"/>
      <use xlink:href="#ArialMT-20" transform="translate(577.978516 0)"/>
      <use xlink:href="#ArialMT-5b" transform="translate(605.761719 0)"/>
      <use xlink:href="#ArialMT-25" transform="translate(633.544922 0)"/>
      <use xlink:href="#ArialMT-5d" transform="translate(722.460938 0)"/>
     </g>
    </g>
   </g>
   <g id="matplotlib.axis_4">
    <g id="ytick_10">
     <g id="line2d_24">
      <path d="M 501.546562 264.3525 
L 884.924562 264.3525 
" clip-path="url(#p08905c0a35)" style="fill: none; stroke: #cccccc; stroke-opacity: 0.7; stroke-linecap: round"/>
     </g>
     <g id="text_19">
      <!-- 0.0 -->
      <g style="fill: #262626" transform="translate(476.756562 268.289297) scale(0.11 -0.11)">
       <defs>
        <path id="ArialMT-2e" d="M 581 0 
L 581 641 
L 1222 641 
L 1222 0 
L 581 0 
z
" transform="scale(0.015625)"/>
       </defs>
       <use xlink:href="#ArialMT-30"/>
       <use xlink:href="#ArialMT-2e" transform="translate(55.615234 0)"/>
       <use xlink:href="#ArialMT-30" transform="translate(83.398438 0)"/>
      </g>
     </g>
    </g>
    <g id="ytick_11">
     <g id="line2d_25">
      <path d="M 501.546562 229.636368 
L 884.924562 229.636368 
" clip-path="url(#p08905c0a35)" style="fill: none; stroke: #cccccc; stroke-opacity: 0.7; stroke-linecap: round"/>
     </g>
     <g id="text_20">
      <!-- 0.5 -->
      <g style="fill: #262626" transform="translate(476.756562 233.573165) scale(0.11 -0.11)">
       <use xlink:href="#ArialMT-30"/>
       <use xlink:href="#ArialMT-2e" transform="translate(55.615234 0)"/>
       <use xlink:href="#ArialMT-35" transform="translate(83.398438 0)"/>
      </g>
     </g>
    </g>
    <g id="ytick_12">
     <g id="line2d_26">
      <path d="M 501.546562 194.920236 
L 884.924562 194.920236 
" clip-path="url(#p08905c0a35)" style="fill: none; stroke: #cccccc; stroke-opacity: 0.7; stroke-linecap: round"/>
     </g>
     <g id="text_21">
      <!-- 1.0 -->
      <g style="fill: #262626" transform="translate(476.756562 198.857033) scale(0.11 -0.11)">
       <use xlink:href="#ArialMT-31"/>
       <use xlink:href="#ArialMT-2e" transform="translate(55.615234 0)"/>
       <use xlink:href="#ArialMT-30" transform="translate(83.398438 0)"/>
      </g>
     </g>
    </g>
    <g id="ytick_13">
     <g id="line2d_27">
      <path d="M 501.546562 160.204104 
L 884.924562 160.204104 
" clip-path="url(#p08905c0a35)" style="fill: none; stroke: #cccccc; stroke-opacity: 0.7; stroke-linecap: round"/>
     </g>
     <g id="text_22">
      <!-- 1.5 -->
      <g style="fill: #262626" transform="translate(476.756562 164.140901) scale(0.11 -0.11)">
       <use xlink:href="#ArialMT-31"/>
       <use xlink:href="#ArialMT-2e" transform="translate(55.615234 0)"/>
       <use xlink:href="#ArialMT-35" transform="translate(83.398438 0)"/>
      </g>
     </g>
    </g>
    <g id="ytick_14">
     <g id="line2d_28">
      <path d="M 501.546562 125.487973 
L 884.924562 125.487973 
" clip-path="url(#p08905c0a35)" style="fill: none; stroke: #cccccc; stroke-opacity: 0.7; stroke-linecap: round"/>
     </g>
     <g id="text_23">
      <!-- 2.0 -->
      <g style="fill: #262626" transform="translate(476.756562 129.424769) scale(0.11 -0.11)">
       <use xlink:href="#ArialMT-32"/>
       <use xlink:href="#ArialMT-2e" transform="translate(55.615234 0)"/>
       <use xlink:href="#ArialMT-30" transform="translate(83.398438 0)"/>
      </g>
     </g>
    </g>
    <g id="ytick_15">
     <g id="line2d_29">
      <path d="M 501.546562 90.771841 
L 884.924562 90.771841 
" clip-path="url(#p08905c0a35)" style="fill: none; stroke: #cccccc; stroke-opacity: 0.7; stroke-linecap: round"/>
     </g>
     <g id="text_24">
      <!-- 2.5 -->
      <g style="fill: #262626" transform="translate(476.756562 94.708638) scale(0.11 -0.11)">
       <use xlink:href="#ArialMT-32"/>
       <use xlink:href="#ArialMT-2e" transform="translate(55.615234 0)"/>
       <use xlink:href="#ArialMT-35" transform="translate(83.398438 0)"/>
      </g>
     </g>
    </g>
    <g id="ytick_16">
     <g id="line2d_30">
      <path d="M 501.546562 56.055709 
L 884.924562 56.055709 
" clip-path="url(#p08905c0a35)" style="fill: none; stroke: #cccccc; stroke-opacity: 0.7; stroke-linecap: round"/>
     </g>
     <g id="text_25">
      <!-- 3.0 -->
      <g style="fill: #262626" transform="translate(476.756562 59.992506) scale(0.11 -0.11)">
       <defs>
        <path id="ArialMT-33" d="M 269 1209 
L 831 1284 
Q 928 806 1161 595 
Q 1394 384 1728 384 
Q 2125 384 2398 659 
Q 2672 934 2672 1341 
Q 2672 1728 2419 1979 
Q 2166 2231 1775 2231 
Q 1616 2231 1378 2169 
L 1441 2663 
Q 1497 2656 1531 2656 
Q 1891 2656 2178 2843 
Q 2466 3031 2466 3422 
Q 2466 3731 2256 3934 
Q 2047 4138 1716 4138 
Q 1388 4138 1169 3931 
Q 950 3725 888 3313 
L 325 3413 
Q 428 3978 793 4289 
Q 1159 4600 1703 4600 
Q 2078 4600 2393 4439 
Q 2709 4278 2876 4000 
Q 3044 3722 3044 3409 
Q 3044 3113 2884 2869 
Q 2725 2625 2413 2481 
Q 2819 2388 3044 2092 
Q 3269 1797 3269 1353 
Q 3269 753 2831 336 
Q 2394 -81 1725 -81 
Q 1122 -81 723 278 
Q 325 638 269 1209 
z
" transform="scale(0.015625)"/>
       </defs>
       <use xlink:href="#ArialMT-33"/>
       <use xlink:href="#ArialMT-2e" transform="translate(55.615234 0)"/>
       <use xlink:href="#ArialMT-30" transform="translate(83.398438 0)"/>
      </g>
     </g>
    </g>
    <g id="ytick_17">
     <g id="line2d_31">
      <path d="M 501.546562 21.339577 
L 884.924562 21.339577 
" clip-path="url(#p08905c0a35)" style="fill: none; stroke: #cccccc; stroke-opacity: 0.7; stroke-linecap: round"/>
     </g>
     <g id="text_26">
      <!-- 3.5 -->
      <g style="fill: #262626" transform="translate(476.756562 25.276374) scale(0.11 -0.11)">
       <use xlink:href="#ArialMT-33"/>
       <use xlink:href="#ArialMT-2e" transform="translate(55.615234 0)"/>
       <use xlink:href="#ArialMT-35" transform="translate(83.398438 0)"/>
      </g>
     </g>
    </g>
    <g id="text_27">
     <!-- Wasserstein Distance - H$_1$ -->
     <g style="fill: #262626" transform="translate(469.576562 229.93625) rotate(-90) scale(0.16 -0.16)">
      <defs>
       <path id="DejaVuSans-31" d="M 794 531 
L 1825 531 
L 1825 4091 
L 703 3866 
L 703 4441 
L 1819 4666 
L 2450 4666 
L 2450 531 
L 3481 531 
L 3481 0 
L 794 0 
L 794 531 
z
" transform="scale(0.015625)"/>
      </defs>
      <use xlink:href="#ArialMT-57" transform="translate(0 0.421875)"/>
      <use xlink:href="#ArialMT-61" transform="translate(94.384766 0.421875)"/>
      <use xlink:href="#ArialMT-73" transform="translate(150 0.421875)"/>
      <use xlink:href="#ArialMT-73" transform="translate(200 0.421875)"/>
      <use xlink:href="#ArialMT-65" transform="translate(250 0.421875)"/>
      <use xlink:href="#ArialMT-72" transform="translate(305.615234 0.421875)"/>
      <use xlink:href="#ArialMT-73" transform="translate(338.916016 0.421875)"/>
      <use xlink:href="#ArialMT-74" transform="translate(388.916016 0.421875)"/>
      <use xlink:href="#ArialMT-65" transform="translate(416.699219 0.421875)"/>
      <use xlink:href="#ArialMT-69" transform="translate(472.314453 0.421875)"/>
      <use xlink:href="#ArialMT-6e" transform="translate(494.53125 0.421875)"/>
      <use xlink:href="#ArialMT-20" transform="translate(550.146484 0.421875)"/>
      <use xlink:href="#ArialMT-44" transform="translate(577.929688 0.421875)"/>
      <use xlink:href="#ArialMT-69" transform="translate(650.146484 0.421875)"/>
      <use xlink:href="#ArialMT-73" transform="translate(672.363281 0.421875)"/>
      <use xlink:href="#ArialMT-74" transform="translate(722.363281 0.421875)"/>
      <use xlink:href="#ArialMT-61" transform="translate(750.146484 0.421875)"/>
      <use xlink:href="#ArialMT-6e" transform="translate(805.761719 0.421875)"/>
      <use xlink:href="#ArialMT-63" transform="translate(861.376953 0.421875)"/>
      <use xlink:href="#ArialMT-65" transform="translate(911.376953 0.421875)"/>
      <use xlink:href="#ArialMT-20" transform="translate(966.992188 0.421875)"/>
      <use xlink:href="#ArialMT-2d" transform="translate(994.775391 0.421875)"/>
      <use xlink:href="#ArialMT-20" transform="translate(1028.076172 0.421875)"/>
      <use xlink:href="#ArialMT-48" transform="translate(1055.859375 0.421875)"/>
      <use xlink:href="#DejaVuSans-31" transform="translate(1129.033203 -15.984375) scale(0.7)"/>
     </g>
    </g>
   </g>
   <g id="patch_20">
    <path d="M 518.972835 264.3525 
L 543.867511 264.3525 
L 543.867511 205.073663 
L 518.972835 205.073663 
z
" clip-path="url(#p08905c0a35)" style="fill: #1b9e77; stroke: #ffffff; stroke-linejoin: miter"/>
   </g>
   <g id="patch_21">
    <path d="M 643.446212 264.3525 
L 668.340887 264.3525 
L 668.340887 167.910923 
L 643.446212 167.910923 
z
" clip-path="url(#p08905c0a35)" style="fill: #1b9e77; stroke: #ffffff; stroke-linejoin: miter"/>
   </g>
   <g id="patch_22">
    <path d="M 767.919588 264.3525 
L 792.814264 264.3525 
L 792.814264 61.243173 
L 767.919588 61.243173 
z
" clip-path="url(#p08905c0a35)" style="fill: #1b9e77; stroke: #ffffff; stroke-linejoin: miter"/>
   </g>
   <g id="patch_23">
    <path d="M 543.867511 264.3525 
L 568.762186 264.3525 
L 568.762186 255.768978 
L 543.867511 255.768978 
z
" clip-path="url(#p08905c0a35)" style="fill: #d95f02; stroke: #ffffff; stroke-linejoin: miter"/>
   </g>
   <g id="patch_24">
    <path d="M 668.340887 264.3525 
L 693.235562 264.3525 
L 693.235562 252.702783 
L 668.340887 252.702783 
z
" clip-path="url(#p08905c0a35)" style="fill: #d95f02; stroke: #ffffff; stroke-linejoin: miter"/>
   </g>
   <g id="patch_25">
    <path d="M 792.814264 264.3525 
L 817.708939 264.3525 
L 817.708939 249.824418 
L 792.814264 249.824418 
z
" clip-path="url(#p08905c0a35)" style="fill: #d95f02; stroke: #ffffff; stroke-linejoin: miter"/>
   </g>
   <g id="patch_26">
    <path d="M 568.762186 264.3525 
L 593.656861 264.3525 
L 593.656861 259.130319 
L 568.762186 259.130319 
z
" clip-path="url(#p08905c0a35)" style="fill: #7570b3; stroke: #ffffff; stroke-linejoin: miter"/>
   </g>
   <g id="patch_27">
    <path d="M 693.235562 264.3525 
L 718.130238 264.3525 
L 718.130238 257.150936 
L 693.235562 257.150936 
z
" clip-path="url(#p08905c0a35)" style="fill: #7570b3; stroke: #ffffff; stroke-linejoin: miter"/>
   </g>
   <g id="patch_28">
    <path d="M 817.708939 264.3525 
L 842.603614 264.3525 
L 842.603614 255.75967 
L 817.708939 255.75967 
z
" clip-path="url(#p08905c0a35)" style="fill: #7570b3; stroke: #ffffff; stroke-linejoin: miter"/>
   </g>
   <g id="patch_29">
    <path d="M 593.656861 264.3525 
L 618.551537 264.3525 
L 618.551537 244.360181 
L 593.656861 244.360181 
z
" clip-path="url(#p08905c0a35)" style="fill: #e7298a; stroke: #ffffff; stroke-linejoin: miter"/>
   </g>
   <g id="patch_30">
    <path d="M 718.130238 264.3525 
L 743.024913 264.3525 
L 743.024913 228.736096 
L 718.130238 228.736096 
z
" clip-path="url(#p08905c0a35)" style="fill: #e7298a; stroke: #ffffff; stroke-linejoin: miter"/>
   </g>
   <g id="patch_31">
    <path d="M 842.603614 264.3525 
L 867.49829 264.3525 
L 867.49829 186.767471 
L 842.603614 186.767471 
z
" clip-path="url(#p08905c0a35)" style="fill: #e7298a; stroke: #ffffff; stroke-linejoin: miter"/>
   </g>
   <g id="LineCollection_5">
    <path d="M 531.420173 215.523623 
L 531.420173 194.623703 
" clip-path="url(#p08905c0a35)" style="fill: none; stroke: #1a1a1a; stroke-width: 1.5"/>
    <path d="M 655.89355 186.478081 
L 655.89355 149.343765 
" clip-path="url(#p08905c0a35)" style="fill: none; stroke: #1a1a1a; stroke-width: 1.5"/>
    <path d="M 780.366926 103.040988 
L 780.366926 19.445357 
" clip-path="url(#p08905c0a35)" style="fill: none; stroke: #1a1a1a; stroke-width: 1.5"/>
   </g>
   <g id="line2d_32">
    <g clip-path="url(#p08905c0a35)">
     <use xlink:href="#m3fb95a7a8c" x="531.420173" y="215.523623" style="fill: #1a1a1a; stroke: #1a1a1a"/>
     <use xlink:href="#m3fb95a7a8c" x="655.89355" y="186.478081" style="fill: #1a1a1a; stroke: #1a1a1a"/>
     <use xlink:href="#m3fb95a7a8c" x="780.366926" y="103.040988" style="fill: #1a1a1a; stroke: #1a1a1a"/>
    </g>
   </g>
   <g id="line2d_33">
    <g clip-path="url(#p08905c0a35)">
     <use xlink:href="#m3fb95a7a8c" x="531.420173" y="194.623703" style="fill: #1a1a1a; stroke: #1a1a1a"/>
     <use xlink:href="#m3fb95a7a8c" x="655.89355" y="149.343765" style="fill: #1a1a1a; stroke: #1a1a1a"/>
     <use xlink:href="#m3fb95a7a8c" x="780.366926" y="19.445357" style="fill: #1a1a1a; stroke: #1a1a1a"/>
    </g>
   </g>
   <g id="LineCollection_6">
    <path d="M 556.314848 257.139295 
L 556.314848 254.398662 
" clip-path="url(#p08905c0a35)" style="fill: none; stroke: #1a1a1a; stroke-width: 1.5"/>
    <path d="M 680.788225 254.480039 
L 680.788225 250.925527 
" clip-path="url(#p08905c0a35)" style="fill: none; stroke: #1a1a1a; stroke-width: 1.5"/>
    <path d="M 805.261601 252.231544 
L 805.261601 247.417291 
" clip-path="url(#p08905c0a35)" style="fill: none; stroke: #1a1a1a; stroke-width: 1.5"/>
   </g>
   <g id="line2d_34">
    <g clip-path="url(#p08905c0a35)">
     <use xlink:href="#m3fb95a7a8c" x="556.314848" y="257.139295" style="fill: #1a1a1a; stroke: #1a1a1a"/>
     <use xlink:href="#m3fb95a7a8c" x="680.788225" y="254.480039" style="fill: #1a1a1a; stroke: #1a1a1a"/>
     <use xlink:href="#m3fb95a7a8c" x="805.261601" y="252.231544" style="fill: #1a1a1a; stroke: #1a1a1a"/>
    </g>
   </g>
   <g id="line2d_35">
    <g clip-path="url(#p08905c0a35)">
     <use xlink:href="#m3fb95a7a8c" x="556.314848" y="254.398662" style="fill: #1a1a1a; stroke: #1a1a1a"/>
     <use xlink:href="#m3fb95a7a8c" x="680.788225" y="250.925527" style="fill: #1a1a1a; stroke: #1a1a1a"/>
     <use xlink:href="#m3fb95a7a8c" x="805.261601" y="247.417291" style="fill: #1a1a1a; stroke: #1a1a1a"/>
    </g>
   </g>
   <g id="LineCollection_7">
    <path d="M 581.209524 260.081831 
L 581.209524 258.178807 
" clip-path="url(#p08905c0a35)" style="fill: none; stroke: #1a1a1a; stroke-width: 1.5"/>
    <path d="M 705.6829 258.474656 
L 705.6829 255.827215 
" clip-path="url(#p08905c0a35)" style="fill: none; stroke: #1a1a1a; stroke-width: 1.5"/>
    <path d="M 830.156277 257.631292 
L 830.156277 253.888049 
" clip-path="url(#p08905c0a35)" style="fill: none; stroke: #1a1a1a; stroke-width: 1.5"/>
   </g>
   <g id="line2d_36">
    <g clip-path="url(#p08905c0a35)">
     <use xlink:href="#m3fb95a7a8c" x="581.209524" y="260.081831" style="fill: #1a1a1a; stroke: #1a1a1a"/>
     <use xlink:href="#m3fb95a7a8c" x="705.6829" y="258.474656" style="fill: #1a1a1a; stroke: #1a1a1a"/>
     <use xlink:href="#m3fb95a7a8c" x="830.156277" y="257.631292" style="fill: #1a1a1a; stroke: #1a1a1a"/>
    </g>
   </g>
   <g id="line2d_37">
    <g clip-path="url(#p08905c0a35)">
     <use xlink:href="#m3fb95a7a8c" x="581.209524" y="258.178807" style="fill: #1a1a1a; stroke: #1a1a1a"/>
     <use xlink:href="#m3fb95a7a8c" x="705.6829" y="255.827215" style="fill: #1a1a1a; stroke: #1a1a1a"/>
     <use xlink:href="#m3fb95a7a8c" x="830.156277" y="253.888049" style="fill: #1a1a1a; stroke: #1a1a1a"/>
    </g>
   </g>
   <g id="LineCollection_8">
    <path d="M 606.104199 249.234683 
L 606.104199 239.485679 
" clip-path="url(#p08905c0a35)" style="fill: none; stroke: #1a1a1a; stroke-width: 1.5"/>
    <path d="M 730.577575 238.887587 
L 730.577575 218.584605 
" clip-path="url(#p08905c0a35)" style="fill: none; stroke: #1a1a1a; stroke-width: 1.5"/>
    <path d="M 855.050952 204.715366 
L 855.050952 168.819577 
" clip-path="url(#p08905c0a35)" style="fill: none; stroke: #1a1a1a; stroke-width: 1.5"/>
   </g>
   <g id="line2d_38">
    <g clip-path="url(#p08905c0a35)">
     <use xlink:href="#m3fb95a7a8c" x="606.104199" y="249.234683" style="fill: #1a1a1a; stroke: #1a1a1a"/>
     <use xlink:href="#m3fb95a7a8c" x="730.577575" y="238.887587" style="fill: #1a1a1a; stroke: #1a1a1a"/>
     <use xlink:href="#m3fb95a7a8c" x="855.050952" y="204.715366" style="fill: #1a1a1a; stroke: #1a1a1a"/>
    </g>
   </g>
   <g id="line2d_39">
    <g clip-path="url(#p08905c0a35)">
     <use xlink:href="#m3fb95a7a8c" x="606.104199" y="239.485679" style="fill: #1a1a1a; stroke: #1a1a1a"/>
     <use xlink:href="#m3fb95a7a8c" x="730.577575" y="218.584605" style="fill: #1a1a1a; stroke: #1a1a1a"/>
     <use xlink:href="#m3fb95a7a8c" x="855.050952" y="168.819577" style="fill: #1a1a1a; stroke: #1a1a1a"/>
    </g>
   </g>
   <g id="patch_32">
    <path d="M 501.546562 264.3525 
L 501.546562 7.2 
" style="fill: none; stroke: #cccccc; stroke-width: 1.25; stroke-linejoin: miter; stroke-linecap: square"/>
   </g>
   <g id="patch_33">
    <path d="M 884.924562 264.3525 
L 884.924562 7.2 
" style="fill: none; stroke: #cccccc; stroke-width: 1.25; stroke-linejoin: miter; stroke-linecap: square"/>
   </g>
   <g id="patch_34">
    <path d="M 501.546562 264.3525 
L 884.924562 264.3525 
" style="fill: none; stroke: #cccccc; stroke-width: 1.25; stroke-linejoin: miter; stroke-linecap: square"/>
   </g>
   <g id="patch_35">
    <path d="M 501.546562 7.2 
L 884.924562 7.2 
" style="fill: none; stroke: #cccccc; stroke-width: 1.25; stroke-linejoin: miter; stroke-linecap: square"/>
   </g>
  </g>
  <g id="axes_3">
   <g id="patch_36">
    <path d="M 955.526562 264.3525 
L 1338.904562 264.3525 
L 1338.904562 7.2 
L 955.526562 7.2 
z
" style="fill: #ffffff"/>
   </g>
   <g id="matplotlib.axis_5">
    <g id="xtick_7">
     <g id="line2d_40">
      <path d="M 1022.742186 264.3525 
L 1022.742186 7.2 
" clip-path="url(#p4c767ad188)" style="fill: none; stroke: #cccccc; stroke-opacity: 0.7; stroke-linecap: round"/>
     </g>
     <g id="text_28">
      <!-- 5 -->
      <g style="fill: #262626" transform="translate(1018.84953 283.873437) scale(0.14 -0.14)">
       <use xlink:href="#ArialMT-35"/>
      </g>
     </g>
    </g>
    <g id="xtick_8">
     <g id="line2d_41">
      <path d="M 1147.215562 264.3525 
L 1147.215562 7.2 
" clip-path="url(#p4c767ad188)" style="fill: none; stroke: #cccccc; stroke-opacity: 0.7; stroke-linecap: round"/>
     </g>
     <g id="text_29">
      <!-- 10 -->
      <g style="fill: #262626" transform="translate(1139.43025 283.873437) scale(0.14 -0.14)">
       <use xlink:href="#ArialMT-31"/>
       <use xlink:href="#ArialMT-30" transform="translate(55.615234 0)"/>
      </g>
     </g>
    </g>
    <g id="xtick_9">
     <g id="line2d_42">
      <path d="M 1271.688939 264.3525 
L 1271.688939 7.2 
" clip-path="url(#p4c767ad188)" style="fill: none; stroke: #cccccc; stroke-opacity: 0.7; stroke-linecap: round"/>
     </g>
     <g id="text_30">
      <!-- 25 -->
      <g style="fill: #262626" transform="translate(1263.903627 283.873437) scale(0.14 -0.14)">
       <use xlink:href="#ArialMT-32"/>
       <use xlink:href="#ArialMT-35" transform="translate(55.615234 0)"/>
      </g>
     </g>
    </g>
    <g id="text_31">
     <!-- Missing Rate [%] -->
     <g style="fill: #262626" transform="translate(1087.198062 302.303437) scale(0.16 -0.16)">
      <use xlink:href="#ArialMT-4d"/>
      <use xlink:href="#ArialMT-69" transform="translate(83.300781 0)"/>
      <use xlink:href="#ArialMT-73" transform="translate(105.517578 0)"/>
      <use xlink:href="#ArialMT-73" transform="translate(155.517578 0)"/>
      <use xlink:href="#ArialMT-69" transform="translate(205.517578 0)"/>
      <use xlink:href="#ArialMT-6e" transform="translate(227.734375 0)"/>
      <use xlink:href="#ArialMT-67" transform="translate(283.349609 0)"/>
      <use xlink:href="#ArialMT-20" transform="translate(338.964844 0)"/>
      <use xlink:href="#ArialMT-52" transform="translate(366.748047 0)"/>
      <use xlink:href="#ArialMT-61" transform="translate(438.964844 0)"/>
      <use xlink:href="#ArialMT-74" transform="translate(494.580078 0)"/>
      <use xlink:href="#ArialMT-65" transform="translate(522.363281 0)"/>
      <use xlink:href="#ArialMT-20" transform="translate(577.978516 0)"/>
      <use xlink:href="#ArialMT-5b" transform="translate(605.761719 0)"/>
      <use xlink:href="#ArialMT-25" transform="translate(633.544922 0)"/>
      <use xlink:href="#ArialMT-5d" transform="translate(722.460938 0)"/>
     </g>
    </g>
   </g>
   <g id="matplotlib.axis_6">
    <g id="ytick_18">
     <g id="line2d_43">
      <path d="M 955.526562 264.3525 
L 1338.904562 264.3525 
" clip-path="url(#p4c767ad188)" style="fill: none; stroke: #cccccc; stroke-opacity: 0.7; stroke-linecap: round"/>
     </g>
     <g id="text_32">
      <!-- 0.0 -->
      <g style="fill: #262626" transform="translate(930.736562 268.289297) scale(0.11 -0.11)">
       <use xlink:href="#ArialMT-30"/>
       <use xlink:href="#ArialMT-2e" transform="translate(55.615234 0)"/>
       <use xlink:href="#ArialMT-30" transform="translate(83.398438 0)"/>
      </g>
     </g>
    </g>
    <g id="ytick_19">
     <g id="line2d_44">
      <path d="M 955.526562 225.52768 
L 1338.904562 225.52768 
" clip-path="url(#p4c767ad188)" style="fill: none; stroke: #cccccc; stroke-opacity: 0.7; stroke-linecap: round"/>
     </g>
     <g id="text_33">
      <!-- 0.2 -->
      <g style="fill: #262626" transform="translate(930.736562 229.464476) scale(0.11 -0.11)">
       <use xlink:href="#ArialMT-30"/>
       <use xlink:href="#ArialMT-2e" transform="translate(55.615234 0)"/>
       <use xlink:href="#ArialMT-32" transform="translate(83.398438 0)"/>
      </g>
     </g>
    </g>
    <g id="ytick_20">
     <g id="line2d_45">
      <path d="M 955.526562 186.702859 
L 1338.904562 186.702859 
" clip-path="url(#p4c767ad188)" style="fill: none; stroke: #cccccc; stroke-opacity: 0.7; stroke-linecap: round"/>
     </g>
     <g id="text_34">
      <!-- 0.4 -->
      <g style="fill: #262626" transform="translate(930.736562 190.639656) scale(0.11 -0.11)">
       <use xlink:href="#ArialMT-30"/>
       <use xlink:href="#ArialMT-2e" transform="translate(55.615234 0)"/>
       <use xlink:href="#ArialMT-34" transform="translate(83.398438 0)"/>
      </g>
     </g>
    </g>
    <g id="ytick_21">
     <g id="line2d_46">
      <path d="M 955.526562 147.878039 
L 1338.904562 147.878039 
" clip-path="url(#p4c767ad188)" style="fill: none; stroke: #cccccc; stroke-opacity: 0.7; stroke-linecap: round"/>
     </g>
     <g id="text_35">
      <!-- 0.6 -->
      <g style="fill: #262626" transform="translate(930.736562 151.814835) scale(0.11 -0.11)">
       <use xlink:href="#ArialMT-30"/>
       <use xlink:href="#ArialMT-2e" transform="translate(55.615234 0)"/>
       <use xlink:href="#ArialMT-36" transform="translate(83.398438 0)"/>
      </g>
     </g>
    </g>
    <g id="ytick_22">
     <g id="line2d_47">
      <path d="M 955.526562 109.053218 
L 1338.904562 109.053218 
" clip-path="url(#p4c767ad188)" style="fill: none; stroke: #cccccc; stroke-opacity: 0.7; stroke-linecap: round"/>
     </g>
     <g id="text_36">
      <!-- 0.8 -->
      <g style="fill: #262626" transform="translate(930.736562 112.990015) scale(0.11 -0.11)">
       <use xlink:href="#ArialMT-30"/>
       <use xlink:href="#ArialMT-2e" transform="translate(55.615234 0)"/>
       <use xlink:href="#ArialMT-38" transform="translate(83.398438 0)"/>
      </g>
     </g>
    </g>
    <g id="ytick_23">
     <g id="line2d_48">
      <path d="M 955.526562 70.228398 
L 1338.904562 70.228398 
" clip-path="url(#p4c767ad188)" style="fill: none; stroke: #cccccc; stroke-opacity: 0.7; stroke-linecap: round"/>
     </g>
     <g id="text_37">
      <!-- 1.0 -->
      <g style="fill: #262626" transform="translate(930.736562 74.165194) scale(0.11 -0.11)">
       <use xlink:href="#ArialMT-31"/>
       <use xlink:href="#ArialMT-2e" transform="translate(55.615234 0)"/>
       <use xlink:href="#ArialMT-30" transform="translate(83.398438 0)"/>
      </g>
     </g>
    </g>
    <g id="ytick_24">
     <g id="line2d_49">
      <path d="M 955.526562 31.403577 
L 1338.904562 31.403577 
" clip-path="url(#p4c767ad188)" style="fill: none; stroke: #cccccc; stroke-opacity: 0.7; stroke-linecap: round"/>
     </g>
     <g id="text_38">
      <!-- 1.2 -->
      <g style="fill: #262626" transform="translate(930.736562 35.340374) scale(0.11 -0.11)">
       <use xlink:href="#ArialMT-31"/>
       <use xlink:href="#ArialMT-2e" transform="translate(55.615234 0)"/>
       <use xlink:href="#ArialMT-32" transform="translate(83.398438 0)"/>
      </g>
     </g>
    </g>
    <g id="text_39">
     <!-- Wasserstein Distance - H$_2$ -->
     <g style="fill: #262626" transform="translate(923.556562 229.93625) rotate(-90) scale(0.16 -0.16)">
      <defs>
       <path id="DejaVuSans-32" d="M 1228 531 
L 3431 531 
L 3431 0 
L 469 0 
L 469 531 
Q 828 903 1448 1529 
Q 2069 2156 2228 2338 
Q 2531 2678 2651 2914 
Q 2772 3150 2772 3378 
Q 2772 3750 2511 3984 
Q 2250 4219 1831 4219 
Q 1534 4219 1204 4116 
Q 875 4013 500 3803 
L 500 4441 
Q 881 4594 1212 4672 
Q 1544 4750 1819 4750 
Q 2544 4750 2975 4387 
Q 3406 4025 3406 3419 
Q 3406 3131 3298 2873 
Q 3191 2616 2906 2266 
Q 2828 2175 2409 1742 
Q 1991 1309 1228 531 
z
" transform="scale(0.015625)"/>
      </defs>
      <use xlink:href="#ArialMT-57" transform="translate(0 0.421875)"/>
      <use xlink:href="#ArialMT-61" transform="translate(94.384766 0.421875)"/>
      <use xlink:href="#ArialMT-73" transform="translate(150 0.421875)"/>
      <use xlink:href="#ArialMT-73" transform="translate(200 0.421875)"/>
      <use xlink:href="#ArialMT-65" transform="translate(250 0.421875)"/>
      <use xlink:href="#ArialMT-72" transform="translate(305.615234 0.421875)"/>
      <use xlink:href="#ArialMT-73" transform="translate(338.916016 0.421875)"/>
      <use xlink:href="#ArialMT-74" transform="translate(388.916016 0.421875)"/>
      <use xlink:href="#ArialMT-65" transform="translate(416.699219 0.421875)"/>
      <use xlink:href="#ArialMT-69" transform="translate(472.314453 0.421875)"/>
      <use xlink:href="#ArialMT-6e" transform="translate(494.53125 0.421875)"/>
      <use xlink:href="#ArialMT-20" transform="translate(550.146484 0.421875)"/>
      <use xlink:href="#ArialMT-44" transform="translate(577.929688 0.421875)"/>
      <use xlink:href="#ArialMT-69" transform="translate(650.146484 0.421875)"/>
      <use xlink:href="#ArialMT-73" transform="translate(672.363281 0.421875)"/>
      <use xlink:href="#ArialMT-74" transform="translate(722.363281 0.421875)"/>
      <use xlink:href="#ArialMT-61" transform="translate(750.146484 0.421875)"/>
      <use xlink:href="#ArialMT-6e" transform="translate(805.761719 0.421875)"/>
      <use xlink:href="#ArialMT-63" transform="translate(861.376953 0.421875)"/>
      <use xlink:href="#ArialMT-65" transform="translate(911.376953 0.421875)"/>
      <use xlink:href="#ArialMT-20" transform="translate(966.992188 0.421875)"/>
      <use xlink:href="#ArialMT-2d" transform="translate(994.775391 0.421875)"/>
      <use xlink:href="#ArialMT-20" transform="translate(1028.076172 0.421875)"/>
      <use xlink:href="#ArialMT-48" transform="translate(1055.859375 0.421875)"/>
      <use xlink:href="#DejaVuSans-32" transform="translate(1129.033203 -15.984375) scale(0.7)"/>
     </g>
    </g>
   </g>
   <g id="patch_37">
    <path d="M 972.952835 264.3525 
L 997.847511 264.3525 
L 997.847511 193.188537 
L 972.952835 193.188537 
z
" clip-path="url(#p4c767ad188)" style="fill: #1b9e77; stroke: #ffffff; stroke-linejoin: miter"/>
   </g>
   <g id="patch_38">
    <path d="M 1097.426212 264.3525 
L 1122.320887 264.3525 
L 1122.320887 157.536757 
L 1097.426212 157.536757 
z
" clip-path="url(#p4c767ad188)" style="fill: #1b9e77; stroke: #ffffff; stroke-linejoin: miter"/>
   </g>
   <g id="patch_39">
    <path d="M 1221.899588 264.3525 
L 1246.794264 264.3525 
L 1246.794264 73.744237 
L 1221.899588 73.744237 
z
" clip-path="url(#p4c767ad188)" style="fill: #1b9e77; stroke: #ffffff; stroke-linejoin: miter"/>
   </g>
   <g id="patch_40">
    <path d="M 997.847511 264.3525 
L 1022.742186 264.3525 
L 1022.742186 257.326752 
L 997.847511 257.326752 
z
" clip-path="url(#p4c767ad188)" style="fill: #d95f02; stroke: #ffffff; stroke-linejoin: miter"/>
   </g>
   <g id="patch_41">
    <path d="M 1122.320887 264.3525 
L 1147.215562 264.3525 
L 1147.215562 255.980499 
L 1122.320887 255.980499 
z
" clip-path="url(#p4c767ad188)" style="fill: #d95f02; stroke: #ffffff; stroke-linejoin: miter"/>
   </g>
   <g id="patch_42">
    <path d="M 1246.794264 264.3525 
L 1271.688939 264.3525 
L 1271.688939 254.730003 
L 1246.794264 254.730003 
z
" clip-path="url(#p4c767ad188)" style="fill: #d95f02; stroke: #ffffff; stroke-linejoin: miter"/>
   </g>
   <g id="patch_43">
    <path d="M 1022.742186 264.3525 
L 1047.636861 264.3525 
L 1047.636861 259.923763 
L 1022.742186 259.923763 
z
" clip-path="url(#p4c767ad188)" style="fill: #7570b3; stroke: #ffffff; stroke-linejoin: miter"/>
   </g>
   <g id="patch_44">
    <path d="M 1147.215562 264.3525 
L 1172.110238 264.3525 
L 1172.110238 258.614312 
L 1147.215562 258.614312 
z
" clip-path="url(#p4c767ad188)" style="fill: #7570b3; stroke: #ffffff; stroke-linejoin: miter"/>
   </g>
   <g id="patch_45">
    <path d="M 1271.688939 264.3525 
L 1296.583614 264.3525 
L 1296.583614 258.031265 
L 1271.688939 258.031265 
z
" clip-path="url(#p4c767ad188)" style="fill: #7570b3; stroke: #ffffff; stroke-linejoin: miter"/>
   </g>
   <g id="patch_46">
    <path d="M 1047.636861 264.3525 
L 1072.531537 264.3525 
L 1072.531537 253.953216 
L 1047.636861 253.953216 
z
" clip-path="url(#p4c767ad188)" style="fill: #e7298a; stroke: #ffffff; stroke-linejoin: miter"/>
   </g>
   <g id="patch_47">
    <path d="M 1172.110238 264.3525 
L 1197.004913 264.3525 
L 1197.004913 247.085512 
L 1172.110238 247.085512 
z
" clip-path="url(#p4c767ad188)" style="fill: #e7298a; stroke: #ffffff; stroke-linejoin: miter"/>
   </g>
   <g id="patch_48">
    <path d="M 1296.583614 264.3525 
L 1321.47829 264.3525 
L 1321.47829 233.573271 
L 1296.583614 233.573271 
z
" clip-path="url(#p4c767ad188)" style="fill: #e7298a; stroke: #ffffff; stroke-linejoin: miter"/>
   </g>
   <g id="LineCollection_9">
    <path d="M 985.400173 210.177119 
L 985.400173 176.199956 
" clip-path="url(#p4c767ad188)" style="fill: none; stroke: #1a1a1a; stroke-width: 1.5"/>
    <path d="M 1109.87355 184.001829 
L 1109.87355 131.071686 
" clip-path="url(#p4c767ad188)" style="fill: none; stroke: #1a1a1a; stroke-width: 1.5"/>
    <path d="M 1234.346926 128.043116 
L 1234.346926 19.445357 
" clip-path="url(#p4c767ad188)" style="fill: none; stroke: #1a1a1a; stroke-width: 1.5"/>
   </g>
   <g id="line2d_50">
    <g clip-path="url(#p4c767ad188)">
     <use xlink:href="#m3fb95a7a8c" x="985.400173" y="210.177119" style="fill: #1a1a1a; stroke: #1a1a1a"/>
     <use xlink:href="#m3fb95a7a8c" x="1109.87355" y="184.001829" style="fill: #1a1a1a; stroke: #1a1a1a"/>
     <use xlink:href="#m3fb95a7a8c" x="1234.346926" y="128.043116" style="fill: #1a1a1a; stroke: #1a1a1a"/>
    </g>
   </g>
   <g id="line2d_51">
    <g clip-path="url(#p4c767ad188)">
     <use xlink:href="#m3fb95a7a8c" x="985.400173" y="176.199956" style="fill: #1a1a1a; stroke: #1a1a1a"/>
     <use xlink:href="#m3fb95a7a8c" x="1109.87355" y="131.071686" style="fill: #1a1a1a; stroke: #1a1a1a"/>
     <use xlink:href="#m3fb95a7a8c" x="1234.346926" y="19.445357" style="fill: #1a1a1a; stroke: #1a1a1a"/>
    </g>
   </g>
   <g id="LineCollection_10">
    <path d="M 1010.294848 259.998865 
L 1010.294848 254.65464 
" clip-path="url(#p4c767ad188)" style="fill: none; stroke: #1a1a1a; stroke-width: 1.5"/>
    <path d="M 1134.768225 259.027162 
L 1134.768225 252.933836 
" clip-path="url(#p4c767ad188)" style="fill: none; stroke: #1a1a1a; stroke-width: 1.5"/>
    <path d="M 1259.241601 258.326715 
L 1259.241601 251.133291 
" clip-path="url(#p4c767ad188)" style="fill: none; stroke: #1a1a1a; stroke-width: 1.5"/>
   </g>
   <g id="line2d_52">
    <g clip-path="url(#p4c767ad188)">
     <use xlink:href="#m3fb95a7a8c" x="1010.294848" y="259.998865" style="fill: #1a1a1a; stroke: #1a1a1a"/>
     <use xlink:href="#m3fb95a7a8c" x="1134.768225" y="259.027162" style="fill: #1a1a1a; stroke: #1a1a1a"/>
     <use xlink:href="#m3fb95a7a8c" x="1259.241601" y="258.326715" style="fill: #1a1a1a; stroke: #1a1a1a"/>
    </g>
   </g>
   <g id="line2d_53">
    <g clip-path="url(#p4c767ad188)">
     <use xlink:href="#m3fb95a7a8c" x="1010.294848" y="254.65464" style="fill: #1a1a1a; stroke: #1a1a1a"/>
     <use xlink:href="#m3fb95a7a8c" x="1134.768225" y="252.933836" style="fill: #1a1a1a; stroke: #1a1a1a"/>
     <use xlink:href="#m3fb95a7a8c" x="1259.241601" y="251.133291" style="fill: #1a1a1a; stroke: #1a1a1a"/>
    </g>
   </g>
   <g id="LineCollection_11">
    <path d="M 1035.189524 262.253678 
L 1035.189524 257.593847 
" clip-path="url(#p4c767ad188)" style="fill: none; stroke: #1a1a1a; stroke-width: 1.5"/>
    <path d="M 1159.6629 261.538172 
L 1159.6629 255.690452 
" clip-path="url(#p4c767ad188)" style="fill: none; stroke: #1a1a1a; stroke-width: 1.5"/>
    <path d="M 1284.136277 261.450633 
L 1284.136277 254.611896 
" clip-path="url(#p4c767ad188)" style="fill: none; stroke: #1a1a1a; stroke-width: 1.5"/>
   </g>
   <g id="line2d_54">
    <g clip-path="url(#p4c767ad188)">
     <use xlink:href="#m3fb95a7a8c" x="1035.189524" y="262.253678" style="fill: #1a1a1a; stroke: #1a1a1a"/>
     <use xlink:href="#m3fb95a7a8c" x="1159.6629" y="261.538172" style="fill: #1a1a1a; stroke: #1a1a1a"/>
     <use xlink:href="#m3fb95a7a8c" x="1284.136277" y="261.450633" style="fill: #1a1a1a; stroke: #1a1a1a"/>
    </g>
   </g>
   <g id="line2d_55">
    <g clip-path="url(#p4c767ad188)">
     <use xlink:href="#m3fb95a7a8c" x="1035.189524" y="257.593847" style="fill: #1a1a1a; stroke: #1a1a1a"/>
     <use xlink:href="#m3fb95a7a8c" x="1159.6629" y="255.690452" style="fill: #1a1a1a; stroke: #1a1a1a"/>
     <use xlink:href="#m3fb95a7a8c" x="1284.136277" y="254.611896" style="fill: #1a1a1a; stroke: #1a1a1a"/>
    </g>
   </g>
   <g id="LineCollection_12">
    <path d="M 1060.084199 258.760859 
L 1060.084199 249.145572 
" clip-path="url(#p4c767ad188)" style="fill: none; stroke: #1a1a1a; stroke-width: 1.5"/>
    <path d="M 1184.557575 255.579628 
L 1184.557575 238.591395 
" clip-path="url(#p4c767ad188)" style="fill: none; stroke: #1a1a1a; stroke-width: 1.5"/>
    <path d="M 1309.030952 246.216255 
L 1309.030952 220.930287 
" clip-path="url(#p4c767ad188)" style="fill: none; stroke: #1a1a1a; stroke-width: 1.5"/>
   </g>
   <g id="line2d_56">
    <g clip-path="url(#p4c767ad188)">
     <use xlink:href="#m3fb95a7a8c" x="1060.084199" y="258.760859" style="fill: #1a1a1a; stroke: #1a1a1a"/>
     <use xlink:href="#m3fb95a7a8c" x="1184.557575" y="255.579628" style="fill: #1a1a1a; stroke: #1a1a1a"/>
     <use xlink:href="#m3fb95a7a8c" x="1309.030952" y="246.216255" style="fill: #1a1a1a; stroke: #1a1a1a"/>
    </g>
   </g>
   <g id="line2d_57">
    <g clip-path="url(#p4c767ad188)">
     <use xlink:href="#m3fb95a7a8c" x="1060.084199" y="249.145572" style="fill: #1a1a1a; stroke: #1a1a1a"/>
     <use xlink:href="#m3fb95a7a8c" x="1184.557575" y="238.591395" style="fill: #1a1a1a; stroke: #1a1a1a"/>
     <use xlink:href="#m3fb95a7a8c" x="1309.030952" y="220.930287" style="fill: #1a1a1a; stroke: #1a1a1a"/>
    </g>
   </g>
   <g id="patch_49">
    <path d="M 955.526562 264.3525 
L 955.526562 7.2 
" style="fill: none; stroke: #cccccc; stroke-width: 1.25; stroke-linejoin: miter; stroke-linecap: square"/>
   </g>
   <g id="patch_50">
    <path d="M 1338.904562 264.3525 
L 1338.904562 7.2 
" style="fill: none; stroke: #cccccc; stroke-width: 1.25; stroke-linejoin: miter; stroke-linecap: square"/>
   </g>
   <g id="patch_51">
    <path d="M 955.526562 264.3525 
L 1338.904562 264.3525 
" style="fill: none; stroke: #cccccc; stroke-width: 1.25; stroke-linejoin: miter; stroke-linecap: square"/>
   </g>
   <g id="patch_52">
    <path d="M 955.526562 7.2 
L 1338.904562 7.2 
" style="fill: none; stroke: #cccccc; stroke-width: 1.25; stroke-linejoin: miter; stroke-linecap: square"/>
   </g>
  </g>
  <g id="legend_1">
   <g id="patch_53">
    <path d="M 184.186906 342.02 
L 1158.742219 342.02 
Q 1161.542219 342.02 1161.542219 339.22 
L 1161.542219 318.22 
Q 1161.542219 315.42 1158.742219 315.42 
L 184.186906 315.42 
Q 181.386906 315.42 181.386906 318.22 
L 181.386906 339.22 
Q 181.386906 342.02 184.186906 342.02 
z
" style="fill: #ffffff; opacity: 0.8; stroke: #cccccc; stroke-linejoin: miter"/>
   </g>
   <g id="patch_54">
    <path d="M 186.986906 333.34 
L 214.986906 333.34 
L 214.986906 323.54 
L 186.986906 323.54 
z
" style="fill: #1b9e77; stroke: #ffffff; stroke-linejoin: miter"/>
   </g>
   <g id="text_40">
    <!-- Vietoris-Rips Filtration -->
    <g style="fill: #262626" transform="translate(226.186906 333.34) scale(0.14 -0.14)">
     <defs>
      <path id="ArialMT-56" d="M 1803 0 
L 28 4581 
L 684 4581 
L 1875 1253 
Q 2019 853 2116 503 
Q 2222 878 2363 1253 
L 3600 4581 
L 4219 4581 
L 2425 0 
L 1803 0 
z
" transform="scale(0.015625)"/>
      <path id="ArialMT-6f" d="M 213 1659 
Q 213 2581 725 3025 
Q 1153 3394 1769 3394 
Q 2453 3394 2887 2945 
Q 3322 2497 3322 1706 
Q 3322 1066 3130 698 
Q 2938 331 2570 128 
Q 2203 -75 1769 -75 
Q 1072 -75 642 372 
Q 213 819 213 1659 
z
M 791 1659 
Q 791 1022 1069 705 
Q 1347 388 1769 388 
Q 2188 388 2466 706 
Q 2744 1025 2744 1678 
Q 2744 2294 2464 2611 
Q 2184 2928 1769 2928 
Q 1347 2928 1069 2612 
Q 791 2297 791 1659 
z
" transform="scale(0.015625)"/>
      <path id="ArialMT-70" d="M 422 -1272 
L 422 3319 
L 934 3319 
L 934 2888 
Q 1116 3141 1344 3267 
Q 1572 3394 1897 3394 
Q 2322 3394 2647 3175 
Q 2972 2956 3137 2557 
Q 3303 2159 3303 1684 
Q 3303 1175 3120 767 
Q 2938 359 2589 142 
Q 2241 -75 1856 -75 
Q 1575 -75 1351 44 
Q 1128 163 984 344 
L 984 -1272 
L 422 -1272 
z
M 931 1641 
Q 931 1000 1190 694 
Q 1450 388 1819 388 
Q 2194 388 2461 705 
Q 2728 1022 2728 1688 
Q 2728 2322 2467 2637 
Q 2206 2953 1844 2953 
Q 1484 2953 1207 2617 
Q 931 2281 931 1641 
z
" transform="scale(0.015625)"/>
      <path id="ArialMT-46" d="M 525 0 
L 525 4581 
L 3616 4581 
L 3616 4041 
L 1131 4041 
L 1131 2622 
L 3281 2622 
L 3281 2081 
L 1131 2081 
L 1131 0 
L 525 0 
z
" transform="scale(0.015625)"/>
      <path id="ArialMT-6c" d="M 409 0 
L 409 4581 
L 972 4581 
L 972 0 
L 409 0 
z
" transform="scale(0.015625)"/>
     </defs>
     <use xlink:href="#ArialMT-56"/>
     <use xlink:href="#ArialMT-69" transform="translate(64.949219 0)"/>
     <use xlink:href="#ArialMT-65" transform="translate(87.166016 0)"/>
     <use xlink:href="#ArialMT-74" transform="translate(142.78125 0)"/>
     <use xlink:href="#ArialMT-6f" transform="translate(170.564453 0)"/>
     <use xlink:href="#ArialMT-72" transform="translate(226.179688 0)"/>
     <use xlink:href="#ArialMT-69" transform="translate(259.480469 0)"/>
     <use xlink:href="#ArialMT-73" transform="translate(281.697266 0)"/>
     <use xlink:href="#ArialMT-2d" transform="translate(331.697266 0)"/>
     <use xlink:href="#ArialMT-52" transform="translate(364.998047 0)"/>
     <use xlink:href="#ArialMT-69" transform="translate(437.214844 0)"/>
     <use xlink:href="#ArialMT-70" transform="translate(459.431641 0)"/>
     <use xlink:href="#ArialMT-73" transform="translate(515.046875 0)"/>
     <use xlink:href="#ArialMT-20" transform="translate(565.046875 0)"/>
     <use xlink:href="#ArialMT-46" transform="translate(592.830078 0)"/>
     <use xlink:href="#ArialMT-69" transform="translate(653.914062 0)"/>
     <use xlink:href="#ArialMT-6c" transform="translate(676.130859 0)"/>
     <use xlink:href="#ArialMT-74" transform="translate(698.347656 0)"/>
     <use xlink:href="#ArialMT-72" transform="translate(726.130859 0)"/>
     <use xlink:href="#ArialMT-61" transform="translate(759.431641 0)"/>
     <use xlink:href="#ArialMT-74" transform="translate(815.046875 0)"/>
     <use xlink:href="#ArialMT-69" transform="translate(842.830078 0)"/>
     <use xlink:href="#ArialMT-6f" transform="translate(865.046875 0)"/>
     <use xlink:href="#ArialMT-6e" transform="translate(920.662109 0)"/>
    </g>
   </g>
   <g id="patch_55">
    <path d="M 390.859719 333.34 
L 418.859719 333.34 
L 418.859719 323.54 
L 390.859719 323.54 
z
" style="fill: #d95f02; stroke: #ffffff; stroke-linejoin: miter"/>
   </g>
   <g id="text_41">
    <!-- Distance To a Measure ($k = \sqrt{n}$) -->
    <g style="fill: #262626" transform="translate(430.059719 333.34) scale(0.14 -0.14)">
     <defs>
      <path id="ArialMT-54" d="M 1659 0 
L 1659 4041 
L 150 4041 
L 150 4581 
L 3781 4581 
L 3781 4041 
L 2266 4041 
L 2266 0 
L 1659 0 
z
" transform="scale(0.015625)"/>
      <path id="ArialMT-75" d="M 2597 0 
L 2597 488 
Q 2209 -75 1544 -75 
Q 1250 -75 995 37 
Q 741 150 617 320 
Q 494 491 444 738 
Q 409 903 409 1263 
L 409 3319 
L 972 3319 
L 972 1478 
Q 972 1038 1006 884 
Q 1059 663 1231 536 
Q 1403 409 1656 409 
Q 1909 409 2131 539 
Q 2353 669 2445 892 
Q 2538 1116 2538 1541 
L 2538 3319 
L 3100 3319 
L 3100 0 
L 2597 0 
z
" transform="scale(0.015625)"/>
      <path id="ArialMT-28" d="M 1497 -1347 
Q 1031 -759 709 28 
Q 388 816 388 1659 
Q 388 2403 628 3084 
Q 909 3875 1497 4659 
L 1900 4659 
Q 1522 4009 1400 3731 
Q 1209 3300 1100 2831 
Q 966 2247 966 1656 
Q 966 153 1900 -1347 
L 1497 -1347 
z
" transform="scale(0.015625)"/>
      <path id="DejaVuSans-Oblique-6b" d="M 1172 4863 
L 1747 4863 
L 1197 2028 
L 3169 3500 
L 3916 3500 
L 1716 1825 
L 3322 0 
L 2625 0 
L 1131 1709 
L 800 0 
L 225 0 
L 1172 4863 
z
" transform="scale(0.015625)"/>
      <path id="DejaVuSans-3d" d="M 678 2906 
L 4684 2906 
L 4684 2381 
L 678 2381 
L 678 2906 
z
M 678 1631 
L 4684 1631 
L 4684 1100 
L 678 1100 
L 678 1631 
z
" transform="scale(0.015625)"/>
      <path id="DejaVuSans-221a" d="M 3488 5191 
L 4078 5191 
L 4078 4891 
L 3719 4891 
L 1863 -128 
L 1656 -128 
L 659 2631 
L 269 2491 
L 191 2741 
L 1075 3047 
L 1875 831 
L 3488 5191 
z
" transform="scale(0.015625)"/>
      <path id="DejaVuSans-Oblique-6e" d="M 3566 2113 
L 3156 0 
L 2578 0 
L 2988 2091 
Q 3016 2238 3031 2350 
Q 3047 2463 3047 2528 
Q 3047 2791 2881 2937 
Q 2716 3084 2419 3084 
Q 1956 3084 1622 2776 
Q 1288 2469 1184 1941 
L 800 0 
L 225 0 
L 903 3500 
L 1478 3500 
L 1363 2950 
Q 1603 3253 1940 3418 
Q 2278 3584 2650 3584 
Q 3113 3584 3367 3334 
Q 3622 3084 3622 2631 
Q 3622 2519 3608 2391 
Q 3594 2263 3566 2113 
z
" transform="scale(0.015625)"/>
      <path id="ArialMT-29" d="M 791 -1347 
L 388 -1347 
Q 1322 153 1322 1656 
Q 1322 2244 1188 2822 
Q 1081 3291 891 3722 
Q 769 4003 388 4659 
L 791 4659 
Q 1378 3875 1659 3084 
Q 1900 2403 1900 1659 
Q 1900 816 1576 28 
Q 1253 -759 791 -1347 
z
" transform="scale(0.015625)"/>
     </defs>
     <use xlink:href="#ArialMT-44" transform="translate(0 0.890625)"/>
     <use xlink:href="#ArialMT-69" transform="translate(72.216797 0.890625)"/>
     <use xlink:href="#ArialMT-73" transform="translate(94.433594 0.890625)"/>
     <use xlink:href="#ArialMT-74" transform="translate(144.433594 0.890625)"/>
     <use xlink:href="#ArialMT-61" transform="translate(172.216797 0.890625)"/>
     <use xlink:href="#ArialMT-6e" transform="translate(227.832031 0.890625)"/>
     <use xlink:href="#ArialMT-63" transform="translate(283.447266 0.890625)"/>
     <use xlink:href="#ArialMT-65" transform="translate(333.447266 0.890625)"/>
     <use xlink:href="#ArialMT-20" transform="translate(389.0625 0.890625)"/>
     <use xlink:href="#ArialMT-54" transform="translate(416.845703 0.890625)"/>
     <use xlink:href="#ArialMT-6f" transform="translate(477.929688 0.890625)"/>
     <use xlink:href="#ArialMT-20" transform="translate(533.544922 0.890625)"/>
     <use xlink:href="#ArialMT-61" transform="translate(561.328125 0.890625)"/>
     <use xlink:href="#ArialMT-20" transform="translate(616.943359 0.890625)"/>
     <use xlink:href="#ArialMT-4d" transform="translate(644.726562 0.890625)"/>
     <use xlink:href="#ArialMT-65" transform="translate(728.027344 0.890625)"/>
     <use xlink:href="#ArialMT-61" transform="translate(783.642578 0.890625)"/>
     <use xlink:href="#ArialMT-73" transform="translate(839.257812 0.890625)"/>
     <use xlink:href="#ArialMT-75" transform="translate(889.257812 0.890625)"/>
     <use xlink:href="#ArialMT-72" transform="translate(944.873047 0.890625)"/>
     <use xlink:href="#ArialMT-65" transform="translate(978.173828 0.890625)"/>
     <use xlink:href="#ArialMT-20" transform="translate(1033.789062 0.890625)"/>
     <use xlink:href="#ArialMT-28" transform="translate(1061.572266 0.890625)"/>
     <use xlink:href="#DejaVuSans-Oblique-6b" transform="translate(1094.873047 0.890625)"/>
     <use xlink:href="#DejaVuSans-3d" transform="translate(1172.265625 0.890625)"/>
     <use xlink:href="#DejaVuSans-221a" transform="translate(1275.537109 0.890625)"/>
     <use xlink:href="#DejaVuSans-Oblique-6e" transform="translate(1351.757812 0.75)"/>
     <use xlink:href="#ArialMT-29" transform="translate(1427.636719 0.890625)"/>
     <path d="M 1339.257812 75.5 
L 1339.257812 81.75 
L 1427.636719 81.75 
L 1427.636719 75.5 
L 1339.257812 75.5 
z
"/>
    </g>
   </g>
   <g id="patch_56">
    <path d="M 662.599719 333.34 
L 690.599719 333.34 
L 690.599719 323.54 
L 662.599719 323.54 
z
" style="fill: #7570b3; stroke: #ffffff; stroke-linejoin: miter"/>
   </g>
   <g id="text_42">
    <!-- Distance To a Measure ($k = \lceil m n \rceil,\, m = 0.05$) -->
    <g style="fill: #262626" transform="translate(701.799719 333.34) scale(0.14 -0.14)">
     <defs>
      <path id="DejaVuSans-2308" d="M 550 4863 
L 1875 4863 
L 1875 4416 
L 1125 4416 
L 1125 -844 
L 550 -844 
L 550 4863 
z
" transform="scale(0.015625)"/>
      <path id="DejaVuSans-Oblique-6d" d="M 5747 2113 
L 5338 0 
L 4763 0 
L 5166 2094 
Q 5191 2228 5203 2325 
Q 5216 2422 5216 2491 
Q 5216 2772 5059 2928 
Q 4903 3084 4622 3084 
Q 4203 3084 3875 2770 
Q 3547 2456 3450 1953 
L 3066 0 
L 2491 0 
L 2900 2094 
Q 2925 2209 2937 2307 
Q 2950 2406 2950 2484 
Q 2950 2769 2794 2926 
Q 2638 3084 2363 3084 
Q 1938 3084 1609 2770 
Q 1281 2456 1184 1953 
L 800 0 
L 225 0 
L 909 3500 
L 1484 3500 
L 1375 2956 
Q 1609 3263 1923 3423 
Q 2238 3584 2597 3584 
Q 2978 3584 3223 3384 
Q 3469 3184 3519 2828 
Q 3781 3197 4126 3390 
Q 4472 3584 4856 3584 
Q 5306 3584 5551 3325 
Q 5797 3066 5797 2591 
Q 5797 2488 5784 2364 
Q 5772 2241 5747 2113 
z
" transform="scale(0.015625)"/>
      <path id="DejaVuSans-2309" d="M 1947 4863 
L 1947 -844 
L 1372 -844 
L 1372 4416 
L 622 4416 
L 622 4863 
L 1947 4863 
z
" transform="scale(0.015625)"/>
      <path id="DejaVuSans-2c" d="M 750 794 
L 1409 794 
L 1409 256 
L 897 -744 
L 494 -744 
L 750 256 
L 750 794 
z
" transform="scale(0.015625)"/>
      <path id="DejaVuSans-2e" d="M 684 794 
L 1344 794 
L 1344 0 
L 684 0 
L 684 794 
z
" transform="scale(0.015625)"/>
      <path id="DejaVuSans-35" d="M 691 4666 
L 3169 4666 
L 3169 4134 
L 1269 4134 
L 1269 2991 
Q 1406 3038 1543 3061 
Q 1681 3084 1819 3084 
Q 2600 3084 3056 2656 
Q 3513 2228 3513 1497 
Q 3513 744 3044 326 
Q 2575 -91 1722 -91 
Q 1428 -91 1123 -41 
Q 819 9 494 109 
L 494 744 
Q 775 591 1075 516 
Q 1375 441 1709 441 
Q 2250 441 2565 725 
Q 2881 1009 2881 1497 
Q 2881 1984 2565 2268 
Q 2250 2553 1709 2553 
Q 1456 2553 1204 2497 
Q 953 2441 691 2322 
L 691 4666 
z
" transform="scale(0.015625)"/>
     </defs>
     <use xlink:href="#ArialMT-44" transform="translate(0 0.015625)"/>
     <use xlink:href="#ArialMT-69" transform="translate(72.216797 0.015625)"/>
     <use xlink:href="#ArialMT-73" transform="translate(94.433594 0.015625)"/>
     <use xlink:href="#ArialMT-74" transform="translate(144.433594 0.015625)"/>
     <use xlink:href="#ArialMT-61" transform="translate(172.216797 0.015625)"/>
     <use xlink:href="#ArialMT-6e" transform="translate(227.832031 0.015625)"/>
     <use xlink:href="#ArialMT-63" transform="translate(283.447266 0.015625)"/>
     <use xlink:href="#ArialMT-65" transform="translate(333.447266 0.015625)"/>
     <use xlink:href="#ArialMT-20" transform="translate(389.0625 0.015625)"/>
     <use xlink:href="#ArialMT-54" transform="translate(416.845703 0.015625)"/>
     <use xlink:href="#ArialMT-6f" transform="translate(477.929688 0.015625)"/>
     <use xlink:href="#ArialMT-20" transform="translate(533.544922 0.015625)"/>
     <use xlink:href="#ArialMT-61" transform="translate(561.328125 0.015625)"/>
     <use xlink:href="#ArialMT-20" transform="translate(616.943359 0.015625)"/>
     <use xlink:href="#ArialMT-4d" transform="translate(644.726562 0.015625)"/>
     <use xlink:href="#ArialMT-65" transform="translate(728.027344 0.015625)"/>
     <use xlink:href="#ArialMT-61" transform="translate(783.642578 0.015625)"/>
     <use xlink:href="#ArialMT-73" transform="translate(839.257812 0.015625)"/>
     <use xlink:href="#ArialMT-75" transform="translate(889.257812 0.015625)"/>
     <use xlink:href="#ArialMT-72" transform="translate(944.873047 0.015625)"/>
     <use xlink:href="#ArialMT-65" transform="translate(978.173828 0.015625)"/>
     <use xlink:href="#ArialMT-20" transform="translate(1033.789062 0.015625)"/>
     <use xlink:href="#ArialMT-28" transform="translate(1061.572266 0.015625)"/>
     <use xlink:href="#DejaVuSans-Oblique-6b" transform="translate(1094.873047 0.015625)"/>
     <use xlink:href="#DejaVuSans-3d" transform="translate(1172.265625 0.015625)"/>
     <use xlink:href="#DejaVuSans-2308" transform="translate(1275.537109 0.015625)"/>
     <use xlink:href="#DejaVuSans-Oblique-6d" transform="translate(1314.550781 0.015625)"/>
     <use xlink:href="#DejaVuSans-Oblique-6e" transform="translate(1411.962891 0.015625)"/>
     <use xlink:href="#DejaVuSans-2309" transform="translate(1475.341797 0.015625)"/>
     <use xlink:href="#DejaVuSans-2c" transform="translate(1514.355469 0.015625)"/>
     <use xlink:href="#DejaVuSans-Oblique-6d" transform="translate(1581.860676 0.015625)"/>
     <use xlink:href="#DejaVuSans-3d" transform="translate(1698.755208 0.015625)"/>
     <use xlink:href="#DejaVuSans-30" transform="translate(1802.026692 0.015625)"/>
     <use xlink:href="#DejaVuSans-2e" transform="translate(1865.649739 0.015625)"/>
     <use xlink:href="#DejaVuSans-30" transform="translate(1897.436848 0.015625)"/>
     <use xlink:href="#DejaVuSans-35" transform="translate(1961.059895 0.015625)"/>
     <use xlink:href="#ArialMT-29" transform="translate(2024.682942 0.015625)"/>
    </g>
   </g>
   <g id="patch_57">
    <path d="M 1017.919719 333.34 
L 1045.919719 333.34 
L 1045.919719 323.54 
L 1017.919719 323.54 
z
" style="fill: #e7298a; stroke: #ffffff; stroke-linejoin: miter"/>
   </g>
   <g id="text_43">
    <!-- Kernel Distance -->
    <g style="fill: #262626" transform="translate(1057.119719 333.34) scale(0.14 -0.14)">
     <defs>
      <path id="ArialMT-4b" d="M 469 0 
L 469 4581 
L 1075 4581 
L 1075 2309 
L 3350 4581 
L 4172 4581 
L 2250 2725 
L 4256 0 
L 3456 0 
L 1825 2319 
L 1075 1588 
L 1075 0 
L 469 0 
z
" transform="scale(0.015625)"/>
     </defs>
     <use xlink:href="#ArialMT-4b"/>
     <use xlink:href="#ArialMT-65" transform="translate(66.699219 0)"/>
     <use xlink:href="#ArialMT-72" transform="translate(122.314453 0)"/>
     <use xlink:href="#ArialMT-6e" transform="translate(155.615234 0)"/>
     <use xlink:href="#ArialMT-65" transform="translate(211.230469 0)"/>
     <use xlink:href="#ArialMT-6c" transform="translate(266.845703 0)"/>
     <use xlink:href="#ArialMT-20" transform="translate(289.0625 0)"/>
     <use xlink:href="#ArialMT-44" transform="translate(316.845703 0)"/>
     <use xlink:href="#ArialMT-69" transform="translate(389.0625 0)"/>
     <use xlink:href="#ArialMT-73" transform="translate(411.279297 0)"/>
     <use xlink:href="#ArialMT-74" transform="translate(461.279297 0)"/>
     <use xlink:href="#ArialMT-61" transform="translate(489.0625 0)"/>
     <use xlink:href="#ArialMT-6e" transform="translate(544.677734 0)"/>
     <use xlink:href="#ArialMT-63" transform="translate(600.292969 0)"/>
     <use xlink:href="#ArialMT-65" transform="translate(650.292969 0)"/>
    </g>
   </g>
  </g>
 </g>
 <defs>
  <clipPath id="p1336c3049e">
   <rect x="47.566563" y="7.2" width="383.378" height="257.1525"/>
  </clipPath>
  <clipPath id="p08905c0a35">
   <rect x="501.546562" y="7.2" width="383.378" height="257.1525"/>
  </clipPath>
  <clipPath id="p4c767ad188">
   <rect x="955.526562" y="7.2" width="383.378" height="257.1525"/>
  </clipPath>
 </defs>
</svg>
